# Blender 4.0.2
# www.blender.org
mtllib guncase_open.mtl
o crate2
v -16.000000 1.000000 -32.000000
v -16.000000 1.000000 32.000000
v 16.000000 1.000000 -32.000000
v 16.000000 1.000000 32.000000
v -16.000000 1.000000 -20.000000
v 16.000000 1.000000 -20.000000
v -18.000000 -0.000000 -20.000000
v 18.000000 -0.000000 -20.000000
v -18.000000 -0.000000 16.000000
v 18.000000 -0.000000 16.000000
v 18.000000 -0.000000 -16.000000
v -16.000000 1.000000 -16.000000
v 16.000000 1.000000 16.000000
v -16.000000 1.000000 16.000000
v -16.000000 13.000000 -20.000000
v -16.000000 13.000000 -16.000000
v -16.000000 13.000000 20.000000
v 16.000000 1.000000 20.000000
v -16.000000 1.000000 20.000000
v 18.000000 -0.000000 20.000000
v 16.000000 13.000000 20.000000
v -18.000000 -0.000000 20.000000
v -18.000000 -0.000000 -16.000000
v 16.000000 1.000000 -16.000000
v 16.000000 13.000000 -20.000000
v -16.000000 13.000000 -32.000000
v 16.000000 13.000000 -32.000000
v 18.000000 13.000000 -20.000000
v 18.000000 13.000000 -16.000000
v 16.000000 13.000000 -16.000000
v 18.000000 13.000000 20.000000
v 18.000000 13.000000 16.000000
v 16.000000 13.000000 16.000000
v 16.000000 13.000000 31.999998
v -16.000000 13.000000 31.999998
v -18.000000 13.000000 20.000000
v -18.000000 13.000000 16.000000
v -18.000000 13.000000 -16.000000
v -16.000000 13.000000 16.000000
v -18.000000 13.000000 -20.000000
v 12.000000 13.000000 28.000000
v 12.000000 13.000000 -28.000000
v -12.000000 13.000000 -28.000000
v -12.000000 13.000000 28.000000
v 12.000000 9.000001 28.000000
v 12.000000 9.000000 -28.000000
v -12.000000 9.000000 -28.000000
v -12.000000 9.000001 28.000000
v -12.000000 10.000000 12.000000
v 12.000000 10.000000 -28.000000
v -12.000000 10.000000 28.000000
v 12.000000 10.000000 12.000000
v -12.000000 10.000000 -28.000000
v 12.000000 10.000000 28.000000
vn -0.5774 -0.5774 0.5774
vn 0.5774 0.5774 0.5774
vn -0.5774 0.5774 0.5774
vn -0.3015 0.3015 0.9045
vn 0.5774 0.5774 -0.5774
vn -0.5774 0.5774 -0.5774
vn 0.3015 0.3015 -0.9045
vn 0.3015 -0.9045 0.3015
vn 0.3015 0.3015 0.9045
vn -0.3015 0.3015 -0.9045
vn -0.5774 -0.5774 -0.5774
vn 0.5774 -0.5774 -0.5774
vn 0.3015 -0.9045 -0.3015
vn 0.5774 -0.5774 0.5774
vn -0.3015 -0.9045 0.3015
vn -0.3015 -0.9045 -0.3015
vn 0.5774 -0.5774 0.5773
vn -0.5774 -0.5773 -0.5774
vn -0.0000 1.0000 -0.0000
vt 0.015625 0.921875
vt 0.265625 0.734375
vt 0.015625 0.734375
vt 0.656250 0.750000
vt 0.750000 0.937500
vt 0.750000 0.750000
vt 0.000000 0.656250
vt 0.281250 0.718750
vt 0.000000 0.718750
vt 0.000000 1.000000
vt 0.281250 1.000000
vt 0.265625 0.984375
vt 0.406250 0.750000
vt 0.656250 0.937500
vt 0.656250 0.250000
vt 0.406250 0.250000
vt 0.312500 0.750000
vt 0.312500 0.250000
vt 0.015625 0.984375
vt 0.000000 0.796875
vt 0.312500 0.937500
vt 0.281250 0.921875
vt 0.312500 0.921875
vt 0.312500 0.718750
vt 0.406250 0.937500
vt 0.281250 0.796875
vt 0.750000 0.250000
vt 0.312500 0.953125
vt 0.015625 0.796875
vt 0.000000 0.921875
vt 0.265625 0.921875
vt 1.000000 0.750000
vt 1.000000 0.250000
vt 0.968750 0.062500
vt 1.000000 1.000000
vt 0.781250 0.937500
vt 0.750000 1.000000
vt 0.750000 0.000000
vt 1.000000 0.000000
vt 0.312500 0.187500
vt 0.750000 0.187500
vt 0.562500 0.125000
vt 0.562500 0.187500
vt 0.750000 0.125000
vt 0.968750 0.937500
vt 0.781250 0.562500
vt 0.968750 0.562500
vt 0.187500 0.640625
vt 0.000000 0.015625
vt 0.000000 0.640625
vt 0.000000 0.390625
vt 0.281250 0.656250
vt 0.265625 0.796875
vt 0.281250 0.953125
vt 1.000000 0.187500
vt 1.000000 0.812500
vt 0.781250 0.062500
vt 0.750000 0.812500
vt 0.187500 0.015625
vt 0.187500 0.390625
s 1
usemtl GNCS01
f 27/1/1 1/2/2 3/3/3
f 6/4/4 27/5/1 3/6/3
f 10/7/3 22/8/5 20/9/6
f 11/10/6 23/11/5 12/12/7
f 12/13/7 39/14/8 14/4/9
f 24/15/10 14/13/9 13/16/4
f 18/16/10 2/17/5 4/18/6
f 24/19/10 29/20/11 11/10/6
f 34/21/11 18/13/10 4/17/6
f 18/2/10 31/22/11 20/8/6
f 5/2/9 8/9/3 6/3/4
f 11/8/6 28/23/1 8/24/3
f 9/8/2 36/23/12 22/24/5
f 23/7/5 8/8/3 7/9/2
f 17/14/13 2/6/5 19/4/7
f 5/13/9 26/21/14 15/25/8
f 11/10/6 12/12/7 24/19/10
f 32/26/1 13/12/4 10/11/3
f 9/10/2 13/12/4 14/19/9
f 3/27/3 5/4/9 6/15/4
f 33/25/15 24/4/10 13/13/4
f 18/2/10 20/8/6 22/9/5
f 37/22/14 17/28/13 36/23/12
f 37/20/14 14/19/9 39/29/8
f 6/3/4 28/30/1 25/1/15
f 40/22/14 16/28/13 38/23/12
f 5/2/9 7/8/2 8/9/3
f 36/30/12 19/3/7 22/9/5
f 40/22/14 5/2/9 15/31/8
f 18/2/10 22/9/5 19/3/7
f 32/23/1 20/8/6 31/22/11
f 29/22/11 25/28/15 28/23/1
f 31/22/11 33/28/15 32/23/1
f 9/10/2 10/11/3 13/12/4
f 38/26/12 12/12/7 23/11/5
f 38/23/12 7/8/2 40/22/14
f 35/1/12 4/2/6 2/3/5
f 30/32/16 33/33/15 41/34/8
f 27/35/1 43/36/16 26/37/14
f 35/38/12 41/34/8 34/39/11
f 43/27/16 48/40/1 44/18/15
f 44/41/15 45/42/17 41/43/8
f 42/43/13 47/44/18 43/41/16
f 39/27/8 16/6/13 43/36/16
f 45/45/17 47/46/18 46/47/12
f 42/27/13 45/40/17 46/41/12
s 0
f 53/48/19 52/49/19 50/50/19
f 49/48/19 54/51/19 52/50/19
s 1
f 27/1/1 26/31/14 1/2/2
f 6/4/4 25/14/15 27/5/1
f 10/7/3 9/52/2 22/8/5
f 12/13/7 16/25/13 39/14/8
f 24/15/10 12/4/7 14/13/9
f 18/16/10 19/13/7 2/17/5
f 24/19/10 30/29/16 29/20/11
f 34/21/11 21/25/16 18/13/10
f 18/2/10 21/31/16 31/22/11
f 11/8/6 29/22/11 28/23/1
f 9/8/2 37/22/14 36/23/12
f 23/7/5 11/52/6 8/8/3
f 17/14/13 35/5/12 2/6/5
f 5/13/9 1/17/2 26/21/14
f 32/26/1 33/53/15 13/12/4
f 3/27/3 1/6/2 5/4/9
f 33/25/15 30/14/16 24/4/10
f 37/22/14 39/54/8 17/28/13
f 37/20/14 9/10/2 14/19/9
f 6/3/4 8/9/3 28/30/1
f 40/22/14 15/54/8 16/28/13
f 36/30/12 17/1/13 19/3/7
f 40/22/14 7/8/2 5/2/9
f 32/23/1 10/24/3 20/8/6
f 29/22/11 30/54/16 25/28/15
f 31/22/11 21/54/16 33/28/15
f 38/26/12 16/53/13 12/12/7
f 38/23/12 23/24/5 7/8/2
f 35/1/12 34/31/11 4/2/6
f 21/55/16 34/39/11 41/34/8
f 41/34/8 42/45/13 30/32/16
f 42/45/13 27/35/1 25/56/15
f 42/45/13 25/56/15 30/32/16
f 33/33/15 21/55/16 41/34/8
f 27/35/1 42/45/13 43/36/16
f 35/38/12 44/57/15 41/34/8
f 43/27/16 47/41/18 48/40/1
f 44/41/15 48/44/1 45/42/17
f 42/43/13 46/42/12 47/44/18
f 15/58/8 26/37/14 43/36/16
f 43/36/16 44/57/15 39/27/8
f 44/57/15 35/38/12 17/41/13
f 44/57/15 17/41/13 39/27/8
f 16/6/13 15/58/8 43/36/16
f 45/45/17 48/36/1 47/46/18
f 42/27/13 41/18/8 45/40/17
s 0
f 53/48/19 49/59/19 52/49/19
f 49/48/19 51/60/19 54/51/19
