# Blender 4.0.2
# www.blender.org
mtllib paganroof.mtl
o paganroof
v -8.000000 0.000000 8.000000
v 296.000000 0.000000 8.000000
v 296.000000 0.000000 -152.000000
v 472.000000 0.000000 -152.000000
v 472.000000 0.000000 -712.000000
v -8.000015 0.000000 -712.000000
v -16.000000 23.999998 15.999999
v -8.000008 0.000000 -584.000000
v 472.000000 0.000000 -584.000000
v 304.000000 23.999998 -144.000000
v 304.000000 23.999998 15.999999
v 480.000000 23.999998 -144.000000
v 480.000000 23.999998 -720.000000
v -16.000015 23.999998 -720.000000
v -8.000015 24.000000 -712.000000
v 472.000000 24.000000 -712.000000
v -8.000000 24.000000 8.000000
v 296.000000 24.000000 8.000000
v 472.000000 24.000000 -152.000000
v -8.000000 24.000000 -152.000000
v 296.000000 24.000000 -152.000000
v 232.000000 66.000000 -712.000000
v 472.000000 32.000000 -712.000000
v 232.000000 66.000000 -152.000000
v 472.000000 31.999998 -152.000000
v -8.000000 31.999998 -152.000000
v -8.000015 31.999998 -712.000000
v 232.000000 82.000000 -718.000000
v 232.000000 82.000000 -146.000000
v 478.000000 48.000000 -146.000000
v 478.000000 48.000000 -718.000000
v -14.000000 48.000000 -146.000000
v -14.000015 48.000000 -718.000000
v 232.000000 86.000000 -718.000000
v 232.000000 86.000000 -146.000000
v 478.000000 52.000000 -146.000000
v 478.000000 52.000000 -718.000000
v -14.000000 52.000000 -146.000000
v -14.000015 52.000000 -718.000000
v 232.000000 86.000000 -654.000000
v 232.000000 86.000000 -210.000000
v 414.000000 61.000000 -210.000000
v 50.000000 61.000000 -210.000000
v 414.000000 61.000000 -654.000000
v 50.000000 61.000000 -654.000000
v 482.000000 52.000000 -718.000000
v 482.000000 52.000000 -146.000000
v -18.000000 52.000000 -146.000000
v -18.000000 52.000000 -718.000000
vn 0.7580 -0.6522 -0.0000
vn 0.4768 -0.7385 0.4768
vn 0.2080 -0.9558 0.2080
vn 0.4110 0.8137 0.4110
vn 0.6437 0.4138 0.6437
vn -0.6396 -0.4264 -0.6396
vn 0.6437 0.4138 -0.6437
vn 0.6396 -0.4264 -0.6396
vn -0.6437 0.4138 0.6437
vn -0.4768 -0.7385 0.4768
vn 0.3015 0.9045 0.3015
vn -0.6437 0.4138 -0.6437
vn 0.3015 0.9045 -0.3015
vn -0.0000 1.0000 -0.0000
vn -0.0000 0.7071 0.7071
vn -0.7580 -0.6522 -0.0000
vn -0.3015 0.9045 0.3015
vn -0.3015 0.9045 -0.3015
vn -0.0000 -0.1938 -0.9810
vn -0.0000 -0.1938 0.9810
vn -0.6717 -0.2599 -0.6937
vn 0.6717 -0.2599 -0.6937
vn -0.6717 -0.2599 0.6937
vn 0.6717 -0.2599 0.6937
vn -0.0000 -0.1629 0.9866
vn -0.6817 -0.2279 0.6952
vn -0.6817 -0.2279 -0.6952
vn -0.0000 -0.1629 -0.9866
vn 0.6817 -0.2279 0.6952
vn 0.6817 -0.2279 -0.6952
vn -0.6117 0.5324 0.5851
vn -0.6117 0.5324 -0.5851
vn 0.6117 0.5324 0.5851
vn -0.0000 0.9082 0.4185
vn -0.0000 0.9082 -0.4185
vn 0.6117 0.5324 -0.5851
vn 0.1375 0.9905 -0.0008
vn -0.1375 0.9905 -0.0008
vn 0.1375 0.9905 0.0008
vn -0.1375 0.9905 0.0008
vn 0.1348 0.9909 -0.0000
vn -0.1348 0.9909 -0.0000
vt 0.000000 0.000000
vt -2.500000 -0.000000
vt -1.156250 0.210938
vt -2.570312 0.210938
vt -1.085938 -0.000000
vt 2.710938 -0.000000
vt 2.609375 0.000000
vt -1.679688 0.210938
vt -1.609375 0.000000
vt 0.304688 -0.000000
vt -1.171875 0.210938
vt -1.242188 -0.000000
vt 1.835938 -0.000000
vt -0.906250 0.210938
vt -0.835938 -0.000000
vt 2.742188 0.210938
vt -1.679688 0.273438
vt -1.742188 0.210938
vt 2.429688 0.210938
vt -1.367188 0.273438
vt -1.429688 0.210938
vt 1.140625 0.210938
vt -0.046875 0.273438
vt -0.109375 0.210938
vt 0.070312 0.210938
vt 1.375000 0.273438
vt 0.007812 0.273438
vt 1.484375 0.210938
vt -0.953125 0.273438
vt -1.015625 0.210938
vt -1.593750 0.000000
vt 3.648438 0.210938
vt -2.781250 0.210938
vt 1.882230 -0.227490
vt -0.882230 1.227490
vt -0.882230 -0.227490
vt 3.359375 0.210938
vt 3.296875 0.273438
vt 2.054688 0.273438
vt 2.375000 0.273438
vt -1.375000 0.273438
vt 0.500000 0.601562
vt -1.398438 0.273438
vt 0.976562 0.273438
vt 0.476562 0.601562
vt 2.359375 0.273438
vt -1.687500 0.273438
vt 2.687500 0.335938
vt 2.687500 0.273438
vt 2.375000 0.335938
vt -1.398438 0.335938
vt -1.687500 0.335938
vt 2.359375 0.335938
vt -1.375000 0.335938
vt -1.492188 0.601562
vt 0.500000 0.734375
vt -1.539062 0.734375
vt -1.820312 0.601562
vt 2.875000 0.734375
vt 2.820312 0.601562
vt 2.492188 0.601562
vt -1.875000 0.734375
vt 2.539062 0.734375
vt -1.492188 0.765625
vt -1.492188 0.734375
vt -1.820312 0.734375
vt 2.820312 0.765625
vt 2.820312 0.734375
vt 2.492188 0.765625
vt 0.500000 0.765625
vt -1.820312 0.765625
vt 2.492188 0.734375
vt 0.500000 1.000000
vt 1.921875 0.000000
vt 2.421875 1.000000
vt -0.921875 0.000000
vt 0.500000 0.000000
vt 2.234375 -0.000000
vt -1.734375 1.000000
vt -1.234375 -0.000000
vt 2.734375 1.000000
vt -0.921875 -1.734373
vt 0.499331 -5.203116
vt 0.500000 -1.734373
vt 1.922511 -5.203119
vt 1.921875 -1.734373
vt 2.052448 1.000000
vt -1.500000 0.765625
vt -1.052447 1.000000
vt 2.500000 1.000000
vt 2.500000 0.765625
vt -1.500000 1.000000
vt -1.052448 1.000000
vt 2.500000 0.765625
vt 2.052447 1.000000
vt -1.500000 0.765625
vt 3.843750 -0.000000
vt 3.914062 0.210938
vt 2.679688 0.210938
vt 0.375000 0.210938
vt 1.906250 0.210938
vt 2.679688 0.273438
vt 2.367188 0.273438
vt 1.203125 0.273438
vt 1.437500 0.210938
vt 1.421875 0.273438
vt -2.710938 0.000000
vt 3.578125 0.000000
vt 1.882230 1.227490
vt -2.296875 0.273438
vt -2.359375 0.210938
vt -1.421875 1.000000
vt -0.922512 -5.203116
vt 0.500669 -5.203116
s 1
usemtl BLAK1
f 9/1/1 4/1/2 3/1/3
f 3/1/3 2/1/2 1/1/10
f 1/1/10 8/1/16 3/1/3
f 8/1/16 9/1/1 3/1/3
usemtl PGNRUF01
f 2/2/2 10/3/4 11/4/5
f 12/3/5 4/5/2 9/6/1
f 6/7/6 13/8/7 5/9/8
f 4/10/2 10/11/4 3/12/3
f 2/13/2 7/14/9 1/15/10
f 13/16/7 19/17/11 12/18/5
f 14/19/12 16/20/13 13/21/7
f 10/22/4 18/23/14 11/24/5
f 10/25/4 19/26/11 21/27/15
f 11/28/5 17/29/14 7/30/9
f 8/31/16 7/32/9 14/33/12
f 7/37/9 17/38/14 20/39/17
f 16/40/13 15/41/18 22/42/19
f 20/43/17 21/44/15 24/45/20
f 21/44/15 19/46/11 24/45/20
f 20/47/17 27/48/21 15/49/18
f 16/40/13 22/42/19 23/50/22
f 20/43/17 24/45/20 26/51/23
f 16/49/13 25/52/24 19/47/11
f 24/45/20 19/46/11 25/53/24
f 22/42/19 15/41/18 27/54/21
f 26/55/23 29/56/25 32/57/26
f 26/58/23 33/59/27 27/60/21
f 25/61/24 29/56/25 24/42/20
f 27/55/21 28/56/28 22/42/19
f 23/60/22 30/62/29 25/58/24
f 23/61/22 28/56/28 31/63/30
f 29/56/25 38/64/31 32/65/26
f 32/66/26 39/67/32 33/68/27
f 29/56/25 36/69/33 35/70/34
f 28/56/28 39/64/32 34/70/35
f 31/68/30 36/71/33 30/66/29
f 28/56/28 37/69/36 31/72/30
f 41/87/14 46/88/41 40/89/14
f 41/87/14 35/90/34 47/91/41
f 34/92/35 40/89/14 46/88/41
f 40/93/14 48/94/42 41/95/14
f 35/90/34 41/95/14 48/94/42
f 40/93/14 34/92/35 49/96/42
f 2/2/2 3/5/3 10/3/4
f 9/6/1 5/97/8 13/98/7
f 13/98/7 12/3/5 9/6/1
f 6/7/6 14/99/12 13/8/7
f 4/10/2 12/100/5 10/11/4
f 2/13/2 11/101/5 7/14/9
f 13/16/7 16/102/13 19/17/11
f 14/19/12 15/103/18 16/20/13
f 10/22/4 21/104/15 18/23/14
f 10/25/4 12/105/5 19/26/11
f 11/28/5 18/106/14 17/29/14
f 14/33/12 6/107/6 8/31/16
f 8/31/16 1/108/10 7/32/9
f 15/110/18 14/111/12 20/39/17
f 14/111/12 7/37/9 20/39/17
f 20/47/17 26/52/23 27/48/21
f 16/49/13 23/48/22 25/52/24
f 26/55/23 24/42/20 29/56/25
f 26/58/23 32/62/26 33/59/27
f 25/61/24 30/63/29 29/56/25
f 27/55/21 33/57/27 28/56/28
f 23/60/22 31/59/30 30/62/29
f 23/61/22 22/42/19 28/56/28
f 29/56/25 35/70/34 38/64/31
f 32/66/26 38/71/31 39/67/32
f 29/56/25 30/72/29 36/69/33
f 28/56/28 33/65/27 39/64/32
f 31/68/30 37/67/36 36/71/33
f 28/56/28 34/70/35 37/69/36
f 41/87/14 47/91/41 46/88/41
f 40/93/14 49/96/42 48/94/42
usemtl PGNRUF02
f 18/34/14 20/35/17 17/36/14
f 42/82/39 40/83/14 41/84/14
f 41/84/14 45/85/38 43/86/40
f 18/34/14 21/109/15 20/35/17
f 42/82/39 44/113/37 40/83/14
f 41/84/14 40/114/14 45/85/38
usemtl PGNRUF03
f 34/73/35 44/74/37 37/75/36
f 34/73/35 45/76/38 40/77/14
f 35/73/34 42/76/39 41/77/14
f 35/73/34 43/74/40 38/75/31
f 45/78/38 38/79/31 43/80/40
f 36/81/33 44/80/37 42/78/39
f 34/73/35 40/77/14 44/74/37
f 34/73/35 39/112/32 45/76/38
f 35/73/34 36/112/33 42/76/39
f 35/73/34 41/77/14 43/74/40
f 45/78/38 39/81/32 38/79/31
f 36/81/33 37/79/36 44/80/37
