# Blender 4.0.2
# www.blender.org
mtllib paganroof.mtl
o paganroof
v 55.999985 0.000000 -584.000000
v 408.000000 0.000000 -584.000000
v 55.999985 0.000000 -648.000000
v 408.000000 0.000000 -648.000000
v -8.000000 0.000000 8.000000
v 296.000000 0.000000 8.000000
v 296.000000 0.000000 -152.000000
v 472.000000 0.000000 -152.000000
v 472.000000 0.000000 -712.000000
v -8.000015 0.000000 -712.000000
v -16.000000 23.999998 15.999999
v -8.000008 0.000000 -584.000000
v 472.000000 0.000000 -584.000000
v 304.000000 23.999998 -144.000000
v 304.000000 23.999998 15.999999
v 480.000000 23.999998 -144.000000
v 480.000000 23.999998 -720.000000
v -16.000015 23.999998 -720.000000
v -8.000015 24.000000 -712.000000
v 472.000000 24.000000 -712.000000
v -8.000000 24.000000 8.000000
v 296.000000 24.000000 8.000000
v 472.000000 24.000000 -152.000000
v -8.000000 24.000000 -152.000000
v 296.000000 24.000000 -152.000000
v 232.000000 66.000000 -712.000000
v 472.000000 32.000000 -712.000000
v 232.000000 66.000000 -152.000000
v 472.000000 31.999998 -152.000000
v -8.000000 31.999998 -152.000000
v -8.000015 31.999998 -712.000000
v 232.000000 82.000000 -718.000000
v 232.000000 82.000000 -146.000000
v 478.000000 48.000000 -146.000000
v 478.000000 48.000000 -718.000000
v -14.000000 48.000000 -146.000000
v -14.000015 48.000000 -718.000000
v 232.000000 86.000000 -718.000000
v 232.000000 86.000000 -146.000000
v 478.000000 52.000000 -146.000000
v 478.000000 52.000000 -718.000000
v -14.000000 52.000000 -146.000000
v -14.000015 52.000000 -718.000000
v 232.000000 86.000000 -654.000000
v 232.000000 86.000000 -210.000000
v 414.000000 61.000000 -210.000000
v 50.000000 61.000000 -210.000000
v 414.000000 61.000000 -654.000000
v 50.000000 61.000000 -654.000000
v 482.000000 52.000000 -718.000000
v 482.000000 52.000000 -146.000000
v -18.000000 52.000000 -146.000000
v -18.000000 52.000000 -718.000000
vn -0.4768 -0.7385 -0.4768
vn -0.0000 -1.0000 -0.0000
vn -0.5847 -0.8112 -0.0000
vn 0.5847 -0.8112 -0.0000
vn 0.4768 -0.7385 0.4768
vn 0.2080 -0.9558 0.2080
vn 0.4110 0.8137 0.4110
vn 0.6437 0.4138 0.6437
vn 0.6437 0.4138 -0.6437
vn 0.4768 -0.7385 -0.4768
vn -0.6437 0.4138 0.6437
vn -0.4768 -0.7385 0.4768
vn 0.3015 0.9045 0.3015
vn -0.6437 0.4138 -0.6437
vn 0.3015 0.9045 -0.3015
vn -0.0000 1.0000 -0.0000
vn -0.0000 0.7071 0.7071
vn -0.3015 0.9045 0.3015
vn -0.3015 0.9045 -0.3015
vn -0.0000 -0.1938 -0.9810
vn -0.0000 -0.1938 0.9810
vn -0.6717 -0.2599 -0.6937
vn 0.6717 -0.2599 -0.6937
vn -0.6717 -0.2599 0.6937
vn 0.6717 -0.2599 0.6937
vn -0.0000 -0.1629 0.9866
vn -0.6817 -0.2279 0.6952
vn -0.6817 -0.2279 -0.6952
vn -0.0000 -0.1629 -0.9866
vn 0.6817 -0.2279 0.6952
vn 0.6817 -0.2279 -0.6952
vn -0.6117 0.5324 0.5851
vn -0.6117 0.5324 -0.5851
vn 0.6117 0.5324 0.5851
vn -0.0000 0.9082 0.4185
vn -0.0000 0.9082 -0.4185
vn 0.6117 0.5324 -0.5851
vn 0.1375 0.9905 -0.0008
vn -0.1375 0.9905 -0.0008
vn 0.1375 0.9905 0.0008
vn -0.1375 0.9905 0.0008
vn 0.1348 0.9909 -0.0000
vn -0.1348 0.9909 -0.0000
vt -1.375000 1.000000
vt 1.875000 0.000000
vt -0.875000 0.000000
vt 1.000000 -1.375000
vt 0.500000 -4.125001
vt 0.500000 -1.375000
vt 0.000000 1.000000
vt 0.500000 0.000000
vt 0.000000 0.000000
vt 1.000000 1.000000
vt 1.000000 0.000000
vt -2.500000 -0.000000
vt -1.156250 0.210938
vt -2.570312 0.210938
vt -1.085938 -0.000000
vt 2.710938 -0.000000
vt 2.609375 0.000000
vt -1.679688 0.210938
vt -1.609375 0.000000
vt 0.304688 -0.000000
vt -1.171875 0.210938
vt -1.242188 -0.000000
vt 1.835938 -0.000000
vt -0.906250 0.210938
vt -0.835938 -0.000000
vt 2.742188 0.210938
vt -1.679688 0.273438
vt -1.742188 0.210938
vt 2.429688 0.210938
vt -1.367188 0.273438
vt -1.429688 0.210938
vt 1.140625 0.210938
vt -0.046875 0.273438
vt -0.109375 0.210938
vt 0.070312 0.210938
vt 1.375000 0.273438
vt 0.007812 0.273438
vt 1.484375 0.210938
vt -0.953125 0.273438
vt -1.015625 0.210938
vt -1.593750 0.000000
vt 3.648438 0.210938
vt -2.781250 0.210938
vt 1.882230 -0.227490
vt -0.882230 1.227490
vt -0.882230 -0.227490
vt 3.359375 0.210938
vt 3.296875 0.273438
vt 2.054688 0.273438
vt 2.375000 0.273438
vt -1.375000 0.273438
vt 0.500000 0.601562
vt -1.398438 0.273438
vt 0.976562 0.273438
vt 0.476562 0.601562
vt 2.359375 0.273438
vt -1.687500 0.273438
vt 2.687500 0.335938
vt 2.687500 0.273438
vt 2.375000 0.335938
vt -1.398438 0.335938
vt -1.687500 0.335938
vt 2.359375 0.335938
vt -1.375000 0.335938
vt -1.492188 0.601562
vt 0.500000 0.734375
vt -1.539062 0.734375
vt -1.820312 0.601562
vt 2.875000 0.734375
vt 2.820312 0.601562
vt 2.492188 0.601562
vt -1.875000 0.734375
vt 2.539062 0.734375
vt -1.492188 0.765625
vt -1.492188 0.734375
vt -1.820312 0.734375
vt 2.820312 0.765625
vt 2.820312 0.734375
vt 2.492188 0.765625
vt 0.500000 0.765625
vt -1.820312 0.765625
vt 2.492188 0.734375
vt 0.500000 1.000000
vt 1.921875 0.000000
vt 2.421875 1.000000
vt -0.921875 0.000000
vt 2.234375 -0.000000
vt -1.734375 1.000000
vt -1.234375 -0.000000
vt 2.734375 1.000000
vt -0.921875 -1.734373
vt 0.499331 -5.203116
vt 0.500000 -1.734373
vt 1.922511 -5.203119
vt 1.921875 -1.734373
vt 2.052448 1.000000
vt -1.500000 0.765625
vt -1.052447 1.000000
vt 2.500000 1.000000
vt 2.500000 0.765625
vt -1.500000 1.000000
vt -1.052448 1.000000
vt 2.500000 0.765625
vt 2.052447 1.000000
vt -1.500000 0.765625
vt 2.375000 1.000000
vt 1.000000 -4.125001
vt 3.843750 -0.000000
vt 3.914062 0.210938
vt 2.679688 0.210938
vt 0.375000 0.210938
vt 1.906250 0.210938
vt 2.679688 0.273438
vt 2.367188 0.273438
vt 1.203125 0.273438
vt 1.437500 0.210938
vt 1.421875 0.273438
vt -2.710938 0.000000
vt 3.578125 0.000000
vt 1.882230 1.227490
vt -2.296875 0.273438
vt -2.359375 0.210938
vt -1.421875 1.000000
vt -0.922512 -5.203116
vt 0.500669 -5.203116
s 1
usemtl BLAK1
f 13/9/4 8/9/5 7/9/6
f 7/9/6 6/9/5 5/9/12
f 5/9/12 12/9/3 7/9/6
f 12/9/3 13/9/4 7/9/6
usemtl PGNRUF01
f 6/12/5 14/13/7 15/14/8
f 16/13/8 8/15/5 13/16/4
f 10/17/1 17/18/9 9/19/10
f 8/20/5 14/21/7 7/22/6
f 6/23/5 11/24/11 5/25/12
f 17/26/9 23/27/13 16/28/8
f 18/29/14 20/30/15 17/31/9
f 14/32/7 22/33/16 15/34/8
f 14/35/7 23/36/13 25/37/17
f 15/38/8 21/39/16 11/40/11
f 12/41/3 11/42/11 18/43/14
f 11/47/11 21/48/16 24/49/18
f 20/50/15 19/51/19 26/52/20
f 24/53/18 25/54/17 28/55/21
f 25/54/17 23/56/13 28/55/21
f 24/57/18 31/58/22 19/59/19
f 20/50/15 26/52/20 27/60/23
f 24/53/18 28/55/21 30/61/24
f 20/59/15 29/62/25 23/57/13
f 28/55/21 23/56/13 29/63/25
f 26/52/20 19/51/19 31/64/22
f 30/65/24 33/66/26 36/67/27
f 30/68/24 37/69/28 31/70/22
f 29/71/25 33/66/26 28/52/21
f 31/65/22 32/66/29 26/52/20
f 27/70/23 34/72/30 29/68/25
f 27/71/23 32/66/29 35/73/31
f 33/66/26 42/74/32 36/75/27
f 36/76/27 43/77/33 37/78/28
f 33/66/26 40/79/34 39/80/35
f 32/66/29 43/74/33 38/80/36
f 35/78/31 40/81/34 34/76/30
f 32/66/29 41/79/37 35/82/31
f 45/96/16 50/97/42 44/98/16
f 45/96/16 39/99/35 51/100/42
f 38/101/36 44/98/16 50/97/42
f 44/102/16 52/103/43 45/104/16
f 39/99/35 45/104/16 52/103/43
f 44/102/16 38/101/36 53/105/43
f 6/12/5 7/15/6 14/13/7
f 13/16/4 9/108/10 17/109/9
f 17/109/9 16/13/8 13/16/4
f 10/17/1 18/110/14 17/18/9
f 8/20/5 16/111/8 14/21/7
f 6/23/5 15/112/8 11/24/11
f 17/26/9 20/113/15 23/27/13
f 18/29/14 19/114/19 20/30/15
f 14/32/7 25/115/17 22/33/16
f 14/35/7 16/116/8 23/36/13
f 15/38/8 22/117/16 21/39/16
f 18/43/14 10/118/1 12/41/3
f 12/41/3 5/119/12 11/42/11
f 19/121/19 18/122/14 24/49/18
f 18/122/14 11/47/11 24/49/18
f 24/57/18 30/62/24 31/58/22
f 20/59/15 27/58/23 29/62/25
f 30/65/24 28/52/21 33/66/26
f 30/68/24 36/72/27 37/69/28
f 29/71/25 34/73/30 33/66/26
f 31/65/22 37/67/28 32/66/29
f 27/70/23 35/69/31 34/72/30
f 27/71/23 26/52/20 32/66/29
f 33/66/26 39/80/35 42/74/32
f 36/76/27 42/81/32 43/77/33
f 33/66/26 34/82/30 40/79/34
f 32/66/29 37/75/28 43/74/33
f 35/78/31 41/77/37 40/81/34
f 32/66/29 38/80/36 41/79/37
f 45/96/16 51/100/42 50/97/42
f 44/102/16 53/105/43 52/103/43
usemtl PGNRUF02
f 2/4/2 3/5/2 4/6/2
f 22/44/16 24/45/18 21/46/16
f 46/91/40 44/92/16 45/93/16
f 45/93/16 49/94/39 47/95/41
f 2/4/2 1/107/2 3/5/2
f 22/44/16 25/120/17 24/45/18
f 46/91/40 48/124/38 44/92/16
f 45/93/16 44/125/16 49/94/39
usemtl PGNRUF03
f 38/83/36 48/84/38 41/85/37
f 38/83/36 49/86/39 44/8/16
f 39/83/35 46/86/40 45/8/16
f 39/83/35 47/84/41 42/85/32
f 49/87/39 42/88/32 47/89/41
f 40/90/34 48/89/38 46/87/40
f 38/83/36 44/8/16 48/84/38
f 38/83/36 43/123/33 49/86/39
f 39/83/35 40/123/34 46/86/40
f 39/83/35 45/8/16 47/84/41
f 49/87/39 43/90/33 42/88/32
f 40/90/34 41/88/37 48/89/38
usemtl PGNRUF04
f 10/1/1 4/2/2 3/3/2
f 12/7/3 3/8/2 1/9/2
f 4/8/2 13/10/4 2/11/2
f 10/1/1 9/106/10 4/2/2
f 12/7/3 10/10/1 3/8/2
f 4/8/2 9/7/10 13/10/4
