# Blender 4.0.2
# www.blender.org
mtllib roof12.mtl
o PRLD07B.012
v -5.000000 7.000000 -11.000000
v -122.000000 30.999998 405.000000
v -122.000000 47.000000 405.000000
v 166.000000 46.999996 118.000000
v 166.000000 6.999998 118.000000
v 395.000000 7.000000 348.000000
v 108.000000 7.000000 635.000000
v -271.000000 7.000000 256.000000
v 145.000000 6.999999 139.000000
v 145.000000 31.000000 139.000000
v 166.000000 -0.000003 118.000000
v 395.000000 0.000000 348.000000
v -271.000000 -0.000000 256.000000
v 145.000000 -0.000001 139.000000
v -5.000000 -0.000000 -11.000000
v 108.000000 0.000000 635.000000
v -5.000000 5.737222 -31.000000
v -132.000000 31.000000 415.000000
v -142.000000 48.766308 405.000000
v 166.000000 48.766308 98.000000
v 415.000000 5.696600 348.000000
v 108.000000 5.696599 655.000000
v -291.000000 5.737222 256.000000
v 155.000000 30.999998 129.000000
vn 0.0337 -0.0000 -0.9994
vn -0.4657 -0.0017 -0.8849
vn -0.0000 -0.0000 -1.0000
vn -0.8978 -0.0000 0.4404
vn -0.0375 -0.0000 0.9993
vn -0.9991 -0.0001 -0.0415
vn -0.9994 -0.0000 0.0357
vn -0.0393 -0.0007 -0.9992
vn 0.0011 -0.0000 -1.0000
vn 0.9993 -0.0000 -0.0364
vn -0.0000 -0.9045 -0.4264
vn 0.0009 -0.5772 -0.8166
vn -0.0000 -0.5773 0.8165
vn -0.0008 -0.5773 -0.8166
vn -0.8164 -0.5774 0.0008
vn 0.8164 -0.5775 0.0009
vn 0.0855 0.9926 0.0857
vn 0.0857 0.9926 0.0857
vn 0.0854 0.9927 0.0856
vn -0.0787 0.9938 -0.0786
vn -0.0786 0.9938 -0.0783
vn -0.0787 0.9938 -0.0788
vn -0.0788 0.9937 -0.0791
vt -0.026135 0.061368
vt 1.101836 0.241843
vt 1.101836 0.061368
vt -0.905953 0.241843
vt 0.823603 0.061367
vt -0.905953 0.362160
vt -2.026405 0.061368
vt 1.259752 0.362160
vt 1.259752 0.061368
vt 1.027176 0.061284
vt 1.027176 0.362077
vt -0.702381 0.061284
vt 1.101836 0.008729
vt 1.027176 0.008645
vt 0.823603 0.008729
vt -0.026135 0.008729
vt -0.010558 0.061284
vt 1.997231 0.008646
vt -0.010558 0.008645
vt 2.981789 0.061368
vt -0.008915 0.491554
vt 0.615709 0.315878
vt 0.560154 1.060623
vt 0.991085 0.629692
vt 0.390484 0.090653
vt 0.647241 0.284347
vt 1.259752 0.008729
vt -0.702381 0.008645
vt -2.026405 0.008729
vt 1.997231 0.061284
vt 2.981789 0.008729
vt 2.576519 2.104806
vt 2.576519 -1.042573
vt 0.018632 -1.047699
vt 0.013506 2.104806
vt 0.121152 -0.832406
vt -1.519176 -0.832406
vt -1.514050 2.104806
vt 0.116026 2.104806
s 1
usemtl ROOFSD01
f 1/1/1 10/2/2 9/3/3
f 2/4/4 7/5/5 3/6/6
f 2/4/4 8/7/7 7/5/5
f 4/8/8 5/9/9 10/2/2
f 10/2/2 5/9/9 9/3/3
f 10/2/2 3/6/6 4/8/8
f 5/10/9 4/11/8 6/12/10
f 10/2/2 2/4/4 3/6/6
f 5/9/9 14/13/11 9/3/3
f 6/12/10 11/14/12 5/10/9
f 8/7/7 16/15/13 7/5/5
f 9/3/3 15/16/14 1/1/1
f 8/17/7 15/18/14 13/19/15
f 16/15/13 6/20/10 7/5/5
f 5/9/9 11/27/12 14/13/11
f 6/12/10 12/28/16 11/14/12
f 8/7/7 13/29/15 16/15/13
f 9/3/3 14/13/11 15/16/14
f 8/17/7 1/30/1 15/18/14
f 16/15/13 12/31/16 6/20/10
usemtl BLAK1
f 13/21/15 14/22/11 16/23/13
f 14/22/11 12/24/16 16/23/13
f 13/21/15 15/25/14 14/22/11
f 14/22/11 11/26/12 12/24/16
usemtl ROOFTPP
f 22/32/17 21/33/18 20/34/17
f 19/35/19 22/32/17 20/34/17
f 24/36/20 17/37/21 23/38/22
f 18/39/23 24/36/20 23/38/22
