# Blender 4.0.2
# www.blender.org
mtllib roof4.mtl
o base4
v -8.000000 8.000000 -8.000000
v 280.000000 18.000000 72.000000
v 664.000000 32.000000 424.000000
v 664.000000 32.000000 72.000000
v -8.000000 8.000000 424.000000
v 280.000000 18.000000 -8.000000
v -8.000000 0.000000 -8.000000
v 280.000000 0.000000 72.000000
v 664.000000 0.000000 424.000000
v 664.000000 0.000000 72.000000
v -8.000000 0.000000 424.000000
v 280.000000 0.000000 -8.000000
v -18.000000 7.700000 -18.000000
v 290.000000 18.399998 62.000000
v 674.000000 32.400005 434.000000
v 674.000000 32.399998 61.999996
v -18.000000 7.700000 434.000000
v 290.000000 18.399998 -18.000000
vn 0.6990 -0.0000 -0.7152
vn 0.5774 -0.5774 -0.5774
vn 0.7150 -0.0000 -0.6992
vn -0.6993 -0.0000 -0.7148
vn -0.5774 -0.5774 -0.5774
vn -0.6991 -0.0000 0.7150
vn 0.5774 -0.5774 0.5774
vn 0.7152 -0.0000 0.6989
vn 0.5773 -0.5774 -0.5774
vn 0.3015 -0.9045 -0.3015
vn -0.5773 -0.5774 0.5774
vn 0.7154 -0.0000 -0.6988
vn -0.0359 0.9994 -0.0003
vn -0.0346 0.9994 -0.0013
vn -0.0352 0.9994 -0.0005
vn -0.0357 0.9994 -0.0000
vn -0.0347 0.9994 -0.0000
vn -0.0364 0.9993 -0.0000
vt 1.550606 0.153833
vt 2.197407 0.008302
vt 2.197407 0.153833
vt -2.192756 0.073107
vt 0.135729 0.008427
vt -2.192756 0.008427
vt -2.192756 0.073107
vt 3.240375 0.008426
vt 3.240375 0.267147
vt 0.135729 0.153957
vt 3.240375 0.008427
vt 2.197407 0.072982
vt -1.295319 0.008302
vt -1.295319 0.072982
vt -1.295319 0.267023
vt 1.550606 0.008302
vt 1.550606 0.267023
vt 0.035714 0.886409
vt 0.464286 0.362599
vt 1.035714 0.886409
vt 1.035714 0.362599
vt 0.035714 0.243552
vt 0.464286 0.243552
vt -2.192756 0.008426
vt 2.977967 2.176928
vt 0.248168 -0.467564
vt -1.941358 -1.036273
vt -1.941358 2.176928
vt 0.248168 -1.036273
vt 2.977967 -0.467564
s 1
usemtl BLAK1
f 11/18/11 8/19/10 9/20/7
f 9/20/7 8/19/10 10/21/9
f 8/19/10 7/22/5 12/23/2
f 11/18/11 7/22/5 8/19/10
usemtl ROOFSD01
f 2/1/1 12/2/2 6/3/3
f 1/4/4 12/5/2 7/6/5
f 5/7/6 9/8/7 3/9/8
f 2/10/1 10/11/9 8/5/10
f 1/12/4 11/13/11 5/14/6
f 3/15/8 10/16/9 4/17/12
f 2/1/1 8/16/10 12/2/2
f 1/4/4 6/10/3 12/5/2
f 5/7/6 11/24/11 9/8/7
f 2/10/1 4/9/12 10/11/9
f 1/12/4 7/2/5 11/13/11
f 3/15/8 9/13/7 10/16/9
usemtl ROOFTPP
f 15/25/13 14/26/14 13/27/15
f 17/28/16 15/25/13 13/27/15
f 14/26/14 18/29/17 13/27/15
f 15/25/13 16/30/18 14/26/14
