# Blender 4.0.2
# www.blender.org
mtllib roof9.mtl
o base9
v 312.000000 47.000000 -8.000003
v 312.000000 46.999996 408.000000
v 440.000000 7.000000 408.000000
v 184.000000 23.000000 -8.000001
v 184.000000 23.000000 408.000000
v -8.000000 7.000000 408.000000
v 440.000000 7.000000 -8.000001
v -8.000000 7.000000 -8.000001
v 440.000000 -0.000000 -8.000000
v 440.000000 0.000000 408.000000
v -8.000000 -0.000000 -8.000000
v -8.000000 0.000000 408.000000
vn 0.2596 0.3484 -0.9007
vn 0.8645 -0.1158 -0.4891
vn 0.3108 0.5628 -0.7659
vn -0.2335 0.0246 0.9721
vn 0.7224 -0.0654 0.6884
vn 0.0174 0.4706 0.8822
vn 0.0580 0.4813 -0.8746
vn -0.1157 0.9059 0.4074
vn -0.2974 -0.8849 0.3584
vn 0.5457 0.0928 0.8328
vn 0.6376 -0.7639 -0.1000
vn 0.1701 0.0597 -0.9836
vt 0.199980 0.187783
vt 2.219184 0.061582
vt -1.314422 0.061582
vt 0.199980 0.187782
vt 2.219184 0.061582
vt 1.209582 0.377083
vt 1.209582 0.377083
vt -1.314422 0.061582
vt -1.314422 0.006370
vt 2.219184 0.006370
vt 2.219184 0.006370
vt -1.314422 0.006370
vt -1.081083 0.006678
vt -1.081083 0.061890
vt 2.200123 0.061891
vt 2.200123 0.006678
vt -0.055556 0.964286
vt 0.944444 0.035714
vt 0.944444 0.964286
vt -0.055556 0.035714
s 1
usemtl ROOFSD01
f 4/1/1 7/2/2 8/3/3
f 5/4/4 3/5/5 2/6/6
f 4/1/1 1/7/7 7/2/2
f 5/4/4 6/8/8 3/5/5
f 3/5/5 6/8/8 12/9/9 10/10/10
f 8/3/3 7/2/2 9/11/11 11/12/12
f 12/13/9 6/14/8 8/15/3 11/16/12
f 3/14/5 10/13/10 9/16/11 7/15/2
usemtl BLAK1
f 12/17/9 9/18/11 10/19/10
f 12/17/9 11/20/12 9/18/11
o top9
v 450.000000 4.059138 -18.000000
v 312.000000 47.000000 -18.000004
v 312.000000 46.999996 418.000000
v 450.000000 4.059138 418.000000
v 184.000000 22.999998 -18.000002
v 184.000000 23.000002 418.000000
v -18.000000 6.318309 -18.000000
v -18.000000 6.318309 418.000000
vn 0.1894 0.6784 -0.7098
vn 0.0213 0.8483 -0.5291
vn 0.0597 0.8609 0.5053
vn 0.2596 0.9551 0.1429
vn -0.4243 0.8553 -0.2972
vn 0.0939 0.9946 0.0445
vn -0.3010 0.7701 0.5624
vn -0.7627 0.5874 0.2708
vt 2.523603 -1.427704
vt 1.303313 -1.427704
vt 1.303313 2.427704
vt 2.523603 2.427704
vt 0.171450 -1.427704
vt 0.171450 2.427704
vt -1.614771 -1.427704
vt -1.614771 2.427704
s 1
usemtl ROOFTPP
f 13/21/13 14/22/14 15/23/15
f 16/24/16 13/21/13 15/23/15
f 15/23/15 14/22/14 17/25/17
f 18/26/18 15/23/15 17/25/17
f 18/26/18 17/25/17 19/27/19
f 20/28/20 18/26/18 19/27/19
