# Blender 4.0.2
# www.blender.org
mtllib roof6.mtl
o base6
v 588.000000 23.000000 92.000000
v -4.000000 23.000000 92.000000
v 588.000000 7.000000 188.000000
v 588.000000 7.000000 -4.000000
v 588.000000 -0.000000 188.000000
v -4.000000 7.000000 188.000000
v -4.000000 7.000000 -4.000000
v -4.000000 0.000000 188.000000
v 588.000000 -0.000000 -4.000000
v -4.000000 -0.000000 -4.000000
v 593.000000 23.000000 92.000000
v -9.000000 23.000000 92.000000
v -9.000000 6.200000 193.000000
v 593.000000 6.200000 193.000000
v 593.000000 6.200000 -9.000000
v -9.000000 6.200000 -9.000000
vn 0.7415 -0.0000 -0.6710
vn 1.0000 -0.0000 -0.0000
vn 0.7415 -0.0000 0.6710
vn -1.0000 -0.0000 -0.0000
vn -0.7415 -0.0000 -0.6710
vn -0.7415 -0.0000 0.6710
vn 0.5774 -0.5774 -0.5774
vn -0.5774 -0.5773 0.5774
vn 0.5774 -0.5774 0.5774
vn -0.5774 -0.5774 -0.5774
vn -0.0000 1.0000 -0.0000
vn -0.0000 0.9864 0.1641
vn -0.0000 0.9864 -0.1641
vt 1.271490 0.060975
vt 0.538596 0.183124
vt -0.194299 0.060974
vt 1.271490 0.007534
vt -0.194299 0.007534
vt 2.759758 0.061039
vt -1.759758 0.007599
vt 2.759758 0.007599
vt 2.759758 0.007599
vt -1.759758 0.061040
vt 2.759758 0.061040
vt 1.000000 0.662162
vt 0.000000 0.337838
vt 1.000000 0.337838
vt 0.000000 0.662162
vt 0.500000 -2.473095
vt 0.500000 3.473095
vt 1.497617 3.473095
vt 1.497617 -2.473095
vt -0.497617 -2.473095
vt -0.497617 3.473095
vt -1.759758 0.061039
vt -1.759758 0.007599
s 1
usemtl ROOFSD01
f 4/1/1 1/2/2 3/3/3
f 2/2/4 7/1/5 6/3/6
f 3/3/3 9/4/7 4/1/1
f 7/1/5 8/5/8 6/3/6
f 3/6/3 8/7/8 5/8/9
f 9/9/7 7/10/5 4/11/1
f 3/3/3 5/5/9 9/4/7
f 7/1/5 10/4/10 8/5/8
f 3/6/3 6/22/6 8/7/8
f 9/9/7 10/23/10 7/10/5
usemtl BLAK1
f 5/12/9 10/13/10 9/14/7
f 5/12/9 8/15/8 10/13/10
usemtl ROOFTPP
f 11/16/11 12/17/11 13/18/12
f 14/19/12 11/16/11 13/18/12
f 15/20/13 16/21/13 12/17/11
f 11/16/11 15/20/13 12/17/11
