# Blender 4.0.2
# www.blender.org
mtllib roof10.mtl
o base10
v 456.000000 0.000000 632.000000
v 200.000000 0.000000 632.000000
v -8.000000 0.000000 584.000000
v 568.000000 0.000000 344.000000
v 328.000000 25.000000 584.000000
v 456.000000 7.000000 344.000000
v 456.000000 7.000000 632.000000
v 280.000000 47.000000 344.000000
v -8.000000 7.000000 -8.000000
v 328.000000 25.000000 632.000000
v 200.000000 7.000000 632.000000
v 568.000000 7.000000 344.000000
v 568.000000 7.000000 -8.000000
v 280.000000 47.000000 -8.000003
v 200.000000 7.000000 584.000000
v 224.000000 39.000000 584.000000
v -8.000000 7.000000 584.000000
v 456.000000 0.000000 344.000000
v -8.000000 -0.000000 -8.000000
v 568.000000 -0.000000 -8.000000
v 200.000000 0.000000 584.000000
v 466.000000 5.891207 344.000000
v 190.000000 5.745890 584.000000
v 466.000000 5.891207 642.000000
v 224.000000 39.000004 344.000000
v 224.000000 39.000000 594.000000
v -18.000000 5.942241 -18.000000
v 328.000000 25.000000 642.000000
v 190.000000 5.745890 642.000000
v -18.000000 5.942241 594.000000
v 578.000000 5.705815 354.000000
v 578.000000 5.705815 -18.000000
v 280.000000 47.000000 -18.000004
v 328.000000 25.000002 594.000000
v 280.000000 47.000000 354.000000
v 224.000000 39.000004 354.000000
vn 0.3015 -0.9045 0.3015
vn 0.5774 -0.5774 -0.5774
vn 0.5774 -0.5774 0.5774
vn -0.3015 -0.9045 0.3015
vn -0.5774 -0.5774 -0.5773
vn -0.5774 -0.5774 0.5774
vn -0.0000 -0.0000 1.0000
vn -0.3249 -0.0000 0.9458
vn 0.0807 0.9961 0.0344
vn 0.3247 -0.0000 0.9458
vn 0.6768 -0.0000 0.7362
vn -0.6764 -0.0000 0.7365
vn 0.6764 -0.0000 0.7365
vn -0.6768 -0.0000 -0.7362
vn -0.0000 -0.0000 -1.0000
vn 0.6768 -0.0000 -0.7362
vn -0.0840 0.9958 0.0358
vn -0.6770 -0.0000 0.7360
vn 0.1357 0.9907 -0.0004
vn -0.0005 1.0000 -0.0000
vn 0.1372 0.9905 -0.0000
vn -0.0005 1.0000 -0.0005
vn -0.1382 0.9904 -0.0000
vn -0.1361 0.9907 0.0005
vn -0.1353 0.9908 -0.0000
vn 0.1373 0.9905 -0.0000
vn 0.0001 1.0000 0.0004
vn -0.0021 1.0000 -0.0000
vn -0.1414 0.9899 -0.0000
vn 0.1334 0.9911 -0.0000
vt 0.757118 0.430208
vt 0.932118 -0.119792
vt 0.932118 0.430208
vt 0.357118 0.805208
vt 0.032118 -0.119792
vt 0.757118 0.880208
vt 0.032118 0.805208
vt 0.357118 0.880208
vt -0.022633 0.304468
vt -0.204676 0.061743
vt 0.766223 0.198276
vt 0.402136 0.365149
vt 1.737122 0.061744
vt 2.586658 0.061744
vt 1.737122 0.061743
vt -1.782387 0.061744
vt 0.402136 0.365150
vt 2.586658 0.061744
vt -1.782387 0.061743
vt -0.204676 0.008647
vt 2.586658 0.008647
vt -1.782387 0.008648
vt 1.737122 0.008647
vt -1.574879 0.061634
vt 2.915528 0.008538
vt -1.574879 0.008538
vt -1.938966 0.008538
vt 0.245556 0.061634
vt -1.938966 0.061634
vt 0.245556 0.008538
vt 2.915528 0.061635
vt 1.960024 0.613475
vt 0.872016 2.505663
vt 0.872016 2.962942
vt 1.960024 2.962942
vt 0.052068 0.613475
vt 0.052068 2.584504
vt -0.215992 2.505663
vt -0.215992 2.962942
vt -1.855888 -2.240575
vt -1.855888 2.584504
vt 2.843045 0.692316
vt 2.843045 -2.240575
vt 0.493579 -2.240575
vt 0.493579 0.692316
vt 0.052068 0.692316
vt 0.872016 2.584504
vt -1.782387 0.008647
vt 1.737122 0.008647
vt 2.586658 0.008648
s 1
usemtl BLAK1
f 18/1/1 20/2/2 4/3/3
f 21/4/4 19/5/5 18/1/1
f 1/6/3 21/4/4 18/1/1
f 18/1/1 19/5/5 20/2/2
f 21/4/4 3/7/6 19/5/5
f 1/6/3 2/8/6 21/4/4
usemtl ROOFSD01
f 16/9/7 15/10/8 5/11/9
f 8/12/7 6/13/10 12/14/11
f 10/11/7 11/10/12 7/15/13
f 9/16/14 14/17/15 13/18/16
f 8/12/7 25/9/17 6/13/10
f 16/9/7 17/19/18 15/10/8
f 17/19/18 21/20/4 15/10/8
f 6/13/10 4/21/3 12/14/11
f 13/18/16 19/22/5 9/16/14
f 11/10/12 1/23/3 7/15/13
f 17/24/18 19/25/5 3/26/6
f 1/27/3 6/28/10 7/29/13
f 4/30/3 13/31/16 12/28/11
f 11/29/12 21/26/4 2/27/6
f 17/19/18 3/48/6 21/20/4
f 6/13/10 18/49/1 4/21/3
f 13/18/16 20/50/2 19/22/5
f 11/10/12 2/20/6 1/23/3
f 17/24/18 9/31/14 19/25/5
f 1/27/3 18/30/1 6/28/10
f 4/30/3 20/25/2 13/31/16
f 11/29/12 15/24/8 21/26/4
usemtl ROOFTPP
f 22/32/19 5/33/9 28/34/20
f 24/35/21 22/32/19 28/34/20
f 22/32/19 25/36/17 26/37/22
f 5/33/9 23/38/23 29/39/23
f 28/34/20 5/33/9 29/39/23
f 25/36/17 27/40/24 30/41/25
f 26/37/22 25/36/17 30/41/25
f 31/42/26 32/43/26 33/44/27
f 35/45/28 31/42/26 33/44/27
f 33/44/27 25/36/17 35/45/28
f 22/32/19 26/37/22 5/33/9
f 33/44/27 27/40/24 25/36/17
f 35/45/28 25/36/17 36/46/29
f 5/33/9 26/37/22 34/47/30
