# Blender 4.0.2
# www.blender.org
mtllib roof11.mtl
o PRLD07B.001
v 178.000000 36.000000 112.000000
v 378.000000 6.167609 378.000000
v 378.000000 6.167609 -18.000000
v -18.000000 5.771859 112.000000
v -162.000000 5.797309 102.000000
v 108.000000 46.999996 378.000000
v 178.000000 36.000000 -18.000002
v -162.000000 5.797309 378.000000
v -18.000000 5.771860 -18.000000
v 178.000000 36.000000 102.000000
v 108.000000 46.999996 102.000000
vn 0.5889 0.7744 0.2312
vn 0.3636 0.9246 0.1138
vn 0.3522 0.8971 -0.2667
vn -0.1173 0.9711 0.2079
vn 0.3808 0.7313 -0.5659
vn 0.0027 0.9057 -0.4239
vn -0.1118 0.9650 0.2373
vn -0.0913 0.9148 0.3934
vn -0.4452 0.8513 0.2778
vn 0.2543 0.9664 -0.0374
vn 0.2584 0.9287 -0.2660
vt 2.882163 2.343271
vt 1.077360 -0.057117
vt 0.445679 -0.147357
vt 0.445679 2.343271
vt 2.882163 -1.230240
vt 1.077360 -1.230240
vt -1.990805 -0.147357
vt -1.990805 2.343271
vt -0.691347 -1.230240
vt -0.691347 -0.057117
vt 1.077360 -0.147357
s 1
usemtl ROOFTPP
f 2/1/1 1/2/2 11/3/3
f 6/4/4 2/1/1 11/3/3
f 3/5/5 7/6/6 1/2/2
f 2/1/1 3/5/5 1/2/2
f 11/3/3 5/7/7 8/8/8
f 6/4/4 11/3/3 8/8/8
f 1/2/2 7/6/6 9/9/9
f 4/10/10 1/2/2 9/9/9
f 11/3/3 1/2/2 10/11/11
o PRLD07B.002
v 178.000000 36.000000 112.000000
v 368.000000 7.000000 368.000000
v 368.000000 7.000000 -8.000000
v 108.000000 46.999996 112.000000
v -8.000000 7.000000 112.000000
v -152.000000 7.000000 112.000000
v 108.000000 46.999996 368.000000
v 178.000000 36.000000 -8.000002
v -152.000000 7.000000 368.000000
v -8.000000 7.000000 -8.000000
v 368.000000 0.000000 368.000000
v 368.000000 -0.000000 -8.000000
v -8.000000 -0.000000 112.000000
v -152.000000 -0.000000 112.000000
v -152.000000 0.000000 368.000000
v -8.000000 -0.000000 -8.000000
vn 0.3760 -0.8303 -0.4113
vn -0.7820 -0.1602 -0.6023
vn -0.7960 -0.5781 0.1794
vn 0.4229 -0.8256 0.3736
vn -0.0491 -0.9192 0.3908
vn -0.9994 -0.0207 0.0265
vn -0.3761 0.3904 -0.8403
vn -0.0058 0.3999 -0.9165
vn 0.5262 0.7460 -0.4081
vn -0.0197 0.3860 -0.9223
vn -0.4543 -0.6152 -0.6444
vn -0.5293 -0.0287 -0.8480
vn 0.1193 0.1899 0.9745
vn -0.6512 -0.4893 0.5802
vn 0.4553 0.5560 0.6953
vn 0.2537 -0.1368 -0.9575
vt 0.994631 0.183333
vt 0.271554 0.414103
vt 0.271554 0.183333
vt 0.994631 0.906410
vt -0.005369 0.906410
vt -0.005369 0.414103
vt -0.336293 0.061879
vt 1.097577 0.285440
vt 2.562283 0.061879
vt 0.557949 0.370238
vt -1.446385 0.061879
vt 0.557949 0.370238
vt -1.446385 0.061879
vt 2.562283 0.061879
vt 1.097577 0.285439
vt -0.336293 0.007916
vt 2.562283 0.007916
vt -1.446385 0.007916
vt 0.793329 0.007986
vt -1.180168 0.061948
vt 0.793329 0.061949
vt 1.718406 0.061949
vt -1.180168 0.007986
vt 1.718406 0.007986
vt 2.562283 0.007916
vt -1.446385 0.007916
s 1
usemtl BLAK1
f 23/12/12 24/13/13 27/14/14
f 22/15/15 26/16/16 24/13/13
f 24/13/13 26/16/16 25/17/17
f 23/12/12 22/15/15 24/13/13
usemtl ROOFSD01
f 21/18/18 19/19/19 14/20/20
f 15/21/21 16/18/22 17/22/23
f 18/23/24 20/24/25 13/25/26
f 15/21/21 12/26/27 16/18/22
f 14/20/20 27/27/14 21/18/18
f 20/24/25 22/28/15 13/25/26
f 16/18/22 25/29/17 17/22/23
f 25/30/17 20/31/25 17/32/23
f 14/33/20 22/34/15 23/35/12
f 27/35/14 16/32/22 21/33/18
f 14/20/20 23/36/12 27/27/14
f 20/24/25 26/37/16 22/28/15
f 16/18/22 24/27/13 25/29/17
f 25/30/17 26/34/16 20/31/25
f 14/33/20 13/31/26 22/34/15
f 27/35/14 24/30/13 16/32/22
