# Blender 4.0.2
# www.blender.org
mtllib roof7.mtl
o base7
v 128.000000 95.000000 440.000000
v 32.000000 95.000000 440.000000
v 32.000000 37.000004 440.000000
v 232.000000 63.999996 376.000000
v 232.000000 123.000000 304.000000
v 232.000000 95.000000 376.000000
v 232.000000 95.000000 232.000000
v 128.000000 63.999996 376.000000
v 128.000000 95.000000 376.000000
v 32.000000 94.999992 15.999992
v 32.000000 30.000002 15.999997
v 128.000000 95.000000 232.000000
v 128.000000 94.999992 15.999992
v 120.000000 95.000000 7.999994
v 40.000000 95.000000 7.999994
v 80.000000 52.000000 8.000001
v 368.000000 40.000000 424.000000
v 368.000000 7.000000 328.000000
v 480.000000 7.000000 520.000000
v 0.000000 7.000000 -8.000000
v 480.000000 40.000000 424.000000
v -48.000000 7.000000 520.000000
v 368.000000 79.000000 232.000000
v 480.000000 7.000000 328.000000
v -48.000000 7.000000 40.000000
v 176.000000 7.000000 8.000000
v 368.000000 7.000000 8.000000
v 160.000000 7.000000 -8.000000
v 80.000000 52.000000 -8.000000
v 368.000000 -0.000000 328.000000
v 0.000000 -0.000000 -8.000000
v -48.000000 0.000000 520.000000
v 160.000000 -0.000000 -8.000000
v 480.000000 0.000000 520.000000
v 480.000000 -0.000000 328.000000
v -48.000000 0.000000 40.000000
v 176.000000 -0.000000 8.000000
v 368.000000 -0.000000 8.000000
v 368.000000 3.600000 318.000000
v 490.000000 3.600000 530.000000
v 128.000000 37.000004 440.000000
v 138.000000 89.300003 450.000000
v 22.000000 89.300003 450.000000
v 242.000000 123.000000 304.000000
v 242.000000 92.000000 386.000000
v 232.000000 79.000000 232.000000
v 242.000000 92.000000 222.000000
v 138.000000 91.300003 386.000000
v 22.000000 91.299995 15.999993
v 128.000000 79.000000 232.000000
v 138.000000 91.300003 222.000000
v 128.000000 36.000000 15.999997
v 138.000000 91.299995 15.999993
v 120.000000 36.000000 7.999998
v 120.000000 95.000000 -2.000006
v 40.000000 31.000000 7.999998
v 40.000000 95.000000 -2.000006
v 0.000000 7.000000 -18.000000
v 490.000000 40.000000 424.000000
v -58.000000 3.600000 530.000000
v 378.000000 79.000000 232.000000
v 490.000000 3.600000 318.000000
v -58.000000 3.600000 40.000000
v 80.000000 123.000000 400.000000
v 80.000000 123.000000 304.000000
v 80.000000 123.000000 59.999992
v 176.000000 5.000000 -2.000000
v 378.000000 4.000000 -2.000000
v 160.000000 7.000000 -18.000000
v 80.000000 52.000000 -18.000000
v 128.000000 36.404465 85.990906
v 378.000000 40.000000 424.000000
vn 0.7071 -0.0000 0.7071
vn -0.4323 0.7917 0.4316
vn 0.2159 0.7747 0.5944
vn 0.2893 0.7916 0.5382
vn 1.0000 -0.0000 -0.0000
vn 0.7774 -0.0000 0.6289
vn 0.3136 0.8450 -0.4331
vn 0.6013 0.4417 0.6658
vn -0.7071 -0.0000 0.7071
vn -0.6987 0.6419 -0.3159
vn 0.7071 -0.0000 -0.7071
vn 0.5938 0.4828 -0.6437
vn 0.9239 -0.0000 -0.3827
vn 0.7234 0.6666 -0.1799
vn 0.7688 0.5512 -0.3242
vn 0.3827 -0.0000 -0.9239
vn 0.5168 0.6220 -0.5882
vn -0.3827 -0.0000 -0.9239
vn -0.0298 0.5794 -0.8145
vn -0.5538 0.6582 -0.5101
vn -0.9239 -0.0000 -0.3827
vn 0.7774 -0.0000 -0.6289
vn 0.7710 -0.0000 -0.6368
vn 0.7710 -0.0000 0.6368
vn 0.9413 -0.0000 -0.3375
vn 0.7677 -0.0000 -0.6408
vn 0.0873 0.9829 0.1619
vn 0.3285 -0.0000 -0.9445
vn -0.3285 -0.0000 -0.9445
vn -0.0000 -0.0000 -1.0000
vn 0.2971 -0.6303 -0.7173
vn 0.3015 -0.9045 -0.3015
vn 0.5774 -0.5774 0.5774
vn 0.5774 -0.5774 -0.5774
vn 0.2275 -0.8042 -0.5491
vn -0.7173 -0.6303 -0.2971
vn -0.5774 -0.5774 0.5774
vn -0.2971 -0.6303 -0.7173
vn 0.5773 -0.5774 -0.5774
vn -0.0000 0.9458 0.3248
vn -0.0000 1.0000 -0.0000
vn -0.1777 0.9677 0.1791
vn 0.0254 0.9967 -0.0766
vn -0.0000 0.9458 -0.3248
vn -0.3066 0.9485 -0.0792
vn 0.2762 0.9144 0.2959
vn -0.0089 0.9855 0.1693
vn -0.2879 0.9157 0.2803
vn 0.2677 0.9454 0.1861
vn -0.1603 0.9871 -0.0000
vn -0.0016 0.9948 -0.1014
vn -0.4160 0.9036 -0.1026
vn -0.0020 0.9341 0.3571
vn -0.0020 0.9341 -0.3571
vn 0.2657 0.9474 -0.1784
vn 0.4149 0.9039 -0.1043
vn 0.0047 0.9523 -0.3052
vn 0.2369 0.9341 -0.2671
vn -0.2162 0.9346 -0.2826
vn 0.2162 0.9346 -0.2826
vn -0.3781 0.8960 -0.2328
vn -0.0337 0.9981 -0.0514
vn 0.4312 0.8545 -0.2897
vn -0.0000 0.9800 0.1991
vt 0.479006 0.768764
vt -1.037821 -0.147653
vt 0.479006 -0.147653
vt -1.828037 0.275495
vt -0.690416 1.207712
vt -1.828037 0.765304
vt 0.447205 0.512499
vt -1.828037 0.276725
vt -2.839255 0.766534
vt -2.839255 -0.149882
vt 2.122236 0.768764
vt 0.479006 0.278955
vt 2.122236 0.278955
vt -2.839255 0.770827
vt 3.860066 -0.256191
vt -2.839255 -0.145590
vt 0.479006 0.768764
vt 2.122236 0.515959
vt 0.479006 0.515959
vt 3.860066 0.768625
vt 2.754190 -0.157201
vt 3.860066 -0.163591
vt 0.352604 0.768764
vt 0.479006 -0.163453
vt 0.352604 -0.163453
vt -0.911419 0.768764
vt -0.279407 0.089352
vt -0.911419 -0.242454
vt -1.037821 0.768764
vt -0.911419 -0.242454
vt -1.037821 -0.258254
vt -1.037821 0.768764
vt 0.447205 0.765304
vt -1.828037 0.766534
vt 3.860066 0.770828
vt 3.860066 -0.256190
vt 2.122236 0.768764
vt 0.447205 0.768625
vt 0.447205 0.515821
vt -0.911419 -0.242454
vt 0.263424 0.062067
vt -0.468761 0.313756
vt -1.200946 0.062067
vt 0.995608 0.611206
vt 2.704040 0.062067
vt -0.140804 0.062087
vt -1.361112 0.062087
vt -0.750958 0.405299
vt -0.018773 0.062087
vt -0.140804 0.008699
vt 2.299813 0.062087
vt 1.445597 0.008699
vt 1.445597 0.062087
vt -1.727204 0.062087
vt 2.299813 0.008698
vt 2.299813 0.062087
vt 0.263424 0.008679
vt 1.445597 0.062087
vt -0.018773 0.008699
vt -1.727204 0.008699
vt -1.727204 0.062087
vt 2.459978 0.062067
vt -1.200946 0.008678
vt -1.361112 0.008699
vt 2.704040 0.008679
vt 1.095293 1.033784
vt 0.883172 0.670148
vt 1.095293 0.670148
vt 0.095293 0.124693
vt 0.519536 0.064087
vt 0.883172 0.064087
vt 0.186202 0.033784
vt 0.489233 0.033784
vt 0.095293 1.033784
vt 3.052160 -1.912209
vt 2.087692 -1.912209
vt 2.087693 -0.802163
vt 2.233273 1.381537
vt 3.052160 3.073903
vt 1.650953 0.435267
vt 1.650953 1.381537
vt 0.340733 -0.893150
vt 0.340733 0.435267
vt 1.123226 -1.912209
vt 1.123226 -0.802163
vt -1.042276 2.182227
vt -1.063051 -1.675642
vt -1.861163 -1.457272
vt -1.861163 3.001114
vt -0.077809 2.273214
vt -0.605536 1.818277
vt -1.133263 2.273214
vt -0.077809 1.690894
vt -0.605536 0.944797
vt -0.605536 -1.275297
vt -1.133263 -1.675642
vt 0.877560 0.207799
vt 0.131463 0.207799
vt 0.131463 1.681796
vt 0.877560 1.154068
vt -0.614635 0.207799
vt -0.614635 1.154068
vt -0.077809 0.198700
vt -0.987766 1.381537
vt 0.340734 1.381537
vt -0.077809 -1.675642
vt -1.788373 -0.893150
vt -1.788373 0.944797
vt -0.969486 -1.839419
vt -0.241586 -1.839419
vt -1.050263 -1.709326
vt -0.999228 -1.766349
vt -1.329388 -1.970219
vt -0.995508 -1.762871
vt -0.605536 -1.984999
vt -1.322007 -1.983540
vt -0.241586 -1.748432
vt -0.605536 -1.748432
vt -1.324274 -1.975963
vt -1.063480 -1.694218
vt 0.267944 -1.839419
vt 0.122364 -1.984999
vt 2.233273 2.255016
vt -0.168796 -1.675642
vt -0.168796 -1.038812
vt 2.087693 -0.893150
vt 2.299813 0.008699
vt -1.727204 0.008698
vt 1.445597 0.008699
vt 2.459978 0.008679
s 1
usemtl HMEWD28
f 1/1/1 3/2/2 41/3/3
f 4/4/4 5/5/5 6/6/6
f 46/7/7 5/5/5 4/4/4
f 8/8/8 1/9/1 41/10/3
f 6/11/6 8/12/8 4/13/4
f 2/14/9 11/15/10 3/16/2
f 12/17/11 46/18/7 50/19/12
f 13/20/13 71/21/14 52/22/15
f 14/23/16 52/24/15 54/25/17
f 15/26/18 16/27/19 56/28/20
f 10/29/21 56/30/20 11/31/10
f 1/1/1 2/32/9 3/2/2
f 46/7/7 7/33/22 5/5/5
f 8/8/8 9/34/1 1/9/1
f 6/11/6 9/1/1 8/12/8
f 2/14/9 10/35/21 11/36/10
f 12/17/11 7/37/22 46/18/7
f 13/20/13 12/38/11 50/39/12
f 14/23/16 13/17/13 52/24/15
f 15/26/18 14/23/16 54/25/17
f 10/29/21 15/26/18 56/40/20
f 13/20/13 50/39/12 71/21/14
f 15/26/18 54/25/17 16/27/19
usemtl ROOFSD01
f 24/41/23 21/42/5 19/43/24
f 23/44/5 18/41/25 27/45/26
f 23/44/5 17/42/27 18/41/25
f 28/46/28 20/47/29 29/48/30
f 26/49/16 33/50/31 28/46/28
f 24/51/23 30/52/32 18/53/25
f 22/54/9 34/55/33 19/56/24
f 19/43/24 35/57/34 24/41/23
f 27/58/26 37/59/35 26/49/16
f 20/47/29 36/60/36 25/61/21
f 25/62/21 32/63/37 22/43/9
f 28/46/28 31/64/38 20/47/29
f 18/41/25 38/65/39 27/45/26
f 26/49/16 37/59/35 33/50/31
f 24/51/23 35/127/34 30/52/32
f 22/54/9 32/128/37 34/55/33
f 19/43/24 34/63/33 35/57/34
f 27/58/26 38/129/39 37/59/35
f 20/47/29 31/64/38 36/60/36
f 25/62/21 36/130/36 32/63/37
f 28/46/28 33/50/31 31/64/38
f 18/41/25 30/57/32 38/65/39
usemtl BLAK1
f 34/66/33 30/67/32 35/68/34
f 30/67/32 36/69/36 37/70/35
f 30/67/32 37/70/35 38/71/39
f 37/70/35 31/72/38 33/73/31
f 34/66/33 32/74/37 30/67/32
f 30/67/32 32/74/37 36/69/36
f 37/70/35 36/69/36 31/72/38
usemtl ROOFTPP
f 40/75/40 59/76/41 17/77/27
f 41/78/3 60/79/42 17/77/27
f 40/75/40 17/77/27 60/79/42
f 4/80/4 8/81/8 41/78/3
f 61/82/43 46/83/7 4/80/4
f 4/80/4 41/78/3 17/77/27
f 59/76/41 62/84/44 39/85/44
f 17/77/27 59/76/41 39/85/44
f 3/86/2 11/87/10 63/88/45
f 60/89/42 3/86/2 63/88/45
f 42/90/46 64/91/47 43/92/48
f 42/90/46 48/93/49 64/91/47
f 65/94/50 66/95/51 43/92/48
f 66/95/51 49/96/52 43/92/48
f 64/91/47 65/94/50 43/92/48
f 45/97/53 44/98/41 65/99/50
f 48/100/49 45/97/53 65/99/50
f 64/91/47 48/93/49 65/94/50
f 47/101/54 51/102/55 65/99/50
f 44/98/41 47/101/54 65/99/50
f 65/94/50 51/103/55 66/95/51
f 46/83/7 71/104/14 50/105/12
f 51/103/55 53/106/56 66/95/51
f 61/82/43 68/107/57 67/108/58
f 66/95/51 57/109/59 49/96/52
f 66/95/51 55/110/60 57/109/59
f 53/106/56 55/110/60 66/95/51
f 11/111/10 56/112/20 58/113/61
f 56/114/20 70/115/62 58/116/61
f 54/117/17 70/115/62 16/118/19
f 58/119/61 63/88/45 11/120/10
f 67/121/58 69/122/63 54/117/17
f 41/78/3 3/123/2 60/79/42
f 17/77/27 61/82/43 4/80/4
f 46/83/7 61/82/43 67/108/58
f 67/121/58 54/117/17 52/124/15
f 67/121/58 52/124/15 71/125/14
f 61/82/43 17/77/27 72/126/64
f 46/83/7 67/108/58 71/104/14
f 56/114/20 16/118/19 70/115/62
f 54/117/17 69/122/63 70/115/62
