# Blender 4.0.2
# www.blender.org
mtllib roof9.mtl
o base9
v 312.000000 47.000000 -8.000003
v 184.000000 23.000000 -8.000001
v -8.000000 7.000000 432.000000
v 440.000000 7.000000 -8.000001
v -8.000000 7.000000 -8.000001
v 440.000000 -0.000000 -8.000000
v 440.000000 0.000000 432.000000
v -8.000000 -0.000000 -8.000000
v -8.000000 0.000000 432.000000
v 312.000000 47.000000 432.000000
v 440.000000 7.000000 432.000000
v 184.000000 23.000000 432.000000
v 450.000000 4.059138 -18.000000
v 312.000000 47.000000 -18.000004
v 312.000000 47.000000 442.000000
v 450.000000 4.059138 442.000000
v 184.000000 22.999998 -18.000002
v 184.000000 23.000000 442.000000
v -18.000000 6.318309 -18.000000
v -18.000000 6.318309 442.000000
vn -0.0000 -0.0000 -1.0000
vn 0.6424 -0.0000 -0.7663
vn -0.6886 -0.0000 -0.7251
vn -0.5773 -0.5774 -0.5774
vn -0.6886 -0.0000 0.7251
vn -0.5774 -0.5774 0.5774
vn 0.5773 -0.5774 0.5774
vn 0.6424 -0.0000 0.7663
vn 0.5774 -0.5774 -0.5774
vn -0.0000 -0.0000 1.0000
vn 0.2971 0.9548 -0.0000
vn 0.0581 0.9983 -0.0000
vn -0.1335 0.9911 -0.0000
vn -0.0823 0.9966 -0.0000
vt 0.199980 0.187783
vt 2.219184 0.061582
vt -1.314422 0.061582
vt 1.209582 0.377083
vt -1.314422 0.006370
vt -1.270384 0.061890
vt 2.200123 0.006678
vt -1.270384 0.006678
vt -1.270384 0.006678
vt 2.200123 0.061891
vt -0.055556 1.017857
vt 0.944444 0.035714
vt 0.944445 1.017857
vt -0.055556 1.017857
vt -0.055556 0.035714
vt 0.199980 0.187782
vt 2.219184 0.061582
vt 1.209582 0.377083
vt -1.314422 0.061582
vt 2.219184 0.006370
vt 2.523603 -1.427704
vt 1.303313 -1.427704
vt 1.303313 2.639928
vt 2.523603 2.639929
vt 1.303313 2.639928
vt 0.171450 -1.427704
vt 0.171450 2.639928
vt 0.171450 2.639929
vt -1.614771 -1.427704
vt -1.614771 2.639928
vt 2.219184 0.006370
vt -1.314422 0.006370
s 1
usemtl ROOFSD01
f 2/1/1 4/2/2 5/3/3
f 2/1/1 1/4/1 4/2/2
f 4/2/2 8/5/4 5/3/3
f 3/6/5 8/7/4 9/8/6
f 7/9/7 4/10/2 11/6/8
f 12/16/10 11/17/8 10/18/10
f 12/16/10 3/19/5 11/17/8
f 3/19/5 7/20/7 11/17/8
f 4/2/2 6/31/9 8/5/4
f 3/6/5 5/10/3 8/7/4
f 7/9/7 6/7/9 4/10/2
f 3/19/5 9/32/6 7/20/7
usemtl BLAK1
f 9/11/6 6/12/9 7/13/7
f 9/14/6 8/15/4 6/12/9
usemtl ROOFTPP
f 13/21/11 14/22/12 15/23/12
f 16/24/11 13/21/11 15/23/12
f 15/25/12 14/22/12 17/26/13
f 18/27/13 15/23/12 17/26/13
f 18/28/13 17/26/13 19/29/14
f 20/30/14 18/27/13 19/29/14
