# Blender 4.0.2
# www.blender.org
mtllib roof12.mtl
o PRLD07B.012
v -5.000000 7.000000 -11.000000
v -122.000000 30.999998 405.000000
v -122.000000 47.000000 405.000000
v 166.000000 46.999996 118.000000
v 166.000000 6.999998 118.000000
v 395.000000 7.000000 348.000000
v 108.000000 7.000000 635.000000
v -271.000000 7.000000 256.000000
v 145.000000 6.999999 139.000000
v 145.000000 31.000000 139.000000
v 166.000000 -0.000003 118.000000
v 395.000000 0.000000 348.000000
v -271.000000 -0.000000 256.000000
v 145.000000 -0.000001 139.000000
v -5.000000 -0.000000 -11.000000
v 108.000000 0.000000 635.000000
vn 0.7115 0.2989 -0.6360
vn -0.6142 -0.0383 -0.7882
vn -0.1723 -0.0000 -0.9850
vn -0.9995 -0.0276 -0.0174
vn -0.1842 0.3909 0.9018
vn -0.7962 0.5894 0.1369
vn -0.9553 0.1547 -0.2520
vn 0.0216 0.4035 -0.9147
vn -0.2859 0.3283 -0.9003
vn 0.7636 -0.4600 -0.4531
vn 0.1166 -0.4935 -0.8619
vn -0.5824 -0.6274 -0.5169
vn 0.0344 -0.9353 0.3523
vn -0.7972 -0.3873 -0.4631
vn -0.1527 -0.9747 0.1631
vn 0.0779 -0.9334 -0.3503
vt -0.026135 0.061368
vt 1.101836 0.241843
vt 1.101836 0.061368
vt -0.905953 0.241843
vt 0.823603 0.061367
vt -0.905953 0.362160
vt -2.026405 0.061368
vt 1.259752 0.362160
vt 1.259752 0.061368
vt 1.027176 0.061284
vt 1.027176 0.362077
vt -0.702381 0.061284
vt 1.101836 0.008729
vt 1.027176 0.008645
vt 0.823603 0.008729
vt -0.026135 0.008729
vt -0.010558 0.061284
vt 1.997231 0.008646
vt -0.010558 0.008645
vt 2.981789 0.061368
vt -0.008915 0.491554
vt 0.615709 0.315878
vt 0.560154 1.060623
vt 0.991085 0.629692
vt 0.390484 0.090653
vt 0.647241 0.284347
vt 1.259752 0.008729
vt -0.702381 0.008645
vt -2.026405 0.008729
vt 1.997231 0.061284
vt 2.981789 0.008729
s 1
usemtl ROOFSD01
f 1/1/1 10/2/2 9/3/3
f 2/4/4 7/5/5 3/6/6
f 2/4/4 8/7/7 7/5/5
f 4/8/8 5/9/9 10/2/2
f 10/2/2 5/9/9 9/3/3
f 10/2/2 3/6/6 4/8/8
f 5/10/9 4/11/8 6/12/10
f 10/2/2 2/4/4 3/6/6
f 5/9/9 14/13/11 9/3/3
f 6/12/10 11/14/12 5/10/9
f 8/7/7 16/15/13 7/5/5
f 9/3/3 15/16/14 1/1/1
f 8/17/7 15/18/14 13/19/15
f 16/15/13 6/20/10 7/5/5
f 5/9/9 11/27/12 14/13/11
f 6/12/10 12/28/16 11/14/12
f 8/7/7 13/29/15 16/15/13
f 9/3/3 14/13/11 15/16/14
f 8/17/7 1/30/1 15/18/14
f 16/15/13 12/31/16 6/20/10
usemtl BLAK1
f 13/21/15 14/22/11 16/23/13
f 14/22/11 12/24/16 16/23/13
f 13/21/15 15/25/14 14/22/11
f 14/22/11 11/26/12 12/24/16
o top12
v -5.000000 5.737222 -31.000000
v -132.000000 31.000000 415.000000
v -142.000000 48.766308 405.000000
v 166.000000 48.766308 98.000000
v 415.000000 5.696600 348.000000
v 108.000000 5.696599 655.000000
v -291.000000 5.737222 256.000000
v 155.000000 30.999998 129.000000
vn 0.3137 0.9046 0.2888
vn 0.0230 0.9562 -0.2919
vn 0.0609 0.9729 -0.2229
vn -0.3696 0.9280 -0.0465
vn 0.1166 0.9931 -0.0128
vn -0.3541 0.9197 -0.1697
vn -0.0478 0.9821 0.1824
vn -0.0661 0.9480 0.3113
vt 2.576519 2.104806
vt 2.576519 -1.042573
vt 0.018632 -1.047699
vt 0.013506 2.104806
vt 0.121152 -0.832406
vt -1.519176 -0.832406
vt -1.514050 2.104806
vt 0.116026 2.104806
s 1
usemtl ROOFTPP
f 22/32/17 21/33/18 20/34/19
f 19/35/20 22/32/17 20/34/19
f 24/36/21 17/37/22 23/38/23
f 18/39/24 24/36/21 23/38/23
