# Blender 4.0.2
# www.blender.org
mtllib roof8.mtl
o base8
v 272.000000 47.000000 664.000000
v 456.000000 7.000000 440.000000
v 456.000000 47.000000 216.000000
v 456.000000 7.000000 -8.000000
v -8.000000 7.000000 -8.000000
v -8.000000 47.000000 216.000000
v -8.000000 7.000000 440.000000
v 168.000000 0.000000 664.000000
v 456.000000 -0.000000 -8.000000
v -8.000000 -0.000000 -8.000000
v 376.000000 7.000000 440.000000
v 376.000000 -0.000000 440.000000
v 168.000000 7.000000 440.000000
v 376.000000 7.000000 664.000000
v 168.000000 7.000000 664.000000
v 376.000000 0.000000 664.000000
v 456.000000 0.000000 440.000000
v 168.000000 0.000000 440.000000
v -8.000000 0.000000 440.000000
v 386.000000 3.500000 674.000000
v 272.000000 47.000000 674.000000
v 158.000000 3.500000 674.000000
v 466.000000 5.500000 450.000000
v 466.000000 47.000000 216.000000
v 272.000000 47.000000 216.000000
v 386.000000 5.500000 450.000000
v 158.000000 5.500000 450.000000
v 466.000000 5.500000 -18.000000
v -18.000000 5.500000 -18.000000
v -18.000000 47.000000 216.000000
v -18.000000 5.500000 450.000000
vn -0.0000 -0.0000 1.0000
vn -0.6297 -0.0000 0.7769
vn 0.6297 -0.0000 0.7769
vn -1.0000 -0.0000 -0.0000
vn -0.7437 -0.0000 -0.6685
vn -0.7437 -0.0000 0.6685
vn 1.0000 -0.0000 -0.0000
vn 0.7437 -0.0000 0.6685
vn 0.7437 -0.0000 -0.6685
vn 0.5774 -0.5774 -0.5774
vn -0.5774 -0.5774 0.5773
vn 0.5774 -0.5774 0.5774
vn 0.3015 -0.9045 0.3015
vn -0.7071 -0.0000 0.7071
vn -0.3015 -0.9045 0.3015
vn 0.7071 -0.0000 0.7071
vn -0.5774 -0.5774 -0.5774
vn -0.5774 -0.5774 0.5774
vn 0.3565 0.9343 0.0083
vn 0.2000 0.9767 0.0776
vn -0.0000 1.0000 0.0061
vn -0.0000 0.9846 0.1746
vn -0.0000 1.0000 -0.0000
vn -0.0000 0.9997 -0.0252
vn -0.2000 0.9767 0.0776
vn -0.3565 0.9343 0.0083
vn -0.0000 0.9846 -0.1746
vt 0.605586 0.367814
vt -0.192368 0.060908
vt 1.403540 0.060908
vt 1.382265 0.368166
vt 3.100935 0.061261
vt -0.336405 0.061260
vt 3.100935 0.007552
vt -0.336405 0.007552
vt 1.403540 0.007200
vt 2.017350 0.060908
vt 1.403540 0.007200
vt 2.017350 0.007200
vt 2.017350 0.007200
vt -1.542752 0.060909
vt 2.017350 0.060909
vt -1.542752 0.007200
vt -0.192368 0.060908
vt -1.542752 0.060908
vt -2.055075 0.061260
vt -2.055075 0.007551
vt 0.107936 -0.027778
vt 0.369841 0.638889
vt 0.107936 0.638889
vt 0.798413 -0.027778
vt 0.798413 0.638889
vt 0.679365 0.638889
vt 0.369841 0.972222
vt 0.679365 0.972222
vt 2.249804 0.499498
vt 0.796272 0.499498
vt 2.249804 1.239242
vt 2.022689 1.271687
vt 2.022689 -0.246734
vt 0.763827 -0.246734
vt 1.503571 1.271687
vt -0.722150 1.239242
vt 0.796272 1.978986
vt 2.249804 1.978986
vt 2.022689 -1.765156
vt -1.117977 -1.765156
vt -1.117977 -0.246734
vt 0.024083 1.271687
vt -1.117977 1.271687
vt -0.192368 0.007200
vt 1.403540 0.060908
vt -1.542752 0.007200
vt -0.192368 0.007200
s 1
usemtl ROOFSD01
f 1/1/1 15/2/2 14/3/3
f 6/4/4 5/5/5 7/6/6
f 3/4/7 2/6/8 4/5/9
f 2/6/8 9/7/10 4/5/9
f 5/5/5 19/8/11 7/6/6
f 15/2/2 16/9/12 14/3/3
f 2/10/8 12/11/13 17/12/12
f 9/13/10 5/14/5 4/15/9
f 19/16/11 13/17/14 7/18/6
f 18/8/15 15/19/2 13/6/14
f 11/6/16 16/20/12 12/8/13
f 2/6/8 17/8/12 9/7/10
f 5/5/5 10/7/17 19/8/11
f 15/2/2 8/44/18 16/9/12
f 2/10/8 11/45/16 12/11/13
f 9/13/10 10/46/17 5/14/5
f 19/16/11 18/47/15 13/17/14
f 18/8/15 8/20/18 15/19/2
f 11/6/16 14/19/3 16/20/12
usemtl BLAK1
f 10/21/17 18/22/15 19/23/11
f 9/24/10 17/25/12 12/26/13
f 8/27/18 12/26/13 16/28/12
f 12/26/13 18/22/15 9/24/10
f 10/21/17 9/24/10 18/22/15
f 8/27/18 18/22/15 12/26/13
usemtl ROOFTPP
f 20/29/19 26/30/20 21/31/21
f 23/32/22 24/33/23 25/34/24
f 26/35/20 23/32/22 25/34/24
f 21/31/21 26/30/20 25/36/24
f 21/31/21 27/37/25 22/38/26
f 21/31/21 25/36/24 27/37/25
f 28/39/27 29/40/27 30/41/23
f 28/39/27 25/34/24 24/33/23
f 27/42/25 25/34/24 30/41/23
f 31/43/22 27/42/25 30/41/23
f 28/39/27 30/41/23 25/34/24
