# Blender 4.0.2
# www.blender.org
mtllib roof16.mtl
o PRLD07B.006
v -124.000000 31.100000 304.000000
v 8.000000 7.100000 434.000000
v 8.000000 7.100000 -18.000000
v -170.000000 39.099998 8.000001
v -450.000000 4.126605 314.000000
v -440.000000 7.100000 314.000000
v -256.000000 7.100000 304.000000
v -124.000000 31.100000 434.000000
v -170.000000 39.099998 -18.000000
v -256.000000 7.100000 434.000000
v -424.000000 10.100000 223.000000
v -440.000000 7.100000 222.000000
v -142.000000 34.099998 8.000000
v -132.000000 32.099998 37.999996
v -134.000000 32.100002 78.000000
v -153.000000 36.099998 98.000000
v -172.000000 39.100002 128.000000
v -200.000000 44.099998 146.000000
v -239.000000 43.099998 127.000000
v -259.000000 40.099998 153.000000
v -267.000000 38.099998 186.000000
v -282.000000 35.099998 218.000000
v -320.000000 28.100000 218.000000
v -353.000000 22.100000 227.000000
v -382.000000 17.100000 222.000000
v -424.000000 10.100000 229.000000
v -124.000000 31.100000 314.000000
v -216.000000 47.099998 314.000000
v -266.000000 4.126605 304.000000
v -266.000000 4.126604 434.000000
v -450.000000 4.126604 224.000000
v 18.000000 5.241817 434.000000
v 18.000000 5.241817 -18.000000
vn -0.0984 0.9854 -0.1386
vn -0.1978 0.8505 0.4874
vn 0.3227 0.9464 -0.0175
vn 0.1655 0.9239 0.3451
vn 0.0931 0.9956 -0.0052
vn -0.3510 0.7592 0.5480
vn -0.8835 -0.4487 0.1342
vn -0.3778 0.8035 -0.4601
vn -0.5733 0.8190 -0.0253
vn -0.7360 0.4197 0.5312
vn 0.2601 0.7648 -0.5894
vn -0.1594 0.8902 -0.4267
vn 0.4993 0.8664 -0.0094
vn -0.4501 0.8529 -0.2646
vn -0.3592 0.8582 0.3667
vn 0.1096 0.9933 -0.0357
vn -0.2440 0.8851 0.3964
vn -0.3566 0.8486 0.3908
vn -0.5572 0.8304 0.0030
vn -0.5561 0.8246 0.1038
vn -0.6071 0.7909 0.0776
vn -0.6206 0.7791 -0.0882
vn -0.2853 0.8895 0.3569
vn -0.1522 0.8755 0.4587
vn 0.1646 0.9628 0.2142
vn -0.3732 0.8696 0.3234
vn -0.3257 0.9034 -0.2791
vn 0.0700 0.6425 0.7631
vn 0.4145 0.8499 -0.3253
vn 0.1211 -0.1697 0.9780
vn 0.0118 0.9165 -0.3999
vn -0.5277 0.7945 0.3004
vn -0.1204 0.9902 -0.0712
vt 2.675260 2.662677
vt 1.395490 1.402298
vt 1.395489 2.662677
vt 0.949511 -1.719564
vt 1.220977 -1.467488
vt 2.675261 -1.719565
vt 2.675260 2.662678
vt 2.675260 -1.719566
vt 1.395489 1.402298
vt 1.395831 1.402298
vt 0.116061 1.402298
vt 0.116061 2.662677
vt 1.395831 2.662677
vt 1.395831 1.402298
vt 0.116061 2.662678
vt -1.512733 0.616984
vt -1.667856 0.607289
vt -1.667856 1.499250
vt -1.667856 1.499250
vt -1.512732 0.675156
vt -1.512732 0.616984
vt 0.949512 -1.719565
vt 0.949512 -1.467490
vt 1.220978 -1.467489
vt 0.658838 -0.129529
vt 0.280725 -0.313739
vt 0.503715 1.499269
vt 0.086995 -0.061692
vt 0.009433 0.258251
vt 0.503889 1.499240
vt 0.009420 0.258256
vt -0.136009 0.568503
vt 0.503876 1.499245
vt 0.280854 -0.313755
vt 0.086950 -0.061679
vt 0.503844 1.499252
vt -0.136013 0.568507
vt -0.504432 0.568508
vt 0.503872 1.499249
vt -1.105552 0.607285
vt -1.512751 0.675152
vt -1.667875 1.499246
vt -0.824385 0.655765
vt -1.105547 0.607289
vt -1.667869 1.499250
vt -0.504431 0.568520
vt -0.824373 0.655777
vt -1.667858 1.499262
vt -1.667864 1.499250
vt 0.503867 1.499254
vt -0.504437 0.568512
vt 1.298599 -0.788737
vt 1.114390 -0.594832
vt 2.675322 -1.719479
vt 1.317927 -1.176641
vt 1.298537 -0.788832
vt 2.675259 -1.719574
vt 1.220976 -1.467495
vt 1.317928 -1.176639
vt 2.675260 -1.719571
vt 0.658656 -0.129546
vt 1.395494 1.402300
vt 0.930123 -0.304060
vt 1.114330 -0.594918
vt 1.395492 1.402299
vt 2.675262 -1.719565
vt 0.658659 -0.129547
vt 0.503536 1.499251
vt 1.395497 1.402299
vt 1.114347 -0.594921
vt 0.930137 -0.304064
vt 1.395508 1.402296
vt 1.395496 1.402298
vt 0.503536 1.499250
vt 1.395496 1.499250
vt -1.667767 1.499250
vt -1.764719 0.626680
vt -1.764719 1.499250
vt 0.116155 2.662677
vt 0.019203 1.402298
vt 0.019203 2.662678
vt 2.675256 2.662677
vt 2.772208 -1.719565
vt 2.675256 -1.719565
vt -1.667767 1.499250
vt -1.667767 0.607289
vt -1.764719 0.626679
vt 0.116155 1.402298
vt 0.019203 1.402298
vt 2.675256 2.662678
vt 2.772208 2.662677
vt 2.772208 -1.719565
s 1
usemtl ROOFTPP
f 2/1/1 1/2/2 8/3/3
f 9/4/4 13/5/5 3/6/6
f 2/7/1 3/8/6 1/9/2
f 1/10/2 7/11/7 10/12/8
f 8/13/3 1/14/2 10/15/8
f 11/16/9 12/17/10 6/18/11
f 6/19/11 26/20/12 11/21/9
f 9/22/4 4/23/13 13/24/5
f 18/25/14 19/26/15 28/27/16
f 20/28/17 21/29/18 28/30/16
f 21/31/18 22/32/19 28/33/16
f 19/34/15 20/35/17 28/36/16
f 22/37/19 23/38/20 28/39/16
f 25/40/21 26/41/12 6/42/11
f 24/43/22 25/44/21 6/45/11
f 23/46/20 24/47/22 6/48/11
f 6/49/11 28/50/16 23/51/20
f 15/52/23 16/53/24 3/54/6
f 14/55/25 15/56/23 3/57/6
f 13/58/5 14/59/25 3/60/6
f 18/61/14 1/62/2 17/63/26
f 16/64/24 1/65/2 3/66/6
f 18/67/14 28/68/16 1/69/2
f 16/70/24 17/71/26 1/72/2
f 1/73/2 28/74/16 27/75/27
f 6/76/11 31/77/28 5/78/29
f 10/79/8 29/80/30 30/81/31
f 2/82/1 33/83/32 3/84/6
f 6/85/11 12/86/10 31/87/28
f 10/79/8 7/88/7 29/89/30
f 2/90/1 32/91/33 33/92/32
o PRLD07B.007
v 8.000000 0.000000 424.000000
v 8.000000 0.000000 -8.000000
v -440.000000 0.000000 304.000000
v -256.000000 0.000000 304.000000
v -256.000000 0.000000 424.000000
v -440.000000 0.000000 224.000000
v -170.000000 0.000000 -8.000000
v -8.000000 0.000000 8.000000
v -170.000000 0.000000 8.000000
v -154.000000 0.000000 8.000000
v -424.000000 0.000000 226.000000
v -8.000000 0.000000 288.000000
v -424.000000 0.000000 288.000000
v -424.000000 -0.000000 226.000000
v -424.000000 0.000000 224.000000
v -440.000000 0.000000 224.000000
v -124.000000 31.000000 304.000000
v 8.000000 7.000000 424.000000
v 8.000000 7.000000 -8.000000
v -216.000000 47.000000 304.000000
v -440.000000 7.000000 304.000000
v -124.000000 31.000000 424.000000
v -170.000000 39.000000 -8.000000
v -256.000000 7.000000 424.000000
v -440.000000 7.000000 222.000000
v -170.000000 7.000000 -8.000000
v -173.000000 24.000000 -8.000000
v -170.000000 -0.000000 -8.000000
v 8.000000 -0.000000 -8.000000
v -440.000000 0.000000 224.000000
v -440.000000 0.000000 304.000000
v -256.000000 0.000000 424.000000
v 8.000000 0.000000 424.000000
v -256.000000 7.000000 304.000000
v -256.000000 0.000000 304.000000
v -170.000000 39.000000 8.000001
v -170.000000 39.000000 -8.000000
v -424.000000 10.000000 223.000000
v -440.000000 7.000000 222.000000
v -170.000000 7.000000 -8.000000
v -171.000000 36.000000 8.000000
v -8.000000 7.000000 8.000000
v -136.000000 29.000000 37.999996
v -174.000000 14.000001 8.000001
v -173.000000 24.000000 -8.000000
v -154.000000 7.000000 8.000000
v -144.000000 31.000000 8.000001
v -157.000000 35.000000 8.000000
v -142.000000 34.000000 8.000000
v -132.000000 32.000000 37.999996
v -133.000000 29.000000 78.000000
v -134.000000 32.000000 78.000000
v -153.000000 33.000000 98.000000
v -153.000000 36.000000 98.000000
v -173.000000 36.000004 127.000000
v -172.000000 39.000004 128.000000
v -201.000000 41.000000 146.000000
v -200.000000 44.000000 146.000000
v -240.000000 40.000000 127.000000
v -239.000000 43.000000 127.000000
v -259.000000 37.000000 153.000000
v -259.000000 40.000000 153.000000
v -266.000000 35.000000 186.000000
v -267.000000 38.000000 186.000000
v -285.000000 32.000000 218.000000
v -282.000000 35.000000 218.000000
v -321.000000 25.000000 220.000000
v -320.000000 28.000000 218.000000
v -354.000000 19.000000 229.000000
v -353.000000 22.000000 227.000000
v -383.000000 13.999999 221.000000
v -382.000000 17.000000 222.000000
v -424.000000 7.000000 226.000000
v -424.000000 10.000000 229.000000
v -140.000000 32.000000 23.000000
v -222.000000 43.000000 134.000000
v -163.000000 36.000000 111.000000
v -188.000000 41.000000 134.000000
v -134.000000 30.000000 57.999996
v -144.000000 33.000000 88.000000
v -261.000000 37.999996 171.000000
v -368.000000 18.000000 226.000000
v -274.000000 36.000000 202.000000
v -302.000000 30.000000 219.000000
v -251.000000 39.000000 141.000000
v -337.000000 23.000000 223.000000
v -402.000000 12.000000 226.000000
v -424.000000 7.000000 224.000000
v -8.000000 7.000000 288.000000
v -424.000000 7.000000 288.000000
v -216.000000 44.000000 288.000000
v -8.000000 -0.000000 288.000000
v -424.000000 -0.000000 288.000000
v -170.000000 -0.000000 -8.000000
v -170.000000 0.000000 8.000000
v -154.000000 0.000000 8.000000
v -8.000000 0.000000 8.000000
v -424.000000 -0.000000 226.000000
v -424.000000 0.000000 224.000000
v -440.000000 0.000000 224.000000
vn -0.2194 -0.9440 -0.2465
vn 0.1158 -0.9841 -0.1348
vn 0.1183 -0.8613 0.4941
vn -0.3004 -0.6847 0.6640
vn 0.5909 -0.7739 0.2276
vn -0.2626 -0.7544 0.6016
vn 0.3999 -0.8751 -0.2725
vn -0.9593 0.1972 -0.2020
vn 0.1066 -0.5288 0.8420
vn 0.7444 -0.5959 0.3014
vn -0.4711 -0.8809 0.0452
vn 0.3253 -0.6965 -0.6395
vn -0.0712 -0.9515 -0.2993
vn -0.0000 -0.8515 0.5244
vn -0.1953 -0.9171 -0.3476
vn 0.7924 -0.6098 0.0179
vn 0.3401 -0.0611 -0.9384
vn -0.1175 -0.7979 -0.5913
vn 0.0686 0.3428 -0.9369
vn 0.2486 -0.4285 -0.8687
vn 0.1560 -0.1235 0.9800
vn 0.8987 0.4263 0.1026
vn -0.5505 -0.0336 0.8342
vn -0.2932 -0.0680 0.9536
vn -0.2792 -0.5509 0.7865
vn 0.8778 -0.1993 0.4355
vn -0.6581 -0.7524 0.0282
vn 0.5034 0.0599 -0.8620
vn -0.5229 0.8523 -0.0139
vn 0.3908 0.1824 0.9022
vn -0.7140 0.5805 0.3914
vn -0.5098 0.6146 0.6019
vn 0.0232 0.7078 0.7060
vn 0.0424 0.9548 -0.2940
vn -0.4471 -0.7374 0.5063
vn -0.9896 -0.1424 -0.0203
vn -0.5103 0.5885 0.6271
vn -0.8970 0.2707 0.3494
vn -0.3308 0.1018 0.9382
vn -0.5559 0.4405 0.7049
vn -0.5914 0.5602 0.5801
vn -0.6304 0.7750 -0.0436
vn -0.9167 0.3551 0.1833
vn -0.8463 -0.2055 0.4915
vn -0.5077 -0.2108 0.8353
vn -0.3772 -0.4550 0.8067
vn -0.0382 0.3278 0.9440
vn -0.8871 -0.4316 0.1637
vn -0.5822 -0.1761 -0.7937
vn -0.9123 0.0658 -0.4043
vn -0.2768 -0.0488 -0.9597
vn -0.6769 -0.2067 0.7065
vn -0.8225 0.4627 -0.3307
vn -0.9064 -0.3482 0.2391
vn -0.5544 0.1590 -0.8169
vn -0.0469 0.2860 -0.9571
vn -0.7571 0.3737 -0.5358
vn 0.2305 0.0637 -0.9710
vn -0.5350 -0.5576 -0.6347
vn 0.7026 0.3220 -0.6346
vn 0.5138 0.0990 -0.8522
vn -0.6866 -0.6247 -0.3720
vn -0.7772 -0.1776 -0.6036
vn -0.6751 0.0230 -0.7374
vn -0.9457 -0.2332 -0.2266
vn -0.6378 -0.2586 -0.7255
vn -0.6342 -0.7272 0.2625
vn -0.8727 -0.1153 -0.4744
vn -0.3845 0.5200 -0.7627
vn 0.0254 -0.2982 -0.9542
vn 0.4627 -0.4359 -0.7719
vn -0.3232 -0.8606 -0.3935
vn -0.1242 -0.5529 -0.8239
vn 0.3866 -0.3907 -0.8354
vn 0.2450 -0.1353 -0.9600
vn 0.5655 0.2975 -0.7692
vn -0.3895 -0.5536 -0.7361
vn -0.2010 0.3545 -0.9132
vn 0.5980 0.5427 -0.5899
vn 0.9323 -0.3472 0.1015
vn 0.9455 -0.2804 -0.1654
vn -0.8030 -0.4950 0.3317
vn -0.9640 -0.2591 0.0607
vn -0.6968 -0.6849 0.2130
vn -0.2187 -0.8645 -0.4526
vn 0.2113 -0.4510 -0.8672
vn 0.2290 -0.2556 -0.9393
vn 0.9075 -0.3274 -0.2630
vn -0.3952 -0.8649 -0.3096
vn 0.9257 -0.1374 -0.3523
vn -0.8658 -0.3419 -0.3653
vn 0.5702 0.5441 -0.6154
vn 0.0700 -0.1411 -0.9875
vn -0.3956 0.3209 -0.8605
vn 0.2993 0.5136 -0.8042
vn -0.6363 0.1063 0.7641
vn 0.2194 0.2465 0.9440
vn -0.8514 0.3174 0.4176
vn 0.9171 0.3575 0.1766
vn -0.8620 0.5034 0.0599
vt 1.143104 -1.402729
vt 0.982749 -1.402729
vt 0.982749 -1.563084
vt 2.766702 -1.563084
vt 2.606346 -1.402729
vt 2.606346 1.403489
vt 0.120839 2.766509
vt 0.120839 1.563844
vt -1.562891 1.403489
vt -1.723247 0.762068
vt -1.562891 0.782112
vt -1.723247 1.563844
vt 2.766702 2.766509
vt -1.562891 0.762068
vt 0.777088 0.297956
vt 2.093653 0.061270
vt 0.754898 0.187009
vt 0.777088 0.061270
vt 0.436852 0.357127
vt 0.140995 0.061270
vt 1.117324 0.238784
vt 2.093653 0.061270
vt -1.219949 0.061270
vt 0.777088 0.009495
vt 0.140995 0.009495
vt 2.093653 0.009495
vt -1.048598 0.009525
vt 2.146660 0.061301
vt -1.048598 0.061300
vt -0.161027 0.009525
vt -0.161027 0.061300
vt 0.430688 0.009526
vt 2.093653 0.009495
vt -1.219949 0.009495
vt 2.146660 0.009526
vt 0.445481 0.061301
vt 0.540955 -0.354804
vt 0.523804 -0.263334
vt 0.540955 -0.263334
vt 0.834884 0.592215
vt 0.829167 0.575065
vt 0.909203 0.569348
vt 0.994956 -0.263334
vt 1.006390 -0.177581
vt 1.052125 -0.091827
vt 0.358015 -0.354804
vt 0.398033 -0.263334
vt 1.761018 0.409275
vt 0.983522 0.546480
vt 0.926354 0.409275
vt 0.455202 -0.354804
vt 1.040691 0.552197
vt 0.983522 0.557914
vt 0.932071 0.575065
vt 0.812016 0.449293
vt 1.029258 -0.091827
vt 1.040691 0.022510
vt 0.994956 0.563631
vt 0.523804 0.251185
vt 0.506654 0.251185
vt 0.523804 0.325505
vt 0.823450 0.422692
vt 0.731980 0.456993
vt 0.663377 0.525595
vt 0.663377 0.620800
vt 0.657660 0.603649
vt 0.537606 0.615083
vt 0.563823 0.416975
vt 0.546672 0.416975
vt 0.540955 0.497011
vt 0.326082 0.565613
vt 0.314648 0.668517
vt 0.280347 0.754270
vt 0.535238 0.754270
vt 0.518088 0.754270
vt 0.523804 0.845741
vt 0.194593 0.569348
vt 0.080256 0.540763
vt -0.022648 0.529330
vt -0.028365 0.512179
vt -0.119835 0.500745
vt -0.211305 0.988662
vt -0.297058 0.982946
vt -0.377094 0.960078
vt -0.377094 0.466444
vt -0.382811 0.449293
vt -0.491432 0.437859
vt 0.375166 1.000096
vt 0.358015 0.982946
vt 0.375166 0.965795
vt 0.506654 0.194016
vt 0.483786 0.136848
vt 0.657660 0.525595
vt 0.817733 0.416975
vt 0.440419 0.615083
vt 0.434702 0.597932
vt 0.483786 -0.091827
vt 0.500937 -0.177581
vt 0.495220 -0.263334
vt 0.500937 0.136848
vt 0.489503 0.022510
vt 0.540955 0.422692
vt 0.523804 0.416975
vt 0.731980 0.603649
vt 0.500937 -0.091827
vt 0.874902 0.325505
vt 0.932071 0.251185
vt 0.537606 0.456993
vt 0.440419 0.416975
vt 0.817733 0.575065
vt 0.823450 0.592215
vt 0.512371 -0.263334
vt 0.535238 0.668517
vt 0.529521 0.565613
vt 0.546672 0.565613
vt -0.297058 0.472161
vt -0.217022 0.477878
vt -0.211305 0.495028
vt 0.500937 0.937211
vt 0.518088 0.937211
vt 0.194593 0.937211
vt 0.240328 0.845741
vt 0.177443 0.552197
vt 0.371817 0.497011
vt 0.434702 0.416975
vt -0.119835 0.965795
vt -0.028365 0.948644
vt -0.217022 1.000096
vt -0.491432 0.982946
vt -0.382811 0.954361
vt -0.617203 0.982946
vt -0.617203 0.409275
vt -0.617203 0.426426
vt -0.708673 0.409275
vt 0.358015 0.971512
vt 0.571907 1.337392
vt 0.286063 0.754270
vt -0.617203 1.337392
vt 0.177443 0.937211
vt 1.761018 -0.263334
vt 0.983522 -0.263334
vt 1.046408 0.136848
vt 1.761018 1.337392
vt 0.571907 0.620800
vt 1.761018 0.409275
vt -0.708673 0.369257
vt 0.317997 0.971512
vt 0.358015 -0.263334
vt 0.317997 1.337392
vt 0.358015 1.337392
vt -0.617203 0.369257
vt 0.834884 0.369257
vt 0.926354 0.369257
vt 1.761018 0.369257
vt 0.317997 -0.263334
vt 0.317997 0.982946
vt -0.617203 0.369257
vt 1.761018 0.369257
vt 0.317997 -0.354804
s 1
usemtl BLAK1
f 43/93/34 42/94/35 40/95/36
f 43/93/34 35/96/37 41/97/38
f 35/96/37 45/98/39 41/97/38
f 45/98/39 38/99/40 37/100/41
f 46/101/42 39/102/43 44/103/44
f 46/101/42 37/100/41 36/104/45
f 43/93/34 40/95/36 35/96/37
f 35/96/37 34/105/46 45/98/39
f 45/98/39 34/105/46 38/99/40
f 46/101/42 36/104/45 39/102/43
f 46/101/42 45/98/39 37/100/41
f 48/106/47 47/103/48 49/102/49
usemtl ROOFSD01
f 56/107/50 52/108/51 60/109/52
f 60/109/52 52/108/51 59/110/53
f 53/111/54 67/112/55 50/113/56
f 55/113/57 57/112/58 51/114/59
f 53/111/54 54/115/60 67/112/55
f 52/108/51 61/116/61 59/110/53
f 54/115/60 68/117/62 67/112/55
f 57/112/58 66/118/63 51/114/59
f 66/119/63 52/120/51 51/121/59
f 57/121/58 68/122/62 65/119/64
f 54/123/60 63/124/65 64/122/66
f 52/108/51 62/125/67 61/116/61
f 54/115/60 64/126/66 68/117/62
f 57/112/58 65/117/64 66/118/63
f 66/119/63 62/127/67 52/120/51
f 57/121/58 67/123/55 68/122/62
f 54/123/60 58/128/68 63/124/65
usemtl HMEROKGR
f 70/129/69 74/130/70 69/131/71
f 69/132/71 74/133/70 81/134/72
f 82/135/73 108/136/74 83/137/75
f 74/130/70 73/138/76 77/139/77
f 75/140/78 80/141/79 79/142/80
f 74/130/70 78/143/81 73/138/76
f 85/144/82 113/145/83 87/146/84
f 79/142/80 74/133/70 77/147/77
f 83/137/75 76/148/85 112/149/86
f 81/134/72 74/133/70 80/141/79
f 82/150/73 69/132/71 81/134/72
f 81/134/72 80/141/79 82/150/73
f 87/151/84 86/152/87 110/153/88
f 89/154/89 111/155/90 91/156/91
f 91/157/91 90/158/92 109/159/93
f 93/160/94 92/161/95 118/162/96
f 95/163/97 114/164/98 97/165/99
f 97/166/99 96/167/100 116/168/101
f 99/169/102 117/170/103 101/171/104
f 101/171/104 100/172/105 119/173/106
f 103/174/107 115/175/108 105/176/109
f 105/177/109 104/178/110 120/179/111
f 107/180/112 106/181/113 71/182/114
f 86/152/87 113/183/83 84/184/115
f 90/185/92 111/155/90 88/186/116
f 93/187/94 109/159/93 92/188/95
f 76/189/85 108/190/74 80/191/79
f 85/192/82 112/193/86 84/184/115
f 89/194/89 110/153/88 88/195/116
f 83/137/75 108/136/74 76/148/85
f 91/157/91 111/196/90 90/158/92
f 84/184/115 113/183/83 85/192/82
f 92/188/95 109/159/93 90/158/92
f 84/184/115 112/193/86 76/189/85
f 87/151/84 113/183/83 86/152/87
f 112/193/86 85/192/82 83/197/75
f 110/198/88 89/154/89 87/199/84
f 109/200/93 93/201/94 91/156/91
f 88/202/116 111/196/90 89/203/89
f 80/191/79 108/190/74 82/204/73
f 88/195/116 110/153/88 86/152/87
f 97/166/99 114/205/98 96/167/100
f 96/167/100 114/205/98 94/206/117
f 94/206/117 114/205/98 95/207/97
f 105/177/109 115/208/108 104/178/110
f 104/178/110 115/208/108 102/209/118
f 102/209/118 115/208/108 103/210/107
f 116/168/101 96/167/100 98/211/119
f 98/211/119 99/212/102 116/168/101
f 99/213/102 97/165/99 116/214/101
f 101/171/104 117/170/103 100/172/105
f 100/172/105 117/170/103 98/215/119
f 98/215/119 117/170/103 99/169/102
f 118/216/96 92/217/95 94/163/117
f 94/206/117 95/207/97 118/162/96
f 95/207/97 93/160/94 118/162/96
f 119/218/106 100/219/105 102/220/118
f 102/209/118 103/210/107 119/173/106
f 103/210/107 101/171/104 119/173/106
f 120/221/111 104/222/110 106/223/113
f 106/224/113 107/225/112 120/179/111
f 107/225/112 105/177/109 120/179/111
f 71/225/114 121/224/120 72/226/121
f 71/182/114 106/181/113 121/227/120
f 92/217/95 90/185/92 124/228/122
f 92/217/95 124/228/122 94/163/117
f 94/163/117 124/228/122 96/229/100
f 106/223/113 104/222/110 123/230/123
f 123/230/123 104/222/110 102/220/118
f 123/230/123 102/220/118 100/219/105
f 100/219/105 124/228/122 123/230/123
f 98/231/119 96/229/100 124/228/122
f 75/232/78 76/148/85 80/233/79
f 84/234/115 76/148/85 122/235/124
f 84/234/115 122/235/124 86/199/87
f 88/186/116 86/199/87 122/235/124
f 88/186/116 124/228/122 90/185/92
f 124/236/122 122/237/124 123/224/123
f 121/224/120 133/238/125 72/226/121
f 70/129/69 78/143/81 74/130/70
f 79/142/80 80/141/79 74/133/70
f 100/219/105 98/231/119 124/228/122
f 75/232/78 122/235/124 76/148/85
f 88/186/116 122/235/124 124/228/122
f 106/181/113 132/239/126 121/227/120
f 75/240/78 125/241/127 122/242/124
f 122/237/124 126/243/128 123/224/123
f 79/142/80 128/244/129 129/245/130
f 79/142/80 130/246/131 75/140/78
f 73/138/76 128/247/129 77/139/77
f 123/242/123 131/248/132 106/181/113
f 121/224/120 132/249/126 133/238/125
f 106/181/113 131/248/132 132/239/126
f 75/240/78 130/247/131 125/241/127
f 122/237/124 125/250/127 126/243/128
f 79/142/80 77/147/77 128/244/129
f 79/142/80 129/245/130 130/246/131
f 73/138/76 127/251/133 128/247/129
f 123/242/123 126/241/128 131/248/132
