# Blender 4.0.2
# www.blender.org
mtllib roof3.mtl
o top3
v 578.000000 5.099999 450.000000
v 400.000000 40.000000 360.000000
v 222.000000 5.100000 360.000000
v 126.000000 31.000000 -8.000000
v 280.000000 64.000000 -18.000002
v 370.000000 31.000000 -8.000000
v 400.000000 40.000000 450.000000
v 578.000000 5.100000 -18.000000
v 222.000000 5.099999 450.000000
v -18.000000 5.100000 -18.000000
v -18.000000 5.100000 370.000000
v 370.000000 14.200001 -194.000000
v 126.000000 14.200001 -194.000000
v 400.000000 40.000000 370.000000
v 280.000000 64.000000 370.000000
v 568.000000 -0.000000 440.000000
v 136.000000 -0.000000 -184.000000
v 136.000000 -0.000000 -8.000000
v 360.000000 -0.000000 -184.000000
v -8.000000 -0.000000 -8.000000
v 568.000000 7.000000 440.000000
v 280.000000 64.000000 360.000000
v 232.000000 7.000000 360.000000
v 136.000000 31.000000 -8.000000
v 280.000000 64.000000 -8.000000
v 136.000000 7.000000 -184.000000
v 360.000000 31.000000 -8.000000
v 136.000000 7.000000 -8.000000
v 360.000000 7.000000 -184.000000
v 400.000000 40.000000 440.000000
v 568.000000 7.000000 -8.000000
v 232.000000 7.000000 440.000000
v 360.000000 7.000000 -8.000000
v -8.000000 7.000000 -8.000000
v -8.000000 7.000000 360.000000
v 360.000000 15.000000 -184.000000
v 136.000000 15.000000 -184.000000
v 232.000000 -0.000000 360.000000
v 568.000000 -0.000000 -8.000000
v 232.000000 -0.000000 440.000000
v 360.000000 -0.000000 -8.000000
v -8.000000 -0.000000 360.000000
vn -0.0000 0.9959 -0.0900
vn 0.1924 0.9813 -0.0000
vn 0.1185 0.9917 0.0509
vn -0.0000 1.0000 -0.0000
vn -0.1924 0.9813 -0.0000
vn 0.1938 0.9810 0.0003
vn 0.0007 1.0000 0.0005
vn -0.1939 0.9810 -0.0000
vn 0.1961 0.9806 -0.0000
vn 0.5774 -0.5774 0.5773
vn -0.3015 -0.9045 0.3015
vn 0.5774 -0.5774 -0.5774
vn -0.5774 -0.5774 -0.5774
vn 0.3015 -0.9045 -0.3015
vn -0.3015 -0.9045 -0.3015
vn -0.5773 -0.5774 -0.5774
vn -0.5774 -0.5774 0.5774
vn 0.5773 -0.5774 -0.5774
vn 0.7267 -0.0000 -0.6870
vn 0.7071 -0.0000 -0.7071
vn -0.7267 -0.0000 -0.6870
vn -0.7071 -0.0000 -0.7071
vn -0.2997 -0.0000 -0.9540
vn 0.2997 -0.0000 -0.9540
vn -0.0000 -0.0000 -1.0000
vn 0.6646 -0.0000 -0.7472
vn -0.6646 -0.0000 -0.7472
vn -0.0000 -0.0000 1.0000
vn -0.6649 -0.0000 0.7470
vn 0.6649 -0.0000 0.7470
vn -0.3284 -0.0000 0.9446
vn -0.6646 -0.0000 0.7472
vt -0.753388 -2.988764
vt 1.024132 -0.656963
vt 1.024132 -2.988764
vt 3.289038 3.442802
vt 1.587969 2.582711
vt 1.587969 3.442802
vt -0.113099 2.582711
vt -0.113099 3.442802
vt 3.289038 -1.029669
vt 0.441182 -1.029669
vt 0.441182 2.678277
vt -2.406674 -1.029669
vt -2.406674 2.678277
vt -0.753388 -0.656963
vt 1.587969 2.678277
vt 0.963809 1.033654
vt 0.425347 0.905449
vt 0.963809 0.315705
vt 0.271501 0.033654
vt 0.630475 0.315705
vt 0.271501 0.315705
vt 0.040732 0.315705
vt 0.040732 0.905449
vt 0.425347 1.033654
vt 0.630475 0.033654
vt 2.935581 0.124218
vt 1.563145 0.061835
vt 2.935581 0.061835
vt 1.563145 0.248985
vt 1.266174 0.124043
vt -0.480563 0.061660
vt -0.480563 0.124043
vt 1.266174 0.248810
vt -0.480563 0.248810
vt 0.642339 0.506142
vt 2.888144 0.061660
vt 1.266174 0.061660
vt -1.603465 0.061660
vt 1.578091 0.318991
vt 0.268039 0.061659
vt 2.888144 0.061659
vt 0.642339 0.506142
vt 1.266174 0.061660
vt -0.480563 0.061660
vt -1.603465 0.061659
vt -0.480563 0.007074
vt -1.603465 0.007074
vt 1.266174 0.007074
vt 2.935581 0.007249
vt 2.888144 0.007074
vt 0.268039 0.007074
vt 1.563145 0.007249
vt -1.930328 0.007249
vt -1.306493 0.061834
vt -1.306493 0.007249
vt -1.930328 0.061834
vt 1.266174 0.007074
vt -0.480563 0.007074
vt 2.888144 0.007074
vt 0.268039 0.007074
vt -1.603465 0.007074
s 1
usemtl ROOFTPP
f 12/1/1 4/2/1 6/3/1
f 1/4/2 2/5/3 7/6/4
f 2/5/3 3/7/5 9/8/5
f 7/6/4 2/5/3 9/8/5
f 8/9/6 5/10/4 15/11/7
f 8/9/6 2/5/3 1/4/2
f 5/10/4 10/12/8 11/13/8
f 15/11/7 5/10/4 11/13/8
f 12/1/1 13/14/1 4/2/1
f 8/9/6 15/11/7 2/5/3
f 2/5/3 15/11/7 14/15/9
usemtl BLAK1
f 16/16/10 38/17/11 39/18/12
f 17/19/13 41/20/14 18/21/15
f 20/22/16 18/21/15 42/23/17
f 41/20/14 38/17/11 42/23/17
f 18/21/15 41/20/14 42/23/17
f 16/16/10 40/24/17 38/17/11
f 17/19/13 19/25/18 41/20/14
f 41/20/14 39/18/12 38/17/11
usemtl ROOFSD01
f 36/26/19 33/27/20 29/28/20
f 37/26/21 28/27/22 24/29/23
f 36/30/19 26/31/22 37/32/21
f 27/33/24 24/34/23 25/35/25
f 27/33/24 31/36/26 33/37/20
f 24/34/23 34/38/27 25/35/25
f 30/39/28 32/40/29 21/41/30
f 22/42/28 23/40/31 2/39/3
f 36/26/19 27/29/24 33/27/20
f 37/26/21 26/28/22 28/27/22
f 36/30/19 29/43/20 26/31/22
f 27/33/24 25/35/25 31/36/26
f 24/34/23 28/44/22 34/38/27
f 22/42/28 35/45/32 23/40/31
f 29/43/20 17/46/13 26/31/22
f 28/44/22 20/47/16 34/38/27
f 31/36/26 41/48/14 33/37/20
f 33/27/20 19/49/18 29/28/20
f 32/40/29 16/50/10 21/41/30
f 35/45/32 38/51/11 23/40/31
f 26/28/22 18/52/15 28/27/22
f 31/27/26 16/53/10 39/52/12
f 20/52/16 35/54/32 34/27/27
f 38/55/11 32/56/29 23/54/31
f 29/43/20 19/57/18 17/46/13
f 28/44/22 18/58/15 20/47/16
f 31/36/26 39/59/12 41/48/14
f 33/27/20 41/52/14 19/49/18
f 32/40/29 40/60/17 16/50/10
f 35/45/32 42/61/17 38/51/11
f 26/28/22 17/49/13 18/52/15
f 31/27/26 21/56/30 16/53/10
f 20/52/16 42/55/17 35/54/32
f 38/55/11 40/53/17 32/56/29
