# Blender 4.0.2
# www.blender.org
mtllib sleepingbag.mtl
o sleepingbag
v -24.000000 0.500000 -48.000000
v -24.000000 0.500000 48.000000
v 23.999998 0.500000 -48.000000
v 23.999998 0.500000 48.000000
v -24.000000 0.500000 0.000000
v 23.999998 0.500000 0.000000
v 23.999998 0.500000 24.000000
v -24.000000 0.500000 24.000000
v -24.000000 0.500000 -24.000000
v 23.999998 0.500000 -24.000000
v 9.000000 0.500000 48.000000
v 9.000002 0.500000 -48.000000
v 9.000000 2.500000 0.000000
v 9.000000 1.500000 24.000000
v 9.000000 2.500000 -24.000000
v -9.000000 0.500000 48.000000
v -9.000000 1.500000 0.000000
v -9.000000 2.500000 24.000000
v -9.000000 1.500000 -24.000000
v -8.999999 0.500000 -48.000000
vn 0.0289 0.9992 -0.0260
vn 0.0994 0.9948 -0.0208
vn 0.0665 0.9969 -0.0415
vn 0.0194 0.9985 -0.0520
vn 0.0402 0.9989 0.0260
vn 0.0664 0.9976 0.0208
vn 0.1158 0.9932 0.0104
vn 0.0441 0.9990 0.0052
vn 0.0305 0.9987 0.0416
vn 0.0333 0.9992 0.0208
vn -0.0554 0.9984 -0.0052
vn -0.0458 0.9987 -0.0208
vn -0.0194 0.9985 0.0520
vn -0.0346 0.9992 0.0208
vn -0.0305 0.9987 -0.0416
vn -0.0499 0.9987 -0.0104
vn -0.0333 0.9992 -0.0208
vn -0.0830 0.9965 0.0104
vn -0.0830 0.9965 -0.0104
vn -0.0665 0.9969 0.0415
vt 0.750000 0.312500
vt 0.750000 0.000000
vt 1.000000 0.000000
vt 1.000000 0.312500
vt 0.250000 0.312500
vt 0.250000 0.000000
vt 0.500000 0.000000
vt 0.500000 0.312500
vt 0.000000 0.312500
vt 0.000000 0.000000
vt 0.750000 0.312500
vt 0.500000 0.687500
vt 0.500000 0.312500
vt 0.750000 0.312500
vt 0.750000 0.687500
vt 0.000000 0.687500
vt 0.250000 0.312500
vt 0.250000 0.687500
vt 0.250000 0.312500
vt 0.500000 0.312500
vt 1.000000 0.312500
vt 1.000000 0.687500
vt 0.750000 1.000000
vt 1.000000 0.687500
vt 1.000000 1.000000
vt 0.250000 1.000000
vt 0.500000 1.000000
vt 0.000000 1.000000
s 1
usemtl SLPBAG01
f 15/1/1 10/2/2 3/3/3 12/4/4
f 14/5/5 7/6/6 6/7/7 13/8/8
f 11/9/9 4/10/10 7/6/6 14/5/5
f 13/8/8 6/7/7 10/2/2 15/11/1
f 17/12/11 13/13/8 15/14/1 19/15/12
f 16/16/13 11/9/9 14/17/5 18/18/14
f 18/18/14 14/19/5 13/20/8 17/12/11
f 19/15/12 15/14/1 12/21/4 20/22/15
f 9/23/16 19/15/12 20/24/15 1/25/17
f 8/26/18 18/18/14 17/12/11 5/27/19
f 2/28/20 16/16/13 18/18/14 8/26/18
f 5/27/19 17/12/11 19/15/12 9/23/16
