# Blender 4.0.2
# www.blender.org
mtllib polemount.mtl
o pole1
v 176.000000 2.000000 4.000000
v 176.000000 2.000000 -4.000000
v 0.000000 2.000000 -4.000000
v 0.000000 -2.000000 -4.000000
v 0.000000 2.000000 4.000000
v 176.000000 -2.000000 4.000000
v 0.000000 -2.000000 4.000000
v 176.000000 -2.000000 -4.000000
vn -0.0000 0.7071 -0.7071
vn 0.5774 0.5773 -0.5774
vn 0.5774 -0.5773 -0.5774
vn -0.0000 -0.7071 -0.7071
vn 0.5774 0.5774 0.5774
vn -0.0000 0.7071 0.7071
vn -0.0000 -0.7071 0.7071
vn 0.5774 -0.5774 0.5774
vt 1.538462 -0.500000
vt -0.153847 -0.500000
vt -0.153576 -0.750000
vt 1.538462 -0.750000
vt 1.538462 -0.500000
vt -0.153103 -0.750000
vt 2.615386 -0.500000
vt 0.923077 -0.500000
vt 0.923077 -0.750000
vt 2.614643 -0.750000
vt 2.614913 -0.500000
vt 0.923077 -0.750000
vt 17.884621 230.750015
vt 19.576914 230.749969
vt 19.576914 231.249969
vt 17.884621 231.250015
vt 17.884619 230.750000
vt 17.884621 230.250000
vt 19.576164 230.749969
vt 19.576166 230.249939
vt 19.576170 230.749969
vt 17.884619 230.250000
vt 19.615376 230.749969
vt 19.615376 231.249969
s 1
usemtl PSTLAMP3
f 3/1/1 2/2/2 8/3/3
f 4/4/4 3/5/1 8/6/3
f 1/7/5 5/8/6 7/9/7
f 6/10/8 1/11/5 7/12/7
f 5/13/6 1/14/5 2/15/2
f 3/16/1 5/17/6 2/15/2
f 7/18/7 8/19/3 6/20/8
f 4/13/4 8/21/3 7/22/7
f 1/14/5 6/23/8 8/24/3
f 1/14/5 8/24/3 2/15/2
