# Blender 4.0.2
# www.blender.org
mtllib BARIKADE.mtl
o Cube.006
v 20.058170 -29.359360 35.006409
v 22.505388 -27.624100 35.006409
v 23.722185 -21.560324 30.763769
v 26.176212 -25.021210 35.006409
v 21.268156 -18.099436 26.521128
v 16.990635 -25.033251 40.309708
v 20.047955 -21.565140 28.642448
v -7.098540 22.996714 -22.783096
v -18.124641 25.580339 -31.268375
v -9.552569 26.457602 -27.025736
v -21.192177 29.906448 -25.965076
v -12.006599 29.918489 -31.268375
v 14.536607 -21.572365 36.067070
v -10.772772 22.991898 -24.904415
v 12.082578 -18.111477 31.824429
v 14.536607 -21.572365 31.824429
v -18.738148 26.445560 -21.722435
v -16.284119 22.984673 -17.479795
v -16.284119 22.984673 -21.722435
v 18.831156 -27.628916 37.127728
v -15.677425 27.315599 -31.268375
v -19.351654 27.310783 -29.147057
v -35.817585 -24.672375 -0.509233
v -34.590569 -26.402819 -2.630553
v -27.855612 -25.527966 -5.812533
v -32.750046 -28.998486 -5.812533
v -22.961178 -22.057446 -5.812533
v -32.750050 -28.998486 4.794067
v -26.635410 -22.062260 -3.691213
v 28.430384 14.383018 -5.812533
v 35.151718 25.650171 -0.509233
v 33.324825 17.853542 -5.812533
v 38.219254 21.324060 4.794067
v 38.219257 21.324062 -5.812533
v -27.855612 -25.527966 4.794067
v 29.650591 17.848724 -3.691213
v -22.961178 -22.057446 4.794067
v -26.635410 -22.062262 2.672748
v 33.324821 17.853540 4.794067
v 28.430384 14.383018 4.794067
v 29.650591 17.848724 2.672748
v -34.590572 -26.402819 1.612088
v 36.378735 23.919727 -2.630553
v 36.378731 23.919727 1.612088
v 2.734605 -3.837212 4.794067
v 11.306678 -2.959950 9.036708
v 10.679546 8.297569 -0.509233
v 5.188633 -7.298100 -10.055174
v -18.124638 25.580334 30.249914
v -19.351652 27.310778 28.128593
v -18.738144 26.445555 20.703976
v -21.192173 29.906443 24.946617
v -0.332931 0.488898 -0.509233
v -16.284115 22.984667 16.461336
v -24.242682 21.242184 30.249914
v -16.284117 22.984669 20.703972
v 9.483183 -13.354653 -28.086395
v 17.458775 -24.602537 -31.268377
v 11.937209 -16.815538 -32.329041
v 11.340731 -28.940687 -31.268377
v 14.391237 -20.276426 -36.571678
v -21.788652 17.781296 26.007273
v 11.937211 -16.815540 -28.086397
v -19.334623 14.320409 21.764633
v -18.114422 17.786112 23.885952
v 8.886703 -25.479799 -27.025738
v 6.432674 -22.018911 -22.783096
v 10.106906 -22.014095 -24.904417
v -20.571856 23.845074 30.249914
v 16.231760 -22.872093 -33.389698
v 15.011557 -26.337797 -31.268377
v -5.854495 8.275895 -10.055171
v -5.854496 8.275896 9.036708
v -8.922031 12.602005 3.733408
v -11.345408 -7.319773 -0.509233
v -0.929410 -11.636250 -10.055174
v 13.747083 3.971459 4.794067
v 3.331084 8.287936 -4.751873
v -0.946438 1.354120 9.036709
v -8.922030 12.602004 -4.751872
v -8.277873 -11.645883 -5.812533
v -8.905003 -0.388364 3.733408
v -0.946438 1.354120 -10.055173
v 7.629040 -0.366692 -5.812533
vn -0.5726 0.8075 0.1414
vn -0.4090 0.5768 0.7071
vn 0.2898 0.8139 0.5036
vn -0.4072 -0.8088 -0.4243
vn -0.8157 -0.5784 -0.0000
vn -0.8660 -0.0011 -0.5000
vn -0.3943 0.5793 0.7134
vn 0.2876 0.8169 0.5000
vn -0.0818 0.1154 0.9899
vn 0.4156 -0.5861 -0.6955
vn 0.4090 -0.5768 -0.7071
vn -0.3957 0.5861 0.7070
vn -0.9432 0.3321 -0.0000
vn 0.5467 0.7753 -0.3162
vn 0.4072 0.8088 -0.4243
vn -0.1829 0.2580 0.9487
vn 0.8980 0.1166 0.4243
vn 0.8166 -0.1144 0.5657
vn 0.4090 -0.5768 0.7071
vn 0.5784 -0.8157 -0.0000
vn -0.8980 -0.1166 -0.4243
vn -0.1622 -0.8085 0.5657
vn 0.7306 -0.2572 -0.6325
vn 0.8166 -0.1144 -0.5657
vn 0.0010 -0.7746 0.6325
vn -0.1622 -0.8085 -0.5657
vn 0.4156 -0.5861 0.6955
vn -0.4106 0.5669 0.7142
vn 0.5475 0.7693 0.3293
vn -0.8980 -0.1166 0.4243
vn -0.1829 0.2580 -0.9487
vn -0.0818 0.1154 -0.9899
vn -0.9125 -0.2594 0.3162
vn -0.5726 0.8075 -0.1414
vn -0.8166 0.1144 -0.5657
vn 0.8179 0.5753 0.0057
vn 0.8157 0.5784 -0.0000
vn -0.4090 0.5768 -0.7071
vn 0.8122 0.5829 0.0217
vn -0.5487 0.7739 0.3162
vn -0.5467 -0.7753 -0.3162
vn 0.9125 0.2594 0.3162
vn 0.7306 -0.2572 0.6325
vn 0.0010 -0.7746 -0.6325
vn -0.3867 0.5767 0.7197
vn -0.5487 0.7739 -0.3162
vn 0.8162 0.5774 0.0227
vt -0.280996 -0.360773
vt -0.199478 -0.250553
vt -0.335831 -0.361140
vt 0.108174 1.229105
vt 0.025920 1.119433
vt 0.163010 1.229105
vt -0.254680 -0.196085
vt 0.080756 1.064597
vt -0.335831 1.360222
vt -0.252478 1.196269
vt -0.198010 1.251471
vt -0.280996 1.360589
vt 0.903286 -0.114378
vt 1.040376 0.214638
vt 0.985540 0.269474
vt -0.332161 0.811875
vt -0.330509 0.565120
vt -0.194156 0.675707
vt 0.526096 0.761140
vt 0.584259 0.625428
vt 0.584259 0.702977
vt 0.409772 0.761140
vt 0.464608 0.898230
vt 0.409772 0.843394
vt 0.963033 1.114614
vt 0.899928 0.992912
vt 1.017123 1.123629
vt 0.163010 0.187220
vt 0.409772 0.433982
vt 0.163010 0.433982
vt 0.963033 0.947837
vt 0.903286 -0.361140
vt 0.821032 -0.196632
vt 0.766196 -0.251468
vt 0.848450 -0.361140
vt 0.903286 0.433982
vt 0.656524 0.433982
vt 0.766196 0.324310
vt 0.917958 0.884732
vt 0.972048 0.560192
vt 1.107273 0.582730
vt 0.409772 1.172408
vt 0.546861 1.117574
vt 0.492025 1.172409
vt 0.467934 0.567265
vt 0.409772 0.702978
vt 0.409772 0.625428
vt 0.766196 -0.141796
vt 0.903286 0.187220
vt 0.881898 1.123629
vt 0.656523 0.974882
vt 0.791748 0.997419
vt -0.191770 0.319282
vt -0.329591 0.428033
vt 0.163010 -0.361140
vt 0.080756 -0.196632
vt 0.025919 -0.251468
vt 0.108174 -0.361140
vt 0.163010 0.187220
vt 0.163010 0.433982
vt 0.025920 0.324310
vt 0.546862 1.035320
vt 0.492026 0.898230
vt 0.546862 0.953066
vt 0.467934 0.761140
vt 0.526096 0.625428
vt 0.526096 0.702978
vt -0.083752 0.566772
vt 0.025920 0.680745
vt -0.083753 0.433982
vt 0.409772 0.567265
vt 0.518483 0.456641
vt 0.656524 0.565112
vt 1.265750 0.328501
vt 1.040376 0.179757
vt 1.175600 0.202293
vt 0.163010 0.680745
vt 0.025920 1.009761
vt 0.300100 0.543655
vt 0.217846 -0.361140
vt 0.300100 -0.251468
vt 0.245264 -0.196632
vt 0.800763 0.442997
vt 0.863868 0.564700
vt 0.800763 0.609775
vt 0.656524 -0.361140
vt 0.655328 0.428028
vt 0.575707 -0.195921
vt 1.184615 -0.352126
vt 1.247720 -0.230425
vt 1.184615 -0.185349
vt 0.881898 0.433983
vt 1.040376 -0.361140
vt 0.903286 -0.361140
vt 0.163010 0.680745
vt 0.245264 1.064597
vt -0.198744 -0.360222
vt 0.025920 1.229105
vt -0.198744 1.361140
vt 0.958122 0.433982
vt 0.903286 0.433982
vt 1.040376 0.324310
vt 1.040376 0.433982
vt -0.197276 1.141801
vt 0.526096 0.567265
vt 0.546862 0.898230
vt 0.881898 1.101092
vt 0.300100 0.187220
vt 0.766196 -0.361140
vt 0.546861 1.035320
vt 0.467934 0.761140
vt -0.200212 -0.140883
vt 0.025919 -0.361140
vt 0.025920 -0.141796
vt 0.409772 0.898230
vt 0.467934 0.567265
vt 0.300100 -0.141796
vt 0.163010 -0.361140
vt 0.300100 -0.361140
vt 0.845838 0.672880
vt 0.746673 0.433982
vt 0.881898 0.456520
vt 0.521351 -0.140609
vt 0.520395 -0.250276
vt 0.601690 -0.360662
vt 0.519439 -0.359944
vt 1.229690 -0.122245
vt 1.130525 -0.361140
vt 1.265750 -0.338604
vt 0.300100 1.009761
vt 0.300100 1.119433
vt 0.217846 1.229105
vt 0.300100 1.229105
s 1
usemtl RUST01
f 2/1/1 3/2/2 1/3/3
f 50/4/4 51/5/5 49/6/6
f 1/3/3 3/2/2 7/7/7
f 49/6/6 51/5/5 56/8/5
f 9/9/8 14/10/2 10/11/2
f 10/11/2 21/12/9 9/9/8
f 75/13/10 37/14/11 38/15/11
f 72/16/12 53/17/13 78/18/2
f 6/19/14 2/20/1 20/21/15
f 12/22/16 22/23/17 21/24/9
f 24/25/18 25/26/19 23/27/20
f 48/28/21 75/29/10 53/30/13
f 23/27/20 25/26/19 29/31/19
f 31/32/20 36/33/19 32/34/19
f 32/34/19 43/35/22 31/32/20
f 53/36/13 48/37/21 84/38/19
f 27/39/19 81/40/19 75/41/10
f 28/42/23 24/43/18 42/44/24
f 34/45/25 44/46/26 43/47/22
f 84/38/19 30/48/19 47/49/27
f 46/50/28 47/51/27 77/52/11
f 7/7/7 46/53/28 45/54/29
f 58/55/6 63/56/5 59/57/5
f 59/57/5 70/58/30 58/55/6
f 48/59/21 53/60/13 83/61/5
f 55/62/31 50/63/4 69/64/32
f 61/65/33 71/66/34 70/67/30
f 45/54/29 47/68/27 53/17/13
f 53/60/13 74/69/5 72/70/12
f 73/71/35 79/72/36 53/73/13
f 74/74/5 72/75/12 80/76/37
f 73/77/35 56/8/5 54/78/5
f 75/29/10 82/79/38 53/30/13
f 71/80/34 66/81/38 68/82/38
f 44/83/26 39/84/11 41/85/11
f 78/18/2 53/17/13 47/68/27
f 1/86/3 45/87/29 16/88/39
f 22/89/17 17/90/37 19/91/37
f 75/41/10 81/40/19 76/92/38
f 45/93/29 75/13/10 53/94/13
f 49/6/6 73/95/35 65/96/38
f 2/1/1 4/97/40 3/2/2
f 83/61/5 53/60/13 72/70/12
f 50/4/4 52/98/41 51/5/5
f 10/11/2 12/99/16 21/12/9
f 42/100/24 23/101/20 38/15/11
f 23/101/20 75/13/10 38/15/11
f 75/13/10 45/93/29 37/14/11
f 38/15/11 35/102/11 42/100/24
f 35/102/11 28/103/23 42/100/24
f 78/18/2 8/104/2 72/16/12
f 8/104/2 14/10/2 72/16/12
f 14/10/2 9/9/8 72/16/12
f 6/19/14 4/105/40 2/20/1
f 12/22/16 11/106/42 22/23/17
f 24/25/18 26/107/43 25/26/19
f 48/28/21 76/108/38 75/29/10
f 32/34/19 34/109/25 43/35/22
f 36/33/19 31/32/20 47/49/27
f 75/41/10 23/27/20 29/31/19
f 29/31/19 27/39/19 75/41/10
f 28/42/23 26/110/43 24/43/18
f 34/45/25 33/111/44 44/46/26
f 45/54/29 1/3/3 7/7/7
f 7/7/7 5/112/45 46/53/28
f 59/57/5 61/113/33 70/58/30
f 83/61/5 57/114/5 48/59/21
f 57/114/5 63/56/5 48/59/21
f 63/56/5 58/55/6 48/59/21
f 55/62/31 52/115/41 50/63/4
f 61/65/33 60/116/46 71/66/34
f 45/54/29 46/53/28 47/68/27
f 53/60/13 73/77/35 74/69/5
f 54/78/5 74/69/5 73/77/35
f 73/77/35 49/6/6 56/8/5
f 67/117/38 76/108/38 68/82/38
f 76/108/38 48/28/21 68/82/38
f 48/28/21 58/118/6 68/82/38
f 58/118/6 71/80/34 68/82/38
f 71/80/34 60/119/46 66/81/38
f 40/120/11 77/52/11 47/51/27
f 47/51/27 31/121/20 41/85/11
f 31/121/20 44/83/26 41/85/11
f 44/83/26 33/122/44 39/84/11
f 41/85/11 40/120/11 47/51/27
f 45/87/29 53/73/13 79/72/36
f 79/72/36 15/123/47 45/87/29
f 15/123/47 16/88/39 45/87/29
f 16/88/39 13/124/37 20/125/15
f 13/124/37 6/126/14 20/125/15
f 20/125/15 1/86/3 16/88/39
f 18/127/37 80/76/37 72/75/12
f 72/75/12 9/128/8 19/91/37
f 9/128/8 22/89/17 19/91/37
f 22/89/17 11/129/42 17/90/37
f 19/91/37 18/127/37 72/75/12
f 73/95/35 53/30/13 82/79/38
f 82/79/38 64/130/38 73/95/35
f 64/130/38 65/96/38 73/95/35
f 65/96/38 62/131/38 69/132/32
f 62/131/38 55/133/31 69/132/32
f 69/132/32 49/6/6 65/96/38
f 47/49/27 53/36/13 84/38/19
f 30/48/19 36/33/19 47/49/27
