# Blender 4.0.2
# www.blender.org
mtllib brokentv.mtl
o screen
v 18.000000 44.000000 -22.000000
v 17.999998 5.000002 -22.000000
v 18.000002 5.000002 22.000000
v -0.000001 49.000000 27.000000
v -0.000001 -0.000001 27.000000
v 19.000000 49.000000 26.999998
v 19.000000 -0.000001 26.999998
v -0.000005 49.000000 -26.999996
v -0.000005 0.000001 -26.999996
v 18.999996 48.999996 -26.999998
v 18.999996 0.000001 -26.999998
v 19.000000 44.000000 22.000000
v 19.000000 44.000000 -22.000000
v 18.999996 5.000002 -22.000000
v 19.000000 5.000002 22.000000
v -0.000005 0.000002 -22.000000
v -0.000001 -0.000002 22.000000
v -0.000005 43.999996 -22.000000
v 0.000000 44.000004 22.000000
v -15.000002 -0.000001 -12.000001
v -15.000002 0.000001 11.999999
v -14.999998 39.000000 -12.000001
v -14.999998 39.000000 11.999999
v 18.000000 44.000000 22.000000
v 4.000000 44.000000 22.000000
v 4.000000 44.000000 -22.000000
v 3.999998 5.000002 -22.000000
v 4.000002 5.000002 22.000000
vn 0.3333 -0.6667 0.6667
vn 0.3333 0.6667 -0.6667
vn 0.3333 0.6667 0.6667
vn 0.3333 -0.6667 -0.6667
vn -0.5774 -0.5774 0.5774
vn 0.5774 0.5774 0.5774
vn -0.5774 0.5774 0.5774
vn 0.9045 -0.3015 0.3015
vn 0.5774 0.5774 -0.5774
vn 0.5774 -0.5774 -0.5774
vn -0.5774 0.5774 -0.5774
vn -0.9699 0.1611 0.1824
vn 0.9045 0.3015 0.3015
vn 0.5774 -0.5774 0.5774
vn 0.9045 0.3015 -0.3015
vn -0.9699 0.1611 -0.1824
vn -0.7896 0.4894 0.3702
vn -0.6954 -0.6147 0.3722
vn -0.7896 0.4894 -0.3702
vn -0.6954 -0.6147 -0.3722
vn 0.9045 -0.3015 -0.3015
vn -0.5774 -0.5774 -0.5774
vn -0.4916 -0.8302 -0.2631
vn -0.4916 -0.8302 0.2631
vt 0.973684 0.970588
vt 0.026316 0.029412
vt 0.973684 0.029412
vt 0.026316 0.970588
vt 0.384981 0.889325
vt 0.646597 0.214632
vt 0.384981 0.214632
vt 0.872582 0.214632
vt 0.197889 0.283478
vt 0.129042 0.214632
vt 0.646597 0.889325
vt 0.384981 0.214632
vt 0.646597 0.214632
vt 0.129042 0.214632
vt 0.803736 0.283478
vt 0.646597 0.145665
vt 0.384981 0.889205
vt 0.646597 0.889205
vt 0.197889 0.820479
vt 0.872582 0.889325
vt 0.129042 0.889325
vt 0.646597 0.214511
vt 0.632828 0.820358
vt 0.646597 0.820358
vt 0.384981 0.820358
vt 0.384981 0.214511
vt 0.178443 0.682666
vt 0.666043 0.889325
vt 0.335581 0.352324
vt 0.335581 0.889325
vt 0.646597 0.820358
vt 0.632828 0.214511
vt 0.646597 0.214511
vt 0.646597 0.820479
vt 0.632828 0.283478
vt 0.646597 0.283478
vt 0.646597 0.283478
vt 0.632828 0.820479
vt 0.646597 0.820479
vt 0.646597 0.889325
vt 0.803736 0.820479
vt 0.384981 0.889325
vt 0.129042 0.889325
vt 0.197889 0.889325
vt 0.803736 0.889325
vt 0.872582 0.889325
vt 0.384981 0.145665
vt 0.632828 0.214511
vt 0.178443 0.889325
vt 0.178443 0.352324
vt 0.384981 0.283478
vt 0.384981 0.283478
vt 0.178443 0.352324
vt 0.178443 0.352204
vt 0.666043 0.352324
vt 0.632828 0.820358
vt 0.632828 0.283478
vt 0.000000 -0.000000
vt 1.000000 0.000000
vt 1.000000 0.000000
vt -0.000000 0.000000
vt 1.000000 1.000000
vt 0.000000 1.000000
vt -0.000000 1.000000
vt 1.000000 1.000000
vt 0.000000 1.000000
vt 0.000000 0.000000
vt 0.266934 0.642731
vt 0.266934 0.357269
vt 0.445347 0.238327
vt 0.445347 0.761673
vt 0.671338 0.178856
vt 0.671338 0.821144
vt 0.445347 0.821144
vt 0.445347 0.178856
s 1
usemtl GREY129
f 5/5/5 6/6/6 4/7/7
f 6/8/6 13/9/8 10/10/9
f 11/11/10 8/12/11 10/13/9
f 8/14/11 19/15/12 4/8/7
f 10/16/9 4/17/7 6/18/6
f 14/19/13 7/20/14 11/21/10
f 14/22/13 3/23/2 15/24/15
f 19/25/12 18/26/16 23/27/17
f 21/28/18 22/29/19 20/30/20
f 12/31/21 1/32/1 13/33/8
f 15/34/15 24/35/4 12/36/21
f 13/37/8 2/38/3 14/39/13
f 5/5/5 7/40/14 6/6/6
f 6/8/6 7/20/14 15/41/15
f 6/8/6 15/41/15 12/15/21
f 14/19/13 11/21/10 10/10/9
f 6/8/6 12/15/21 13/9/8
f 13/9/8 14/19/13 10/10/9
f 11/11/10 9/42/22 8/12/11
f 8/14/11 9/43/22 18/9/16
f 9/43/22 16/44/23 18/9/16
f 17/45/24 5/46/5 19/15/12
f 5/46/5 4/8/7 19/15/12
f 8/14/11 18/9/16 19/15/12
f 10/16/9 8/47/11 4/17/7
f 14/19/13 15/41/15 7/20/14
f 14/22/13 2/48/3 3/23/2
f 21/49/18 17/5/24 23/50/17
f 17/5/24 19/51/12 23/50/17
f 18/52/16 16/42/23 22/53/19
f 16/42/23 20/49/20 22/53/19
f 18/26/16 22/54/19 23/27/17
f 21/28/18 23/55/17 22/29/19
f 12/31/21 24/56/4 1/32/1
f 15/34/15 3/38/2 24/35/4
f 13/37/8 1/57/1 2/38/3
f 21/68/18 20/69/20 16/70/23 17/71/24
f 17/71/24 16/70/23 11/72/10 7/73/14
f 17/71/24 7/73/14 5/74/5
f 11/72/10 16/70/23 9/75/22
usemtl PTVBROK
f 1/1/1 3/2/2 2/3/3
f 1/1/1 24/4/4 3/2/2
usemtl PTVBROKI
f 3/58/2 2/59/3 27/60/6 28/61/9
f 1/62/1 24/63/4 25/64/10 26/65/14
f 24/66/4 3/67/2 28/67/9 25/66/10
f 2/62/3 1/60/1 26/60/14 27/62/6
f 25/66/10 28/67/9 27/60/6 26/62/14
