# Blender 4.0.2
# www.blender.org
mtllib BTHRMCBNT2.mtl
o cabinet2
v -4.000000 31.999998 -16.000000
v -4.000000 -0.000000 -16.000000
v -4.000000 32.000000 16.000002
v -4.000000 0.000000 15.999999
v 12.000000 31.999998 -16.000000
v 12.000000 -0.000000 -16.000000
v 12.000000 32.000000 16.000002
v 12.000000 0.000000 15.999999
vn -0.0000 -0.0000 1.0000
vn 1.0000 -0.0000 -0.0000
vn -0.0000 -0.0000 -1.0000
vn -0.0000 1.0000 -0.0000
vn -0.0000 -1.0000 -0.0000
vt 0.250000 0.000000
vt 0.250000 1.000000
vt 0.750000 1.000000
vt 0.750000 0.000000
vt 1.000000 0.000000
vt 1.000000 1.000000
vt 0.000000 1.000000
vt 0.000000 0.000000
vt 1.250000 -0.000000
vt 1.250000 1.000000
vt 0.750000 -0.000000
vt 1.000000 1.000000
vt 1.000000 0.500000
vt 0.000000 0.500000
vt 0.000000 1.000000
vt 1.000000 0.000000
vt 0.000000 0.000000
s 0
usemtl PCUNTR09
f 7/5/2 8/6/2 6/7/2 5/8/2
usemtl PCUNTR05
f 3/1/1 4/2/1 8/3/1 7/4/1
f 5/9/3 6/10/3 2/3/3 1/11/3
f 3/12/4 7/13/4 5/14/4 1/15/4
f 8/13/5 4/16/5 2/17/5 6/14/5
