# Blender 4.0.2
# www.blender.org
mtllib CeilingLite64x32_off.mtl
o Cube
v -16.000000 0.000000 -32.000000
v 16.000000 0.000000 32.000000
v -16.000000 0.000000 32.000000
v 15.000000 -1.000000 31.000000
v 16.000000 0.000000 -32.000000
v -15.000000 -1.000000 31.000000
v 15.000000 -1.000000 -31.000000
v -15.000000 -1.000000 -31.000000
v -14.000000 -0.500000 30.000000
v -14.000000 -0.500000 -30.000000
v 14.000000 -0.500000 30.000000
v 14.000000 -0.500000 -30.000000
vn -0.0000 -0.7071 0.7071
vn -0.4472 -0.8944 -0.0000
vn -0.7071 -0.7071 -0.0000
vn 0.7071 -0.7071 -0.0000
vn -0.0000 -0.7071 -0.7071
vn 0.4472 -0.8944 -0.0000
vn -0.0000 -0.8944 0.4472
vn -0.0000 -0.8944 -0.4472
vn -0.0000 -1.0000 -0.0000
vt 0.984375 0.031250
vt 1.000000 1.000000
vt 0.984375 0.968750
vt 0.015625 0.031250
vt 0.968750 0.062500
vt 0.031250 0.062500
vt 0.015625 0.968750
vt 1.000000 1.000000
vt -0.000000 1.000000
vt 0.015625 0.031250
vt 1.000000 -0.000000
vt 0.984375 0.031250
vt -0.000000 0.000000
vt 0.015625 0.968750
vt 0.000000 1.000000
vt 0.031250 0.937500
vt 0.984375 0.968750
vt 0.015625 0.968750
vt 0.015625 0.968750
vt 0.031250 0.062500
vt 0.968750 0.937500
vt 0.984375 0.031250
vt 0.984375 0.968750
vt 0.031250 0.062500
vt 0.031250 0.937500
vt 1.000000 -0.000000
vt 0.984375 0.031250
vt -0.000000 0.000000
vt 0.015625 0.031250
vt 0.968750 0.937500
vt 0.015625 0.031250
vt 0.968750 0.062500
vt 0.968750 0.062500
s 0
usemtl CLIGHT02
f 4/1/1 3/2/1 6/3/1
f 7/4/2 11/5/2 12/6/2
f 8/7/3 3/8/3 1/9/3
f 7/10/4 2/11/4 4/12/4
f 5/13/5 8/14/5 1/15/5
f 10/16/6 6/17/6 8/18/6
f 8/19/7 12/20/7 10/16/7
f 9/21/8 4/22/8 6/23/8
f 12/24/9 9/21/9 10/25/9
f 4/1/1 2/26/1 3/2/1
f 7/4/2 4/27/2 11/5/2
f 8/7/3 6/23/3 3/8/3
f 7/10/4 5/28/4 2/11/4
f 5/13/5 7/29/5 8/14/5
f 10/16/6 9/30/6 6/17/6
f 8/19/7 7/31/7 12/20/7
f 9/21/8 11/32/8 4/22/8
f 12/24/9 11/33/9 9/21/9
