# Blender 4.0.2
# www.blender.org
mtllib FILECABNET01.mtl
o Cube.001
v 15.999999 72.000000 11.999999
v 16.000000 0.000002 12.000001
v 15.999999 72.000000 -12.000001
v 16.000000 0.000000 -11.999999
v -16.000000 72.000000 11.999999
v -15.999999 -0.000000 12.000001
v -16.000000 72.000000 -12.000001
v -15.999999 -0.000002 -11.999999
v 16.000000 58.000000 -4.500000
v 17.000000 58.000000 -4.500000
v 16.000000 56.000000 -4.500000
v 17.000000 56.000000 -4.500000
v 18.000000 58.000000 1.500000
v 18.000000 56.000000 1.500000
v 18.000000 56.000000 -3.500000
v 18.000000 58.000000 -3.500000
v 17.000000 58.000000 2.500000
v 17.000000 56.000000 2.500000
v 16.000000 58.000000 2.500000
v 16.000000 56.000000 2.500000
v 16.000000 37.000000 -4.500000
v 17.000000 37.000000 -4.500000
v 16.000000 35.000000 -4.500000
v 17.000000 35.000000 -4.500000
v 18.000000 37.000000 1.500000
v 18.000000 35.000000 1.500000
v 18.000000 35.000000 -3.500000
v 18.000000 37.000000 -3.500000
v 17.000000 37.000000 2.500000
v 17.000000 35.000000 2.500000
v 16.000000 37.000000 2.500000
v 16.000000 35.000000 2.500000
v 16.000000 16.000002 -4.500000
v 17.000000 16.000002 -4.500000
v 16.000000 14.000001 -4.500000
v 17.000000 14.000001 -4.500000
v 18.000000 16.000002 1.500000
v 18.000000 14.000002 1.500000
v 18.000000 14.000001 -3.500000
v 18.000000 16.000002 -3.500000
v 17.000000 16.000002 2.500000
v 17.000000 14.000002 2.500000
v 16.000000 16.000002 2.500000
v 16.000000 14.000002 2.500000
vn 0.5774 0.5774 0.5774
vn 0.7071 -0.0000 0.7071
vn 0.7071 -0.0000 -0.7071
vn 0.5774 0.5774 -0.5774
vn -0.7071 -0.0000 -0.7071
vn -0.5774 0.5774 -0.5774
vn -0.7071 -0.0000 0.7071
vn -0.5774 0.5774 0.5774
vn -0.0000 -0.0000 -1.0000
vn 0.3827 -0.0000 -0.9239
vn 0.3827 -0.0000 0.9239
vn -0.0000 -0.0000 1.0000
vn 0.9239 -0.0000 0.3827
vn 0.9239 -0.0000 -0.3827
vt 0.000000 1.000000
vt 0.000000 0.437500
vt 0.187500 0.437500
vt 0.187500 1.000000
vt 0.437500 0.437500
vt 0.437500 1.000000
vt 0.625000 0.437500
vt 0.625000 1.000000
vt 0.625000 0.750000
vt 0.812500 0.750000
vt 0.812500 1.000000
vt 0.304688 0.437500
vt 0.296875 0.437500
vt 0.296875 0.421875
vt 0.304688 0.421875
vt 0.203125 0.421875
vt 0.203125 0.437500
vt 0.195312 0.437500
vt 0.195312 0.421875
vt 0.226562 0.421875
vt 0.226562 0.437500
vt 0.273438 0.421875
vt 0.273438 0.437500
vt 0.414062 0.437500
vt 0.406250 0.437500
vt 0.406250 0.421875
vt 0.414062 0.421875
vt 0.312500 0.421875
vt 0.312500 0.437500
vt 0.335938 0.421875
vt 0.335938 0.437500
vt 0.382812 0.421875
vt 0.382812 0.437500
vt 0.523438 0.437500
vt 0.515625 0.437500
vt 0.515625 0.421875
vt 0.523438 0.421875
vt 0.421875 0.421875
vt 0.421875 0.437500
vt 0.445312 0.421875
vt 0.445312 0.437500
vt 0.492188 0.421875
vt 0.492188 0.437500
s 1
usemtl FLCABT01
f 1/1/1 2/2/2 4/3/3 3/4/4
f 3/4/4 4/3/3 8/5/5 7/6/6
f 7/6/6 8/5/5 6/7/7 5/8/8
f 5/6/8 6/5/7 2/3/2 1/4/1
f 3/8/4 7/9/6 5/10/8 1/11/1
f 9/12/9 10/13/10 12/14/10 11/15/9
f 18/16/11 17/17/11 19/18/12 20/19/12
f 14/20/13 13/21/13 17/17/11 18/16/11
f 15/22/14 16/23/14 13/21/13 14/20/13
f 12/14/10 10/13/10 16/23/14 15/22/14
f 21/24/9 22/25/10 24/26/10 23/27/9
f 30/28/11 29/29/11 31/12/12 32/15/12
f 26/30/13 25/31/13 29/29/11 30/28/11
f 27/32/14 28/33/14 25/31/13 26/30/13
f 24/26/10 22/25/10 28/33/14 27/32/14
f 33/34/9 34/35/10 36/36/10 35/37/9
f 42/38/11 41/39/11 43/24/12 44/27/12
f 38/40/13 37/41/13 41/39/11 42/38/11
f 39/42/14 40/43/14 37/41/13 38/40/13
f 36/36/10 34/35/10 40/43/14 39/42/14
