# Blender 4.0.2
# www.blender.org
mtllib GasLight1.mtl
o light
v 2.000000 -5.000000 -0.000000
v 2.000000 -2.605858 6.577848
v 1.000000 -6.627595 0.592396
v 1.000000 -4.233455 7.170244
v -1.000000 -6.627595 0.592396
v -1.000000 -4.233455 7.170244
v -2.000000 -5.000000 0.000000
v -2.000000 -2.605859 6.577847
v -1.000000 -3.372404 -0.592396
v -1.000000 -0.978263 5.985452
v 1.000000 -3.372404 -0.592396
v 0.999999 -0.978263 5.985452
v -13.000000 -2.605858 6.577848
v -12.999999 -5.424937 7.603909
v -13.000001 19.283432 66.718178
v -13.000000 16.464355 67.744232
v 13.000001 -2.605859 6.577848
v 13.000002 -5.424936 7.603909
v 13.000000 19.283432 66.718178
v 13.000001 16.464355 67.744232
v -0.000001 22.102510 65.692116
v -0.000000 0.213219 5.551788
v -10.000000 -4.398876 10.422986
v 10.000000 -4.398876 10.422986
v 10.000000 15.438293 64.925156
v -10.000000 15.438292 64.925156
v -9.000001 16.035965 63.643448
v 8.999999 16.035965 63.643448
v 8.999999 -3.117164 11.020658
v -9.000001 -3.117164 11.020659
vn 0.8660 -0.4698 0.1710
vn -0.0000 -0.9397 0.3420
vn -0.8660 -0.4698 0.1710
vn -0.8660 0.4698 -0.1710
vn -0.0000 0.9397 -0.3420
vn 0.8660 0.4698 -0.1710
vn -0.5774 -0.7400 -0.3451
vn -0.6317 0.6741 0.3827
vn -0.6317 0.2704 -0.7265
vn -0.0000 0.4804 -0.8770
vn 0.6317 0.2704 -0.7265
vn 0.5774 -0.7400 -0.3451
vn 0.5774 -0.3451 0.7400
vn 0.6317 0.6741 0.3827
vn -0.0000 0.9318 0.3630
vn -0.5774 -0.3451 0.7400
vn -0.1101 -0.9659 0.2344
vn -0.3002 -0.9535 0.0276
vn -0.1101 -0.8906 0.4413
vn 0.1101 -0.8906 0.4413
vn 0.3002 -0.7481 0.5918
vn 0.1101 -0.9659 0.2344
vn -0.3002 -0.7481 0.5918
vn 0.3002 -0.9535 0.0276
vt 0.500000 0.573169
vt 0.500000 0.452122
vt 0.529951 0.452122
vt 0.529951 0.573169
vt 0.482708 0.573170
vt 0.482708 0.452122
vt 0.517292 0.452122
vt 0.517292 0.573170
vt 0.529951 0.573170
vt 0.500000 0.573170
vt 0.500000 0.573169
vt 0.470049 0.452122
vt 0.470049 0.573169
vt 0.470049 0.573170
vt 0.500000 0.573169
vt 0.000000 0.593750
vt 1.000000 0.546875
vt 0.000000 0.546875
vt 0.203125 0.093750
vt 0.000000 0.046875
vt 0.000000 0.000000
vt 1.000000 0.593750
vt 1.000000 0.140625
vt 0.000000 0.343750
vt 1.000000 0.343750
vt 1.000000 1.000000
vt 0.953125 0.640625
vt 0.406250 0.000000
vt 0.406250 0.046875
vt 0.953125 0.640625
vt 0.937500 0.656250
vt 0.046875 0.640625
vt 0.046875 0.953125
vt 0.000000 1.000000
vt 0.062500 0.937500
vt 0.953125 0.953125
vt 0.062500 0.656250
vt 0.937500 0.937500
vt 0.062500 0.937500
vt 0.000000 0.140625
vt 0.953125 0.953125
vt 0.953125 0.953125
vt 0.937500 0.937500
vt 0.062500 0.656250
vt 0.953125 0.953125
vt 0.046875 0.640625
vt 0.046875 0.640625
vt 0.937500 0.937500
vt 0.937500 0.656250
s 0
usemtl RUST01
f 1/1/1 2/2/1 4/3/1 3/4/1
f 3/5/2 4/6/2 6/7/2 5/8/2
f 5/9/3 6/3/3 8/2/3 7/10/3
f 7/11/4 8/2/4 10/12/4 9/13/4
f 9/8/5 10/7/5 12/6/5 11/5/5
f 11/14/6 12/12/6 2/2/6 1/15/6
s 1
usemtl FLRESC01
f 14/16/7 15/17/8 13/18/9
f 22/19/10 17/20/11 18/21/12
f 20/22/13 17/18/11 19/17/14
f 19/23/14 22/24/10 21/25/15
f 16/26/16 25/27/17 20/22/13
f 21/25/15 13/18/9 15/17/8
f 20/28/13 19/29/14 21/19/15
f 14/16/7 16/22/16 15/17/8
f 25/30/17 28/31/18 24/32/19
f 23/33/20 14/34/7 18/16/12
f 30/35/21 26/36/22 23/33/20
f 29/37/23 27/38/24 30/39/21
f 18/21/12 14/28/7 22/19/10
f 14/28/7 13/29/9 22/19/10
f 20/22/13 18/16/12 17/18/11
f 19/23/14 17/40/11 22/24/10
f 16/26/16 26/41/22 25/27/17
f 21/25/15 22/24/10 13/18/9
f 15/20/8 16/21/16 21/19/15
f 16/21/16 20/28/13 21/19/15
f 25/30/17 26/42/22 28/31/18
f 26/42/22 27/43/24 28/31/18
f 28/31/18 29/44/23 24/32/19
f 23/33/20 26/45/22 16/26/16
f 18/16/12 20/22/13 25/27/17
f 18/16/12 25/27/17 24/46/19
f 23/33/20 16/26/16 14/34/7
f 18/16/12 24/46/19 23/33/20
f 23/33/20 24/47/19 30/35/21
f 24/47/19 29/37/23 30/35/21
f 30/35/21 27/48/24 26/36/22
f 29/37/23 28/49/18 27/38/24
