# Blender 4.0.2
# www.blender.org
mtllib kurite.mtl
o Cube
v -20.000000 26.000000 68.000008
v -20.000000 30.000000 68.000008
v -20.000000 26.000000 -68.000000
v -20.000000 30.000000 -68.000000
v 19.999998 26.000000 68.000008
v 19.999998 30.000000 68.000008
v 19.999998 26.000000 -68.000000
v 19.999998 30.000000 -68.000000
v 12.000000 26.000000 63.999996
v 16.000000 26.000000 63.999996
v 16.000000 26.000000 60.000000
v 12.000000 26.000000 60.000000
v -12.000000 26.000000 63.999996
v -16.000000 26.000000 63.999996
v -12.000000 26.000000 60.000000
v -16.000000 26.000000 60.000000
v 16.000000 26.000000 -64.000000
v 16.000000 26.000000 -60.000000
v 12.000000 26.000000 -60.000000
v 12.000000 26.000000 -64.000000
v -12.000000 26.000000 -64.000000
v -16.000000 26.000000 -64.000000
v -16.000000 26.000000 -60.000000
v -12.000000 26.000000 -60.000000
v 12.000000 -0.000001 63.999996
v 16.000000 -0.000001 63.999996
v 16.000000 -0.000001 60.000000
v 12.000000 -0.000001 60.000000
v -12.000000 -0.000001 63.999996
v -16.000000 -0.000001 63.999996
v -12.000000 -0.000001 60.000000
v -16.000000 -0.000001 60.000000
v 16.000000 -0.000001 -64.000000
v 16.000000 -0.000001 -60.000000
v 12.000000 -0.000001 -60.000000
v 12.000000 -0.000001 -64.000000
v -12.000000 -0.000001 -64.000000
v -16.000000 -0.000001 -64.000000
v -16.000000 -0.000001 -60.000000
v -12.000000 -0.000001 -60.000000
vn -0.5774 0.5774 0.5774
vn -0.5774 -0.5774 -0.5774
vn -0.5774 -0.5774 0.5774
vn -0.5774 0.5774 -0.5774
vn 0.5774 -0.5774 -0.5774
vn 0.5774 0.5774 -0.5774
vn 0.5774 -0.5774 0.5774
vn 0.5774 0.5774 0.5774
vn -0.3015 -0.9045 -0.3015
vn 0.3015 -0.9045 -0.3015
vn 0.3015 -0.9045 0.3015
vn 0.7071 -0.0000 -0.7071
vn -0.3015 -0.9045 0.3015
vn 0.7071 -0.0000 0.7071
vn -0.7071 -0.0000 -0.7071
vn -0.7071 -0.0000 0.7071
vt 0.971429 0.687500
vt 0.000000 0.656250
vt 0.971429 0.656250
vt 0.971429 1.000000
vt 1.000000 0.687500
vt 1.000000 1.000000
vt 0.000000 0.343750
vt 0.028571 0.406250
vt 0.028571 0.593750
vt 0.000000 0.687500
vt 0.000000 1.000000
vt 0.557143 0.312500
vt 0.742857 0.343750
vt 0.557143 0.343750
vt 0.942857 0.593750
vt 0.942857 0.406250
vt 0.971429 0.343750
vt 0.371429 0.312500
vt 0.371429 0.343750
vt 0.914286 0.625000
vt 0.057143 0.625000
vt 0.000000 0.312500
vt 0.185714 0.343750
vt 0.185714 0.312500
vt 0.028571 0.625000
vt 0.028571 0.375000
vt 0.057143 0.406250
vt 0.742857 0.312500
vt 0.942857 0.625000
vt 0.914286 0.406250
vt 0.942857 0.375000
vt 0.057143 0.375000
vt 0.914286 0.375000
vt 0.914286 0.593750
vt 0.057143 0.593750
s 1
usemtl SECURT01
f 2/1/1 3/2/2 1/3/3
f 4/4/4 7/5/5 3/6/2
f 8/1/6 5/2/7 7/3/5
f 6/4/8 1/5/3 5/6/7
f 7/7/5 20/8/9 21/9/10
f 4/10/4 6/4/8 8/11/6
f 10/12/11 27/13/12 11/14/10
f 13/15/11 9/16/13 5/17/7
f 13/12/11 31/13/12 15/14/10
f 9/18/13 26/14/14 10/19/11
f 14/18/13 29/14/14 13/19/11
f 16/20/9 3/2/2 23/21/13
f 17/22/10 36/23/15 20/7/9
f 15/22/10 32/23/15 16/7/9
f 11/22/10 28/23/15 12/7/9
f 16/24/9 30/19/16 14/23/13
f 12/24/9 25/19/16 9/23/13
f 21/22/10 38/23/15 22/7/9
f 18/12/11 33/13/12 17/14/10
f 22/24/9 39/19/16 23/23/13
f 19/18/13 34/14/14 18/19/11
f 23/18/13 40/14/14 24/19/11
f 20/24/9 35/19/16 19/23/13
f 24/12/11 37/13/12 21/14/10
f 2/1/1 4/10/4 3/2/2
f 4/4/4 8/1/6 7/5/5
f 8/1/6 6/10/8 5/2/7
f 6/4/8 2/1/1 1/5/3
f 22/25/9 3/2/2 21/9/10
f 3/2/2 7/7/5 21/9/10
f 7/7/5 17/26/10 20/8/9
f 20/8/9 19/27/13 21/9/10
f 4/10/4 2/1/1 6/4/8
f 10/12/11 26/28/14 27/13/12
f 5/17/7 1/3/3 13/15/11
f 1/3/3 14/29/13 13/15/11
f 13/15/11 12/30/9 9/16/13
f 9/16/13 10/31/11 5/17/7
f 13/12/11 29/28/14 31/13/12
f 9/18/13 25/12/16 26/14/14
f 14/18/13 30/12/16 29/14/14
f 18/32/11 17/26/10 7/7/5
f 7/7/5 5/17/7 11/33/10
f 5/17/7 10/31/11 11/33/10
f 18/32/11 7/7/5 11/33/10
f 12/30/9 13/15/11 15/34/10
f 18/32/11 11/33/10 12/30/9
f 24/35/11 21/9/10 19/27/13
f 19/27/13 18/32/11 12/30/9
f 19/27/13 12/30/9 15/34/10
f 24/35/11 19/27/13 15/34/10
f 16/20/9 14/29/13 1/3/3
f 24/35/11 15/34/10 16/20/9
f 3/2/2 22/25/9 23/21/13
f 23/21/13 24/35/11 16/20/9
f 16/20/9 1/3/3 3/2/2
f 17/22/10 33/24/12 36/23/15
f 15/22/10 31/24/12 32/23/15
f 11/22/10 27/24/12 28/23/15
f 16/24/9 32/18/15 30/19/16
f 12/24/9 28/18/15 25/19/16
f 21/22/10 37/24/12 38/23/15
f 18/12/11 34/28/14 33/13/12
f 22/24/9 38/18/15 39/19/16
f 19/18/13 35/12/16 34/14/14
f 23/18/13 39/12/16 40/14/14
f 20/24/9 36/18/15 35/19/16
f 24/12/11 40/28/14 37/13/12
o monitor.003
v -8.990820 60.000000 -22.844063
v -14.698525 32.000000 -36.751690
v -9.304564 62.000000 -20.630116
v -20.092485 62.000000 -52.873268
v -20.092485 32.000000 -52.873268
v -9.304564 32.000000 -20.630116
v -19.775194 36.000000 -51.924938
v -9.621856 61.000000 -21.578442
v -9.621856 36.000000 -21.578442
v -18.509573 60.000000 -51.293903
v -19.775194 61.000000 -51.924938
v -8.990820 37.000000 -22.844063
v -18.509573 37.000000 -51.293903
v 8.357353 62.000000 -62.392021
v 19.145275 32.000000 -30.148869
v 19.145275 62.000000 -30.148869
v 8.357353 32.000000 -62.392021
v -19.721981 30.500000 -4.490801
v -38.124908 30.500000 -59.493828
v 13.084803 30.500000 -76.627586
v 31.487730 30.500000 -21.624561
v -17.271839 60.000000 54.985283
v -14.300311 32.000000 40.248596
v -18.761654 62.000000 56.652752
v -9.838969 62.000000 23.844437
v -9.838969 32.000000 23.844437
v -18.761654 32.000000 56.652752
v -10.101400 36.000000 24.809383
v -18.499222 61.000000 55.687805
v -18.499222 36.000000 55.687805
v -9.398884 60.000000 26.036766
v -10.101400 61.000000 24.809383
v -17.271839 37.000000 54.985283
v -9.398884 37.000000 26.036766
v 19.109547 62.000000 31.717396
v 10.186862 32.000000 64.525703
v 10.186862 62.000000 64.525703
v 19.109547 32.000000 31.717396
v -36.385094 30.500000 64.295677
v -21.164043 30.500000 8.328550
v 30.943279 30.500000 22.499870
v 15.722234 30.500000 78.466995
v -9.583702 60.000000 14.043830
v -10.583702 32.000000 -0.956169
v -10.583702 62.000000 16.043831
v -10.583702 62.000000 -17.956169
v -10.583702 32.000000 -17.956169
v -10.583702 32.000000 16.043831
v -10.583702 36.000000 -16.956169
v -10.583702 61.000000 15.043831
v -10.583702 36.000000 15.043831
v -9.583701 60.000000 -15.956169
v -10.583702 61.000000 -16.956169
v -9.583702 37.000000 14.043830
v -9.583701 37.000000 -15.956169
v 19.416296 62.000000 -17.956169
v 19.416298 32.000000 16.043831
v 19.416298 62.000000 16.043831
v 19.416296 32.000000 -17.956169
v -25.583700 30.500000 28.043831
v -25.583702 30.500000 -29.956169
v 28.416298 30.500000 -29.956169
v 28.416300 30.500000 28.043835
vn -0.9019 0.1101 0.4178
vn -0.8949 -0.0000 -0.4462
vn -0.9483 -0.0000 0.3173
vn -0.9539 0.3002 0.0026
vn -0.9717 -0.1101 0.2091
vn -0.9539 -0.3002 0.0026
vn -0.9717 0.1101 0.2091
vn -0.7307 0.5774 -0.3643
vn -0.9019 -0.1101 0.4178
vn -0.7634 0.3002 0.5720
vn -0.7634 -0.3002 0.5720
vn -0.3643 0.5774 0.7307
vn 0.3643 0.5774 -0.7307
vn 0.4462 -0.0000 -0.8949
vn -0.4462 -0.0000 0.8949
vn 0.7307 0.5774 0.3643
vn 0.8949 -0.0000 0.4462
vn -0.0000 1.0000 -0.0000
vn -0.9821 0.1100 -0.1530
vn -0.4968 -0.0000 -0.8679
vn -0.9650 -0.0000 -0.2624
vn -0.7949 0.3002 -0.5273
vn -0.9243 -0.1100 -0.3654
vn -0.7949 -0.3002 -0.5273
vn -0.9243 0.1101 -0.3654
vn -0.4056 0.5774 -0.7086
vn -0.9821 -0.1101 -0.1530
vn -0.9525 0.3002 0.0521
vn -0.9525 -0.3002 0.0521
vn -0.7086 0.5774 0.4056
vn 0.7086 0.5774 -0.4056
vn 0.8679 -0.0000 -0.4968
vn -0.8679 -0.0000 0.4968
vn 0.4056 0.5774 0.7086
vn 0.4968 -0.0000 0.8679
vn -0.9878 0.1101 0.1100
vn -0.7071 -0.0000 -0.7071
vn -1.0000 -0.0000 -0.0000
vn -0.9054 0.3002 -0.3002
vn -0.9878 -0.1100 -0.1100
vn -0.9054 -0.3002 -0.3002
vn -0.9878 0.1100 -0.1101
vn -0.5774 0.5773 -0.5774
vn -0.9878 -0.1101 0.1100
vn -0.9054 0.3002 0.3002
vn -0.9054 -0.3002 0.3002
vn -0.5774 0.5773 0.5774
vn 0.5774 0.5774 -0.5774
vn 0.7071 -0.0000 -0.7071
vn -0.7071 -0.0000 0.7071
vn 0.5774 0.5774 0.5774
vn 0.7071 -0.0000 0.7071
vt 0.007143 0.109375
vt 0.000000 0.078125
vt 0.121429 0.078125
vt 0.228571 0.117188
vt 0.235714 0.304688
vt 0.228571 0.296875
vt 0.235714 0.109375
vt 0.000000 0.312500
vt 0.007143 0.304688
vt 0.000000 0.500000
vt 0.500000 1.000000
vt 0.000000 1.000000
vt 0.242857 0.312500
vt 0.014286 0.296875
vt 0.014286 0.117188
vt 0.242857 0.078125
vt 0.485714 0.312500
vt 0.485714 0.078125
vt 0.700000 0.312500
vt 0.742857 0.093750
vt 0.971429 0.343750
vt 0.742857 0.343750
vt 0.500000 0.000000
vt 1.000000 0.500000
vt 0.500000 0.500000
vt 0.000000 0.000000
vt 0.000000 0.500000
vt 0.500000 0.500000
vt 0.700000 0.078125
vt 0.971429 0.093750
vt 1.000000 0.000000
s 1
usemtl SECURT01
f 47/36/17 45/37/18 42/38/19
f 52/39/20 48/40/21 41/41/22
f 42/38/19 49/42/23 47/36/17
f 44/43/24 47/36/17 51/44/25
f 49/42/23 43/48/28 48/40/21
f 51/44/25 43/48/28 44/43/24
f 50/49/27 48/40/21 51/44/25
f 47/36/17 52/39/20 53/50/26
f 47/36/17 50/49/27 51/44/25
f 43/51/28 54/52/29 44/48/24
f 44/53/24 57/54/30 45/52/18
f 46/53/31 56/54/32 43/52/28
f 55/53/33 54/54/29 56/52/32
f 58/55/34 60/56/34 59/57/34
f 68/36/35 66/37/36 63/38/37
f 73/39/38 69/40/39 62/41/40
f 63/38/37 70/42/41 68/36/35
f 65/43/42 68/36/35 72/44/43
f 70/42/41 64/48/46 69/40/39
f 72/44/43 64/48/46 65/43/42
f 72/44/43 62/41/40 69/40/39
f 68/36/35 73/39/38 74/50/44
f 68/36/35 71/49/45 72/44/43
f 64/51/46 75/52/47 65/48/42
f 65/53/42 78/54/48 66/52/36
f 67/53/49 77/54/50 64/52/46
f 76/53/51 75/54/47 77/52/50
f 79/55/34 81/56/34 80/57/34
f 89/36/52 87/37/53 84/38/54
f 94/39/55 90/40/56 83/41/57
f 84/38/54 91/42/58 89/36/52
f 86/43/59 89/36/52 93/44/60
f 91/42/58 85/48/63 90/40/56
f 93/44/60 85/48/63 86/43/59
f 92/49/62 90/40/56 93/44/60
f 89/36/52 94/39/55 95/50/61
f 89/36/52 92/49/62 93/44/60
f 85/51/63 96/52/64 86/48/59
f 86/53/59 99/54/65 87/52/53
f 88/53/66 98/54/67 85/52/63
f 97/53/68 96/54/64 98/52/67
f 100/55/34 102/56/34 101/57/34
f 52/39/20 49/42/23 48/40/21
f 42/38/19 46/51/31 49/42/23
f 44/43/24 45/37/18 47/36/17
f 49/42/23 46/51/31 43/48/28
f 51/44/25 48/40/21 43/48/28
f 50/49/27 41/41/22 48/40/21
f 47/36/17 49/42/23 52/39/20
f 47/36/17 53/50/26 50/49/27
f 43/51/28 56/53/32 54/52/29
f 44/53/24 54/64/29 57/54/30
f 46/53/31 55/64/33 56/54/32
f 55/53/33 57/64/30 54/54/29
f 58/55/34 61/65/34 60/56/34
f 73/39/38 70/42/41 69/40/39
f 63/38/37 67/51/49 70/42/41
f 65/43/42 66/37/36 68/36/35
f 70/42/41 67/51/49 64/48/46
f 72/44/43 69/40/39 64/48/46
f 72/44/43 71/49/45 62/41/40
f 68/36/35 70/42/41 73/39/38
f 68/36/35 74/50/44 71/49/45
f 64/51/46 77/53/50 75/52/47
f 65/53/42 75/64/47 78/54/48
f 67/53/49 76/64/51 77/54/50
f 76/53/51 78/64/48 75/54/47
f 79/55/34 82/65/34 81/56/34
f 94/39/55 91/42/58 90/40/56
f 84/38/54 88/51/66 91/42/58
f 86/43/59 87/37/53 89/36/52
f 91/42/58 88/51/66 85/48/63
f 93/44/60 90/40/56 85/48/63
f 92/49/62 83/41/57 90/40/56
f 89/36/52 91/42/58 94/39/55
f 89/36/52 95/50/61 92/49/62
f 85/51/63 98/53/67 96/52/64
f 86/53/59 96/64/64 99/54/65
f 88/53/66 97/64/68 98/54/67
f 97/53/68 99/64/65 96/54/64
f 100/55/34 103/65/34 102/56/34
usemtl SECURT02
f 53/45/26 41/46/22 50/47/27
f 74/58/44 62/59/40 71/60/45
f 95/61/61 83/60/57 92/62/62
f 53/45/26 52/63/20 41/46/22
f 74/58/44 73/66/38 62/59/40
f 95/61/61 94/58/55 83/60/57
