# Blender 4.0.2
# www.blender.org
mtllib light_inlet.mtl
o Cube
v -4.000000 23.500000 0.000000
v 0.000001 23.500000 4.000000
v -5.656853 24.000000 5.656855
v -8.000000 24.000000 0.000001
v 5.656854 24.000000 -5.656854
v 0.000001 23.000000 6.000000
v 5.656855 24.000000 5.656854
v -4.242640 23.000000 -4.242640
v 4.000000 23.500000 -0.000000
v 0.000001 24.000000 8.000000
v -0.000000 23.000000 -6.000000
v 6.000000 23.000000 -0.000001
v -5.656854 24.000000 -5.656853
v -0.000000 24.000000 -8.000000
v -6.000000 23.000000 0.000001
v 8.000000 24.000000 -0.000001
v 4.242641 23.000000 -4.242640
v 4.242641 23.000000 4.242641
v -4.242640 23.000000 4.242641
v -0.000000 23.500000 -4.000000
vn 0.1503 -0.9771 0.1503
vn -0.0000 -0.9892 -0.1463
vn -0.1463 -0.9892 -0.0000
vn 0.1503 -0.9771 -0.1503
vn 0.1926 -0.9813 -0.0000
vn -0.1503 -0.9771 -0.1503
vn -0.0000 -0.9892 0.1463
vn 0.1463 -0.9892 -0.0000
vn -0.1503 -0.9771 0.1503
vn -0.1926 -0.9813 -0.0000
vn -0.0000 -0.9813 -0.1926
vn -0.0000 -0.9813 0.1926
vn -0.3162 -0.8944 0.3162
vn -0.0000 -0.8944 0.4472
vn -0.4472 -0.8944 -0.0000
vn -0.0000 -0.8944 -0.4472
vn 0.4472 -0.8944 -0.0000
vn -0.3162 -0.8944 -0.3162
vn 0.3162 -0.8944 -0.3162
vn 0.3162 -0.8944 0.3162
vt 0.765165 0.765165
vt 0.500000 0.750000
vt 0.750000 0.500000
vt 0.765165 0.234835
vt 0.875000 0.500000
vt 0.234835 0.234835
vt 0.500000 0.250000
vt 0.250000 0.500000
vt 0.234835 0.765165
vt 0.125000 0.500000
vt 0.500000 0.125000
vt 0.500000 0.875000
vt 0.146447 0.853554
vt 0.500000 1.000000
vt 0.000000 0.500000
vt 0.500000 0.000000
vt 1.000000 0.500000
vt 0.146447 0.146447
vt 0.853553 0.146447
vt 0.853553 0.853554
s 1
usemtl INLETL1
f 18/1/1 2/2/2 9/3/3
f 17/4/4 12/5/5 9/3/3
f 8/6/6 20/7/7 1/8/8
f 19/9/9 15/10/10 1/8/8
f 9/3/3 2/2/2 1/8/8
f 8/6/6 11/11/11 20/7/7
f 19/9/9 1/8/8 2/2/2
f 12/5/5 18/1/1 9/3/3
f 17/4/4 20/7/7 11/11/11
f 15/10/10 8/6/6 1/8/8
f 19/9/9 2/2/2 6/12/12
f 18/1/1 6/12/12 2/2/2
f 20/7/7 9/3/3 1/8/8
f 17/4/4 9/3/3 20/7/7
f 3/13/13 6/12/12 10/14/14
f 4/15/15 8/6/6 15/10/10
f 14/16/16 17/4/4 11/11/11
f 16/17/17 18/1/1 12/5/5
f 4/15/15 19/9/9 3/13/13
f 14/16/16 8/6/6 13/18/18
f 16/17/17 17/4/4 5/19/19
f 10/14/14 18/1/1 7/20/20
f 3/13/13 19/9/9 6/12/12
f 4/15/15 13/18/18 8/6/6
f 14/16/16 5/19/19 17/4/4
f 16/17/17 7/20/20 18/1/1
f 4/15/15 15/10/10 19/9/9
f 14/16/16 11/11/11 8/6/6
f 16/17/17 12/5/5 17/4/4
f 10/14/14 6/12/12 18/1/1
