# Blender 4.0.2
# www.blender.org
mtllib outdoorlight.mtl
o Cube
v -4.000000 4.000000 -4.000000
v -4.000000 -0.000000 -4.000000
v -4.000000 4.000000 4.000000
v -4.000000 0.000000 4.000000
v 4.000000 4.000000 -4.000000
v 4.000000 -0.000000 -4.000000
v 4.000000 4.000000 4.000000
v 4.000000 0.000000 4.000000
v 0.000000 4.000000 2.000000
v -2.000000 4.000000 -0.000000
v 0.000000 4.000000 -2.000000
v 2.000000 4.000000 -0.000000
v -2.000000 86.000000 -0.000000
v 2.000000 86.000000 -0.000000
v 0.000000 86.000000 -2.000000
v 0.000000 90.000000 -6.000000
v -3.000000 90.000000 -3.000000
v 3.000000 90.000000 3.000000
v 6.000000 90.000000 0.000000
v 3.000000 90.000000 -3.000000
v 0.000000 86.000000 2.000000
v 0.000000 90.000000 6.000000
v -6.000000 90.000000 0.000000
v 0.000000 96.000000 0.000000
v -3.000000 90.000000 3.000000
vn -0.0000 -0.4622 0.8868
vn -0.4264 0.9045 -0.0000
vn -0.0000 0.9045 0.4264
vn -0.7071 -0.0000 -0.7071
vn 0.5774 0.5774 -0.5774
vn 0.7071 -0.0000 -0.7071
vn -0.7071 -0.0000 0.7071
vn -0.5774 0.5774 -0.5774
vn 0.5774 0.5774 0.5774
vn 0.7071 -0.0000 0.7071
vn -0.0000 -0.4622 -0.8868
vn 0.4264 0.9045 -0.0000
vn -0.0000 0.9045 -0.4264
vn 0.8868 -0.4622 -0.0000
vn -0.8868 -0.4622 -0.0000
vn -0.5774 0.5774 0.5774
vn -0.0000 -0.0000 -1.0000
vn -0.0000 1.0000 -0.0000
vn -1.0000 -0.0000 -0.0000
vn -0.0000 -0.0000 1.0000
vn 1.0000 -0.0000 -0.0000
vt 0.375000 1.000000
vt 0.281250 0.430556
vt 0.375000 0.430556
vt 0.750000 0.347222
vt 0.500000 0.375000
vt 0.500000 0.347222
vt 1.000000 0.347222
vt 0.750000 0.375000
vt 0.250000 0.375000
vt 0.250000 0.347222
vt 0.187500 1.000000
vt 0.093750 0.430556
vt 0.187500 0.430556
vt 0.093750 1.000000
vt 0.000000 0.430556
vt 0.281250 1.000000
vt -0.000000 0.375000
vt 0.125000 0.388889
vt 0.250000 0.430556
vt 0.187500 0.402778
vt 0.125000 0.416667
vt 0.062500 0.402778
vt 0.000000 0.347222
vt 0.390380 0.948136
vt 0.500000 0.948136
vt 0.390380 0.996582
vt 0.500000 0.941163
vt 0.468750 0.906196
vt 0.531250 0.906196
vt 0.603593 0.906196
vt 0.609620 0.941163
vt 0.389765 0.941163
vt 0.397022 0.906196
vt 0.609005 0.996582
vt 0.609005 0.948136
vt 1.000000 0.375000
vt 0.000000 1.000000
s 1
usemtl OUTDRLT1
f 21/1/1 10/2/2 9/3/3
f 2/4/4 5/5/5 6/6/6
f 4/7/7 1/8/8 2/4/4
f 6/6/6 7/9/9 8/10/10
f 15/11/11 12/12/12 11/13/13
f 14/14/14 9/15/3 12/12/12
f 13/16/15 11/13/13 10/2/2
f 3/17/16 7/9/9 9/18/3
f 7/9/9 5/19/5 12/20/12
f 1/15/8 11/21/13 5/19/5
f 1/15/8 3/17/16 10/22/2
f 8/10/10 3/17/16 4/23/7
f 16/24/17 17/25/4 24/26/18
f 17/27/4 15/28/11 13/29/15
f 13/30/15 23/31/19 17/27/4
f 16/32/17 15/33/11 17/27/4
f 24/34/18 17/25/4 23/35/19
f 22/24/20 18/25/10 24/26/18
f 18/27/10 21/28/1 14/29/14
f 14/30/14 19/31/21 18/27/10
f 22/32/20 21/33/1 18/27/10
f 24/34/18 18/25/10 19/35/21
f 19/24/21 20/25/6 24/26/18
f 20/27/6 14/28/14 15/29/11
f 15/30/11 16/31/17 20/27/6
f 19/32/21 14/33/14 20/27/6
f 24/34/18 20/25/6 16/35/17
f 23/24/19 25/25/7 24/26/18
f 25/27/7 13/28/15 21/29/1
f 21/30/1 22/31/20 25/27/7
f 23/32/19 13/33/15 25/27/7
f 24/34/18 25/25/7 22/35/20
f 21/1/1 13/16/15 10/2/2
f 2/4/4 1/8/8 5/5/5
f 4/7/7 3/36/16 1/8/8
f 6/6/6 5/5/5 7/9/9
f 15/11/11 14/14/14 12/12/12
f 14/14/14 21/37/1 9/15/3
f 13/16/15 15/11/11 11/13/13
f 7/9/9 12/20/12 9/18/3
f 9/18/3 10/22/2 3/17/16
f 1/15/8 10/22/2 11/21/13
f 11/21/13 12/20/12 5/19/5
f 8/10/10 7/9/9 3/17/16
