# Blender 4.0.2
# www.blender.org
mtllib outdoorlight.mtl
o Cube
v -4.000000 4.000000 -4.000000
v -4.000000 -0.000000 -4.000000
v -4.000000 4.000000 4.000000
v -4.000000 0.000000 4.000000
v 4.000000 4.000000 -4.000000
v 4.000000 -0.000000 -4.000000
v 4.000000 4.000000 4.000000
v 4.000000 0.000000 4.000000
v 0.000000 4.000000 2.000000
v -2.000000 4.000000 -0.000000
v 0.000000 4.000000 -2.000000
v 2.000000 4.000000 -0.000000
v 0.000000 86.000000 2.000000
v -2.000000 86.000000 -0.000000
v 0.000000 86.000000 -2.000000
v 2.000000 86.000000 -0.000000
v 0.000000 90.000000 6.000000
v -6.000000 90.000000 -0.000000
v 0.000000 90.000000 -6.000000
v 6.000000 90.000000 -0.000000
v 0.000000 96.000000 -0.000000
vn -1.0000 -0.0000 -0.0000
vn -0.0000 -0.0000 1.0000
vn 1.0000 -0.0000 -0.0000
vn -0.0000 -0.0000 -1.0000
vn -0.0000 1.0000 -0.0000
vn -0.7071 -0.0000 0.7071
vn 0.7071 -0.0000 -0.7071
vn 0.7071 -0.0000 0.7071
vn -0.7071 -0.0000 -0.7071
vn 0.5774 -0.5774 0.5774
vn -0.5774 -0.5774 -0.5774
vn 0.5773 -0.5774 -0.5774
vn -0.5774 -0.5773 0.5773
vn 0.5774 0.5773 -0.5773
vn -0.5773 0.5774 0.5774
vn 0.5773 0.5774 0.5774
vn -0.5774 0.5773 -0.5773
vn 0.5774 -0.5773 0.5773
vn -0.5773 -0.5774 -0.5774
vn 0.5774 -0.5774 -0.5774
vn -0.5774 -0.5774 0.5774
vt 0.625000 0.000000
vt 0.375000 0.250000
vt 0.375000 0.000000
vt 0.625000 0.250000
vt 0.375000 0.500000
vt 0.625000 0.500000
vt 0.375000 0.750000
vt 0.625000 0.750000
vt 0.375000 1.000000
vt 0.125000 0.500000
vt 0.256005 0.545320
vt 0.179813 0.622771
vt 0.248155 0.709447
vt 0.323001 0.627921
vt 0.125000 0.750000
vt 0.625000 1.000000
s 0
usemtl PCONCT05
f 2/1/1 3/2/1 1/3/1
f 4/4/2 7/5/2 3/2/2
f 8/6/3 5/7/3 7/5/3
f 6/8/4 1/9/4 5/7/4
f 3/10/5 7/5/5 9/11/5
f 9/11/6 14/12/6 10/12/6
f 11/13/7 16/14/7 12/14/7
f 11/13/5 1/15/5 10/12/5
f 12/14/8 13/11/8 9/11/8
f 10/12/9 15/13/9 11/13/9
f 13/11/10 20/14/10 17/11/10
f 14/12/11 19/13/11 15/13/11
f 16/14/12 19/13/12 20/14/12
f 13/11/13 18/12/13 14/12/13
f 20/14/14 19/13/14 21/14/14
f 18/12/15 17/11/15 21/12/15
f 17/11/16 20/14/16 21/11/16
f 19/13/17 18/12/17 21/13/17
f 2/1/1 4/4/1 3/2/1
f 4/4/2 8/6/2 7/5/2
f 8/6/3 6/8/3 5/7/3
f 6/8/4 2/16/4 1/9/4
f 7/5/5 5/7/5 12/14/5
f 9/11/5 10/12/5 3/10/5
f 7/5/5 12/14/5 9/11/5
f 9/11/6 13/11/6 14/12/6
f 11/13/7 15/13/7 16/14/7
f 11/13/5 12/14/5 5/7/5
f 1/15/5 3/10/5 10/12/5
f 11/13/5 5/7/5 1/15/5
f 12/14/8 16/14/8 13/11/8
f 10/12/9 14/12/9 15/13/9
f 13/11/18 16/14/18 20/14/18
f 14/12/19 18/12/19 19/13/19
f 16/14/20 15/13/20 19/13/20
f 13/11/21 17/11/21 18/12/21
