# Blender 4.0.2
# www.blender.org
mtllib RESMBOX.mtl
o Cube.001
v -10.000001 0.000000 -10.000000
v -9.000001 40.000000 -9.000002
v -9.000001 40.000000 8.999999
v 8.999999 38.000000 -9.000001
v 9.999999 1.000000 10.000000
v 8.999999 40.000000 9.000000
v 8.000000 38.000000 -8.000001
v -10.000001 1.000000 9.999998
v 9.999999 0.000000 -10.000000
v -8.000001 38.000000 -8.000002
v 9.999999 1.000000 -10.000000
v 8.000000 2.000000 8.000000
v -8.000001 38.000000 8.000000
v -8.000001 2.000000 8.000000
v 10.000000 0.000000 10.000000
v -8.000001 2.000000 -8.000002
v 8.999999 2.000000 9.000000
v -10.000000 0.000000 9.999999
v -9.000001 2.000000 -9.000002
v 8.999999 2.000000 -9.000001
v 8.000000 2.000000 -8.000001
v 8.000000 38.000000 8.000000
v -9.000001 2.000000 8.999999
v 8.999999 40.000000 -9.000001
v 8.999999 38.000000 9.000000
v -9.000001 38.000000 8.999999
v -10.000000 1.000000 -10.000001
v -9.000001 38.000000 -9.000002
v 8.000000 23.000000 5.000000
v 8.000000 23.000000 -5.000000
v 8.000000 35.000000 -5.000000
v 8.000000 35.000000 5.000000
v 7.000000 25.000000 3.000001
v 7.000000 33.000000 3.000001
v 7.000000 33.000000 -2.999999
v 7.000000 25.000000 -2.999999
vn 0.3015 -0.9045 0.3015
vn -0.5774 -0.5774 0.5774
vn -0.3015 -0.9045 0.3015
vn 0.6507 0.3914 -0.6507
vn 0.7071 -0.0000 0.7071
vn 0.7071 -0.0000 -0.7071
vn 0.5774 0.5774 -0.5774
vn -0.5774 0.5774 0.5774
vn 0.5774 0.5774 0.5774
vn -0.5774 0.5774 -0.5774
vn -0.5774 -0.5774 -0.5774
vn -0.3002 0.9054 -0.3002
vn -0.6507 0.3914 0.6507
vn -0.3002 0.9054 0.3002
vn -0.7071 -0.0000 -0.7071
vn -0.7071 -0.0000 0.7071
vn 0.3002 0.9054 0.3002
vn 0.6507 0.3914 0.6507
vn 0.5774 -0.5774 -0.5774
vn 0.5774 -0.5774 0.5774
vn 0.3015 0.9045 0.3015
vn -0.3015 0.9045 0.3015
vn -0.3015 0.9045 -0.3015
vn 0.3015 -0.9045 -0.3015
vn 0.3015 0.9045 -0.3015
vn -0.6507 0.3914 -0.6507
vn -0.3015 -0.9045 -0.3015
vn 0.9964 0.0603 -0.0603
vn 0.3002 0.9054 -0.3002
vn 0.9964 -0.0603 0.0603
vn 0.9964 0.0603 0.0603
vn 0.9964 -0.0603 -0.0603
vn 0.9688 -0.1753 0.1753
vn 0.9688 -0.1753 -0.1753
vn 0.9688 0.1753 0.1753
vn 0.9688 0.1753 -0.1753
vt 0.718750 0.000000
vt 0.312500 0.007812
vt 0.328125 0.000000
vt 0.265625 0.031000
vt 0.750000 0.047084
vt 0.265625 0.046666
vt 0.203125 0.375000
vt 0.796875 0.085938
vt 0.796875 0.375000
vt 0.718750 0.007812
vt 0.343750 0.023438
vt 0.343750 0.007812
vt 0.703125 0.015625
vt 0.218750 0.031250
vt 0.250000 0.015625
vt 0.734375 0.046875
vt 0.218750 0.046875
vt 0.718750 0.015919
vt 0.750000 0.031500
vt 0.671875 0.007812
vt 0.296875 0.023438
vt 0.296875 0.007812
vt 0.734375 0.007812
vt 0.312500 0.023438
vt 0.265625 0.023438
vt 0.265625 0.007812
vt 1.000000 0.500000
vt 0.500000 1.000000
vt 0.500000 0.500000
vt 1.000000 1.000000
vt 0.265625 0.031250
vt 0.781250 0.046875
vt 0.265625 0.046875
vt 0.000000 0.500000
vt 0.406250 0.791667
vt 0.656250 0.000000
vt 0.312500 0.000000
vt 0.234375 0.015625
vt 0.703125 0.031250
vt 0.203125 0.031250
vt 0.781250 0.031250
vt 0.296875 0.015625
vt 0.750000 0.015625
vt 0.281250 0.000000
vt 0.703125 0.046875
vt 0.203125 0.046875
vt 0.296875 0.015331
vt 0.687500 0.000000
vt 0.640625 0.000000
vt 0.671875 0.015625
vt 0.671875 0.000000
vt 0.703125 0.000000
vt 0.359375 0.000000
vt 0.093750 0.958333
vt 0.093750 0.791667
vt 0.000000 1.000000
vt 0.406250 0.958333
vt 0.156250 0.930556
vt 0.093750 0.958333
vt 0.343750 0.930556
vt 0.156250 0.819444
vt 0.156250 0.930556
vt 0.343750 0.819445
vt 0.156250 0.819444
vt 0.156250 0.819444
vt 0.343750 0.819445
vt 0.406250 0.791667
vt 0.203125 0.085938
vt 0.718750 0.023438
vt 0.734375 0.031250
vt 0.671875 0.023438
vt 0.734375 0.023438
vt 0.093750 0.791667
vt 0.406250 0.958333
vt 0.328125 -0.000284
vt 0.265625 0.000000
vt 0.406250 0.958333
vt 0.343750 0.930556
vt 0.343750 0.819445
vt 0.156250 0.930556
vt 0.343750 0.930556
s 1
usemtl MBOXBRK1
f 22/1/1 26/2/2 13/3/3
f 11/4/4 15/5/5 9/6/6
f 24/7/7 3/8/8 6/9/9
f 26/10/2 2/11/10 28/12/11
f 19/13/12 8/14/13 23/15/14
f 8/14/13 1/16/15 18/17/16
f 11/4/4 17/18/17 5/19/18
f 28/20/11 24/21/7 4/22/19
f 25/23/20 3/24/8 26/2/2
f 4/20/19 6/25/9 25/26/20
f 12/27/21 13/28/3 14/29/22
f 16/29/23 7/30/24 21/27/25
f 27/31/26 9/32/6 1/33/15
f 14/27/22 10/28/27 16/29/23
f 12/29/21 21/34/25 29/35/28
f 10/36/27 4/22/19 7/37/24
f 17/38/17 8/39/13 5/40/18
f 11/41/4 19/42/12 20/43/29
f 7/36/24 25/26/20 22/44/1
f 5/40/18 18/45/16 15/46/5
f 20/47/29 12/48/21 17/18/17
f 17/38/17 14/49/22 23/50/14
f 23/15/14 16/51/23 19/13/12
f 19/42/12 21/1/25 20/43/29
f 13/52/3 28/12/11 10/53/27
f 31/54/30 30/55/31 7/56/24
f 32/57/32 35/58/33 31/59/30
f 34/60/34 36/61/35 35/62/33
f 33/63/36 30/55/31 36/64/35
f 31/59/30 36/65/35 30/55/31
f 33/66/36 32/57/32 29/67/28
f 22/1/1 25/23/20 26/2/2
f 11/4/4 5/19/18 15/5/5
f 24/7/7 2/68/10 3/8/8
f 26/10/2 3/69/8 2/11/10
f 19/13/12 27/70/26 8/14/13
f 8/14/13 27/70/26 1/16/15
f 11/4/4 20/47/29 17/18/17
f 28/20/11 2/71/10 24/21/7
f 25/23/20 6/72/9 3/24/8
f 4/20/19 24/71/7 6/25/9
f 12/27/21 22/30/1 13/28/3
f 16/29/23 10/28/27 7/30/24
f 27/31/26 11/41/4 9/32/6
f 14/27/22 13/30/3 10/28/27
f 21/34/25 7/56/24 30/73/31
f 29/35/28 32/74/32 22/28/1
f 21/34/25 30/73/31 29/35/28
f 29/35/28 22/28/1 12/29/21
f 10/36/27 28/20/11 4/22/19
f 17/38/17 23/50/14 8/39/13
f 11/41/4 27/31/26 19/42/12
f 7/36/24 4/20/19 25/26/20
f 5/40/18 8/39/13 18/45/16
f 20/47/29 21/75/25 12/48/21
f 17/38/17 12/76/21 14/49/22
f 23/15/14 14/44/22 16/51/23
f 19/42/12 16/3/23 21/1/25
f 13/52/3 26/10/2 28/12/11
f 7/56/24 22/28/1 31/54/30
f 22/28/1 32/77/32 31/54/30
f 32/57/32 34/78/34 35/58/33
f 34/60/34 33/79/36 36/61/35
f 33/63/36 29/67/28 30/55/31
f 31/59/30 35/80/33 36/65/35
f 33/66/36 34/81/34 32/57/32
