# Blender 4.0.2
# www.blender.org
mtllib sinkbroke.mtl
o brokenass
v -16.000000 14.200000 -22.100000
v -0.199479 0.000000 -22.100000
v -16.000000 0.000000 20.500000
v -16.000000 14.200000 20.500000
v -16.000000 0.000000 -22.100000
v -8.900001 14.200000 -8.800000
v -8.900001 5.300000 -8.800000
v -8.900001 14.200000 7.200000
v -3.260291 6.824268 20.500000
v -4.509014 14.200000 14.069771
v -1.446037 7.514886 -22.100000
v -8.900001 5.300000 7.200000
v -14.200000 14.200000 8.900001
v -10.700000 14.200000 8.900001
v -10.700000 17.800001 8.900001
v -14.200000 14.200000 5.400000
v -14.200000 17.800001 8.900001
v -12.500000 19.500000 -1.700000
v 1.700000 19.500000 -1.700000
v 1.700000 16.000000 -1.700000
v -10.820766 14.404835 -5.545757
v -11.580260 18.439812 -8.435762
v -14.241990 13.676005 -5.664238
v -15.001484 17.149384 -5.099593
v -15.001484 17.710985 -8.554243
v -14.241990 14.237606 -9.118888
v -11.580260 17.878212 -4.981112
v -10.820766 14.966435 -9.000406
v -14.200000 17.800001 1.800000
v -14.200000 14.200000 -1.700000
v -12.500000 17.800001 -1.700000
v -14.200000 17.800001 5.400000
v -10.700000 17.800001 5.400000
v -10.700000 14.200000 5.400000
v 1.700000 19.500000 1.800000
v -12.500000 19.500000 1.800000
v -10.700000 16.000000 1.800000
v 1.700000 16.000000 1.800000
v -12.500000 17.799999 1.800000
v -10.700000 16.000000 -1.700000
v -14.200000 17.799999 -1.700000
v -14.200000 14.200002 1.800000
v -10.700000 14.200000 1.800000
v -10.700000 14.200000 -1.700000
v -5.593821 14.200000 -22.100000
v -7.093806 7.389634 10.025822
v -4.264132 14.200000 20.500000
v -3.423917 14.200000 -17.367420
v -6.408666 5.300000 11.097733
v -3.598305 5.300000 -17.094587
v -6.180284 0.000000 20.500000
v -4.078082 11.423899 -16.343969
v -4.880665 0.000000 17.466057
v -2.052866 5.300000 3.758648
v 0.895655 0.000000 -9.586430
v -4.685799 5.300000 -7.642464
v -1.902458 3.688745 -22.100000
v -2.293147 0.000000 -16.585405
v -6.800592 0.000000 -0.303675
v -6.693402 0.000000 9.334151
vn 0.6054 0.7760 0.1769
vn -0.5774 0.5774 -0.5774
vn -0.5774 0.5774 0.5774
vn 0.5668 -0.8217 0.0601
vn 0.7005 -0.7134 -0.0195
vn -0.5774 -0.5774 0.5774
vn 0.7592 -0.6457 0.0812
vn 0.9541 -0.2962 0.0443
vn 0.4353 -0.9000 0.0214
vn -0.5774 -0.5774 -0.5774
vn 0.7942 -0.4196 -0.4394
vn 0.5774 0.5774 -0.5774
vn 0.8536 0.5202 -0.0260
vn -0.7071 -0.0000 -0.7071
vn 0.3015 -0.3015 -0.9045
vn 0.3672 0.6753 -0.6397
vn 0.8436 0.1140 -0.5247
vn 0.9277 0.1799 0.3271
vn 0.9399 0.0562 0.3367
vn 0.5774 0.5774 0.5774
vn 0.5774 -0.5774 0.5774
vn 0.7071 -0.0000 0.7071
vn 0.7071 -0.0000 -0.7071
vn -0.5774 0.5774 0.5773
vn -0.3015 0.3015 0.9045
vn 0.7418 0.1263 -0.6587
vn 0.6862 -0.5295 0.4989
vn 0.4426 0.5846 0.6800
vn -0.6862 0.3442 0.6409
vn 0.5013 0.8590 0.1037
vn -0.4426 -0.5846 -0.6800
vn -0.6862 0.5295 -0.4989
vn 0.4426 0.7699 -0.4598
vn 0.7302 0.6491 -0.2134
vn 0.7302 0.6491 0.2134
vn -0.7071 -0.0000 0.7071
vn 0.5774 -0.5774 -0.5774
vn -0.3015 0.3015 -0.9045
vn 0.9165 0.3952 0.0618
vn 0.6054 0.7760 -0.1769
vn 0.7169 0.6511 -0.2492
vn 0.5452 0.6097 0.5753
vn 0.8062 -0.0698 0.5875
vn 0.8426 -0.0000 -0.5386
vn 0.9717 0.1129 -0.2075
vn 0.3247 -0.6688 0.6688
vn 0.3015 -0.3015 0.9045
vn -0.4426 -0.7699 0.4598
vn 0.6862 -0.3442 -0.6409
vt 0.125494 0.515719
vt 0.000280 0.751253
vt 0.000280 -0.003164
vt 0.164105 0.553418
vt 0.196070 0.696586
vt 0.000000 0.750000
vt 0.241696 0.097088
vt 0.297925 0.220309
vt 0.162215 0.383738
vt 0.000000 0.000000
vt 0.278614 0.000000
vt 0.250000 1.062500
vt 0.000000 1.062500
vt 0.000000 1.000000
vt 0.222070 0.667443
vt 0.278753 0.967858
vt 0.278753 1.032143
vt 0.217392 1.000000
vt 0.379005 0.250000
vt 0.305867 0.132304
vt 0.562500 0.000000
vt 0.062500 1.000000
vt 0.062500 1.062500
vt 2.055746 0.168481
vt 2.545004 0.384977
vt 1.982376 0.767067
vt 0.062782 1.031250
vt 0.029892 1.000282
vt 2.005975 -0.349571
vt 2.545004 0.010988
vt 0.281250 0.281250
vt 0.281250 0.343750
vt 0.218750 0.343750
vt 1.131840 0.168481
vt 0.218750 0.718750
vt 0.218750 0.781250
vt 0.156250 0.781250
vt 0.000000 0.187500
vt 0.280334 0.031250
vt 0.000000 0.031250
vt 0.032608 1.000000
vt 0.250000 1.000000
vt 0.414504 -0.349571
vt 1.321855 -0.349571
vt 0.000000 1.031250
vt 0.062500 1.031250
vt 0.017429 0.168481
vt -0.527553 -0.349571
vt 0.125495 0.232370
vt 0.183802 0.751254
vt 0.202933 0.110711
vt 0.045423 0.138762
vt 0.023861 0.187500
vt 0.204359 0.187500
vt 0.843750 0.406250
vt 0.781250 0.406250
vt 0.781250 0.343750
vt 0.313202 0.043761
vt 0.229192 0.149248
vt 0.356162 0.311193
vt 0.562500 0.250000
vt -1.618967 1.038419
vt -1.618967 0.317472
vt -0.990439 1.038419
vt 0.059534 0.067936
vt -0.699935 0.168481
vt -0.595160 0.372734
vt 0.173153 0.750000
vt 0.207252 -0.003164
vt 0.283886 0.000000
vt 0.313915 0.064943
vt 2.545004 1.038419
vt 2.082414 1.038419
vt -1.322412 -0.349571
vt 0.248949 1.062500
vt 0.082117 0.031250
vt 0.144732 0.187500
vt 0.032608 1.062500
vt 2.545004 -0.349571
vt 0.281250 0.281250
vt 0.218750 0.281250
vt 0.243885 -0.000266
vt 0.218750 0.718750
vt 0.156250 0.781250
vt 0.156250 0.718750
vt 0.431970 0.297693
vt 0.843750 0.343750
vt 0.409327 0.470970
vt 0.204359 0.031250
vt 0.029609 0.031250
vt 0.406250 0.593750
vt 0.343750 0.656250
vt 0.343750 0.593750
vt 0.029892 1.062782
vt 0.280334 0.187500
vt 0.217392 0.967857
vt 0.548239 0.684343
vt 1.093802 0.874358
vt 0.782110 1.558478
vt 0.562500 0.500000
vt 0.500000 0.562500
vt 0.500000 0.500000
vt 0.173153 0.000000
vt 0.224642 0.120146
vt 0.406250 0.593750
vt 0.406250 0.656250
vt 0.343750 0.656250
vt 0.000282 1.031250
vt -0.028753 0.967856
vt -0.028753 1.032142
vt 0.001051 1.062500
vt 0.001051 1.032143
vt 0.248949 1.032143
vt 0.750000 0.250000
vt 0.000000 0.250000
vt 0.562500 0.562500
vt 0.206941 0.250000
vt -1.618967 -0.349571
vt 0.032608 0.967857
vt 0.750000 0.000000
vt 0.562500 0.156250
vt 0.625000 0.093750
vt 0.625000 0.156250
vt 0.562500 0.093750
s 1
usemtl PBLAND01
f 6/1/1 1/2/2 4/3/3
f 60/4/4 53/5/5 3/6/6
f 58/7/7 55/8/8 59/9/9
f 5/10/10 2/11/11 58/7/7
f 6/1/1 48/15/13 1/2/2
f 59/9/9 60/4/4 3/6/6
f 45/19/16 11/20/17 5/21/10
f 4/3/3 8/49/40 6/1/1
f 5/10/10 58/7/7 59/9/9
f 48/15/13 45/50/16 1/2/2
f 4/3/3 10/51/41 8/49/40
f 5/21/10 1/61/2 45/19/16
f 53/5/5 51/68/46 3/6/6
f 5/10/10 59/9/9 3/6/6
f 4/3/3 47/69/42 10/51/41
f 2/70/11 5/21/10 57/71/26
f 57/71/26 5/21/10 11/20/17
f 3/10/6 51/103/46 9/104/43
f 5/10/10 4/114/3 1/115/2
f 47/117/42 4/115/3 9/104/43
f 4/115/3 3/10/6 9/104/43
f 5/10/10 3/120/6 4/114/3
usemtl PBLAND02
f 6/38/1 12/39/34 7/40/35
f 52/52/19 48/53/13 6/54/1
f 46/65/44 12/40/34 8/38/40
f 46/65/44 49/76/45 12/40/34
f 8/38/40 10/77/41 46/65/44
f 7/89/35 50/90/18 52/52/19
f 6/38/1 8/95/40 12/39/34
f 6/54/1 7/89/35 52/52/19
usemtl GREY128
f 19/12/12 18/13/2 36/14/3
f 30/16/14 41/17/2 40/18/15
f 16/22/14 32/23/2 33/13/12
f 50/24/18 11/25/17 52/26/19
f 19/23/12 35/13/20 38/14/21
f 40/27/15 43/14/22 44/22/23
f 41/13/2 29/14/24 39/28/25
f 58/29/7 57/30/26 50/24/18
f 21/31/27 27/32/28 24/33/29
f 56/34/30 58/29/7 50/24/18
f 26/35/31 25/36/32 22/37/33
f 15/23/20 17/13/3 13/14/36
f 38/12/21 40/41/15 20/42/37
f 33/23/12 15/13/20 14/14/22
f 56/34/30 59/43/9 55/44/8
f 36/23/3 18/13/2 31/45/38
f 36/23/3 31/45/38 39/46/25
f 56/34/30 54/47/39 59/43/9
f 60/48/4 59/43/9 54/47/39
f 42/22/36 29/23/24 41/13/2
f 22/55/33 25/56/32 24/57/29
f 47/62/42 9/63/43 10/64/41
f 10/64/41 49/66/45 46/67/44
f 52/26/19 45/72/16 48/73/13
f 60/48/4 49/66/45 53/74/5
f 19/13/12 40/18/15 18/75/2
f 17/23/3 16/14/14 13/22/36
f 52/26/19 11/25/17 45/72/16
f 32/13/2 15/22/20 33/23/12
f 10/64/41 9/63/43 49/66/45
f 33/23/12 14/14/22 34/22/23
f 19/23/12 38/14/21 20/22/37
f 42/22/36 41/13/2 30/14/14
f 38/12/21 37/78/47 40/41/15
f 15/23/20 13/14/36 14/22/22
f 60/48/4 54/47/39 49/66/45
f 58/29/7 2/79/11 57/30/26
f 21/80/27 24/33/29 23/81/48
f 26/83/31 22/84/33 28/85/49
f 22/55/33 24/57/29 27/87/28
f 19/12/12 36/14/3 35/42/20
f 19/13/12 20/14/37 40/18/15
f 16/22/14 33/13/12 34/14/23
f 23/91/48 25/92/32 26/93/31
f 17/23/3 32/13/2 16/14/14
f 41/13/2 39/28/25 31/94/38
f 30/16/14 40/18/15 44/96/23
f 56/97/30 55/98/8 58/99/7
f 28/100/49 27/101/28 21/102/27
f 32/13/2 17/14/3 15/22/20
f 23/105/48 24/106/29 25/107/32
f 35/12/20 37/41/47 38/42/21
f 40/27/15 37/108/47 43/14/22
f 9/63/43 53/74/5 49/66/45
f 42/109/36 37/41/47 29/110/24
f 50/24/18 57/30/26 11/25/17
f 37/41/47 36/111/3 39/112/25
f 18/75/2 40/18/15 31/113/38
f 37/41/47 39/112/25 29/110/24
f 31/113/38 40/18/15 41/17/2
f 28/100/49 22/116/33 27/101/28
f 35/12/20 36/111/3 37/41/47
f 9/63/43 51/118/46 53/74/5
f 42/109/36 43/119/22 37/41/47
f 21/121/27 26/122/31 28/123/49
f 21/121/27 23/124/48 26/122/31
usemtl PBLAND03
f 12/58/34 54/59/39 56/60/30
f 12/58/34 49/82/45 54/59/39
f 7/86/35 12/58/34 56/60/30
f 50/88/18 7/86/35 56/60/30
