# Blender 4.0.2
# www.blender.org
mtllib spout.mtl
o spout
v 8.000000 3.136932 -4.569329
v 7.999999 -55.179619 105.084473
v 5.656855 -1.549914 -7.736897
v 5.656855 -59.866467 101.916908
v -0.000000 -3.491268 -9.048948
v -0.000001 -61.807819 100.604858
v -5.656853 -1.549913 -7.736898
v -5.656854 -59.866467 101.916908
v -8.000001 3.136933 -4.569330
v -8.000000 -55.179619 105.084473
v -5.656853 7.823777 -1.401761
v -5.656854 -50.492771 108.252045
v 0.000001 9.765133 -0.089713
v 0.000000 -48.551422 109.564095
v 5.656855 7.823776 -1.401763
v 5.656854 -50.492771 108.252045
v 7.999999 -61.822285 108.604843
v 8.000000 -79.528717 108.474762
v 5.656856 -61.812061 102.947998
v 5.656855 -79.518494 102.817917
v -0.000001 -79.514267 100.474785
v -5.656853 -61.812061 102.947998
v -5.656854 -79.518494 102.817917
v -8.000000 -61.822285 108.604843
v -8.000000 -79.528717 108.474762
v -5.656853 -61.832500 114.261688
v -5.656854 -79.538940 114.131615
v 0.000001 -61.836735 116.604836
v 0.000000 -79.543167 116.474754
v 5.656856 -61.832500 114.261688
v 5.656855 -79.538940 114.131615
vn 0.9970 0.0425 0.0646
vn 0.6925 -0.6370 -0.3388
vn 0.9997 -0.0228 -0.0121
vn 0.7392 -0.4722 -0.4802
vn -0.0000 -0.8829 -0.4696
vn -0.7392 -0.4722 -0.4802
vn -0.6925 -0.6370 -0.3388
vn -0.9970 0.0425 0.0646
vn -0.9997 -0.0228 -0.0121
vn -0.6685 0.5230 0.5288
vn -0.7182 0.6143 0.3267
vn -0.0000 0.8829 0.4696
vn -0.0000 0.7153 0.6988
vn 0.7182 0.6143 0.3267
vn 0.6685 0.5230 0.5288
vn 1.0000 -0.0000 -0.0013
vn 0.7297 -0.1669 -0.6631
vn 0.9978 0.0310 0.0592
vn 0.7064 0.0052 -0.7078
vn -0.0000 -0.5124 -0.8587
vn -0.7064 0.0052 -0.7078
vn -0.7297 -0.1669 -0.6631
vn -1.0000 -0.0000 -0.0013
vn -0.9978 0.0310 0.0592
vn -0.7078 -0.0052 0.7064
vn -0.6713 0.1792 0.7192
vn -0.0000 -0.0073 1.0000
vn -0.0000 0.2249 0.9744
vn 0.6713 0.1792 0.7192
vn 0.7078 -0.0052 0.7064
vn -0.0000 0.0073 -1.0000
vt 0.641443 0.937449
vt -0.093667 -0.609011
vt -0.157910 -0.565592
vt 0.666662 0.894031
vt 0.589122 -0.626995
vt 0.666662 -0.609011
vt 0.511583 0.894031
vt 0.511583 -0.609011
vt 0.577200 0.980867
vt -0.222154 -0.522174
vt 0.511583 0.980867
vt 0.589122 -0.504190
vt 0.511583 -0.522174
vt 0.589123 0.998852
vt 0.666662 -0.522174
vt 0.975200 0.983920
vt 0.732355 0.908164
vt 0.732496 0.985703
vt 0.975060 0.781154
vt 0.732297 0.703615
vt 0.732355 0.781154
vt 0.975060 0.626076
vt 0.732355 0.626076
vt 0.975340 1.061459
vt 0.732636 1.063242
vt 0.732636 0.626076
vt 0.975398 0.703615
vt 0.732694 0.703615
vt 0.705687 0.894031
vt 0.732636 0.781154
vt 0.705687 0.781154
vt 0.705687 0.626076
vt 0.550590 0.703615
vt 0.577200 0.626076
vt 0.577200 0.781154
vt 0.589123 0.876046
vt 0.666662 0.980867
vt 0.975060 0.906381
vt 0.975002 0.703615
vt 0.975340 0.626076
vt 0.975340 0.781154
s 1
usemtl RUST01
f 2/1/1 3/2/2 1/3/3
f 4/4/4 5/5/5 3/6/2
f 5/5/5 8/7/6 7/8/7
f 7/2/7 10/1/8 9/3/9
f 9/3/9 12/9/10 11/10/11
f 12/11/10 13/12/12 11/13/11
f 14/14/13 15/15/14 13/12/12
f 16/9/15 1/3/3 15/10/14
f 18/16/16 19/17/17 17/18/18
f 20/19/19 6/20/20 19/21/17
f 6/20/20 23/22/21 22/23/22
f 22/17/22 25/16/23 24/18/24
f 24/18/24 27/24/25 26/25/26
f 26/26/26 29/27/27 28/28/28
f 2/1/1 4/29/4 3/2/2
f 29/27/27 30/30/29 28/28/28
f 31/24/30 17/18/18 30/25/29
f 17/18/18 4/29/4 2/1/1
f 4/31/4 19/21/17 6/20/20
f 6/20/20 22/23/22 8/32/6
f 8/29/6 24/18/24 10/1/8
f 10/1/8 26/25/26 12/9/10
f 26/26/26 14/33/13 12/34/10
f 14/33/13 30/30/29 16/35/15
f 30/25/29 2/1/1 16/9/15
f 4/4/4 6/36/20 5/5/5
f 5/5/5 6/36/20 8/7/6
f 7/2/7 8/29/6 10/1/8
f 9/3/9 10/1/8 12/9/10
f 12/11/10 14/14/13 13/12/12
f 14/14/13 16/37/15 15/15/14
f 16/9/15 2/1/1 1/3/3
f 18/16/16 20/38/19 19/17/17
f 20/19/19 21/39/31 6/20/20
f 6/20/20 21/39/31 23/22/21
f 22/17/22 23/38/21 25/16/23
f 24/18/24 25/16/23 27/24/25
f 26/26/26 27/40/25 29/27/27
f 29/27/27 31/41/30 30/30/29
f 31/24/30 18/16/16 17/18/18
f 17/18/18 19/17/17 4/29/4
f 8/29/6 22/17/22 24/18/24
f 10/1/8 24/18/24 26/25/26
f 26/26/26 28/28/28 14/33/13
f 14/33/13 28/28/28 30/30/29
f 30/25/29 17/18/18 2/1/1
