# Blender 4.0.2
# www.blender.org
mtllib trashbag1.mtl
o trash
v -3.727254 5.559175 10.821993
v -3.759545 11.106652 10.016813
v 1.657815 5.239577 11.292231
v 1.379448 10.615644 10.625288
v -3.804260 1.408147 12.134480
v 1.872408 1.336703 12.610769
v -3.720017 0.030335 11.757030
v 1.831263 -0.000034 12.212749
v -3.689572 14.362048 10.547819
v 1.440917 13.799496 11.335964
v -2.889459 17.131794 8.797362
v 1.270542 16.592823 9.708736
v -2.193022 18.129215 6.084569
v 0.982015 17.945911 6.919634
v -0.373477 18.179146 2.423002
v 0.428161 18.202831 2.390652
v -1.261858 20.663322 3.846147
v 0.721951 20.791306 4.087368
v -0.085291 18.533012 -0.102682
v 9.259789 4.694958 7.968905
v 8.687996 9.218794 7.873672
v 9.904564 1.134400 8.846543
v 9.519278 -0.141064 8.567542
v 8.905924 11.922235 8.700317
v 7.393674 14.801898 7.660571
v 5.184544 16.937872 5.466187
v 1.907828 18.057463 1.786770
v 3.131915 20.533255 3.080352
v 12.619312 4.605115 2.928145
v 11.890482 9.259190 3.042895
v 13.524546 1.035909 3.299205
v 12.978390 -0.231012 3.211504
v 12.175812 12.171870 3.508846
v 10.105177 15.026789 3.263946
v 7.124956 16.829754 2.417888
v 2.563362 17.775826 0.678698
v 4.179004 20.249268 1.220449
v 11.968424 4.588640 -3.325732
v 11.746424 8.970203 -2.885636
v 12.837732 0.953235 -3.725579
v 12.363268 -0.395814 -3.592543
v 12.233723 12.012172 -2.935645
v 10.223704 15.076165 -2.479542
v 7.184664 16.468559 -1.894619
v 2.539731 17.390987 -0.818452
v 4.161699 19.790319 -1.321339
v 7.388023 4.647258 -8.676336
v 7.449213 9.203550 -8.157093
v 7.958948 0.862609 -9.645983
v 7.700887 -0.545025 -9.333700
v 7.936055 12.009107 -8.721012
v 6.745047 14.317873 -7.611303
v 4.772871 15.623596 -5.654733
v 1.659828 16.954025 -2.117103
v 2.765588 19.119827 -3.442119
v 2.787091 4.642221 -10.721272
v 2.857789 8.691933 -10.448395
v 2.766074 0.970945 -11.926121
v 2.757613 -0.407408 -11.515575
v 2.953373 11.567132 -11.202898
v 2.991179 14.307394 -9.465725
v 2.063129 15.438351 -6.841784
v 0.202611 16.600885 -2.694481
v 1.108353 18.859829 -4.201141
v -3.316103 18.881393 -2.889552
v -2.072261 16.622589 -1.814537
v -5.463521 15.708301 -4.762957
v -7.530098 14.401580 -6.656694
v -8.713663 11.698174 -7.984781
v -8.687202 -0.005475 -8.565248
v -8.996641 1.288446 -8.863262
v -8.152863 9.036341 -7.584955
v -8.267204 4.922762 -8.011044
v -0.794052 18.796249 -4.183313
v -0.611064 16.525311 -2.574683
v -1.100767 15.568564 -7.073773
v -1.369686 14.419652 -9.923223
v -1.723106 11.166100 -11.994675
v -1.626878 -0.186214 -12.039505
v -1.680336 1.144452 -12.454941
v -1.619017 8.409773 -11.222500
v -1.572734 4.629183 -11.344570
v -11.713690 5.578468 -3.075598
v -11.381357 9.466387 -2.796502
v -12.669035 1.671461 -3.444104
v -12.204643 0.191105 -3.336492
v -11.953169 11.936967 -2.876297
v -10.150948 14.418097 -2.395454
v -7.231874 16.003418 -1.728975
v -2.697291 16.947466 -0.728948
v -4.324565 19.149050 -1.083137
v -12.125523 6.099662 3.317065
v -11.344645 10.346856 3.144055
v -13.148455 2.123983 3.757586
v -12.623051 0.530820 3.627784
v -11.616995 13.058697 3.358911
v -9.757019 15.459968 2.785084
v -7.025588 16.751034 1.916172
v -2.650467 17.424175 0.608883
v -4.215658 19.626709 1.154143
v -7.977186 5.920619 8.846462
v -7.388415 11.220005 8.148490
v -8.472878 1.548974 9.930948
v -8.109827 0.071855 9.624098
v -7.564889 14.254189 8.539400
v -6.401760 16.763794 7.115697
v -4.642741 17.774214 5.011304
v -1.791514 17.907501 1.775609
v -2.779968 20.256275 3.071502
vn 0.1059 -0.0536 0.9929
vn -0.2452 0.2142 0.9455
vn 0.1658 0.2242 0.9603
vn -0.2550 0.0131 0.9669
vn 0.1746 0.0178 0.9845
vn -0.2581 -0.2710 0.9273
vn 0.1743 -0.2859 0.9423
vn -0.2995 -0.0085 0.9541
vn 0.1263 0.1643 0.9783
vn -0.3017 0.2289 0.9255
vn 0.1730 0.7139 0.6786
vn -0.1968 0.7855 0.5868
vn 0.1532 0.9545 0.2559
vn -0.1019 0.9829 0.1533
vn -0.1919 0.4932 0.8485
vn 0.1316 0.6326 0.7632
vn -0.3162 0.6428 0.6977
vn -0.0573 0.9774 -0.2035
vn 0.6055 -0.3384 0.7203
vn 0.6595 -0.0266 0.7513
vn 0.5858 0.5530 0.5925
vn 0.6452 0.2018 0.7369
vn 0.2115 0.4589 0.8630
vn 0.6521 0.4351 0.6209
vn 0.3593 0.8980 0.2540
vn 0.5118 0.6597 0.5503
vn 0.6264 0.0999 0.7731
vn 0.6311 -0.0708 0.7725
vn 0.8206 0.5479 0.1626
vn 0.3894 0.9183 0.0718
vn 0.8904 -0.3941 0.2276
vn 0.9683 -0.0671 0.2407
vn 0.8916 0.4328 0.1332
vn 0.9307 0.2238 0.2893
vn 0.9608 -0.0048 0.2772
vn 0.6505 0.7292 0.2124
vn 0.9523 0.1964 0.2338
vn 0.2928 0.9356 -0.1973
vn 0.8230 0.3930 -0.4101
vn 0.9309 0.2029 -0.3038
vn 0.9379 -0.0299 -0.3456
vn 0.7978 0.5082 -0.3246
vn 0.6261 0.7464 -0.2257
vn 0.9237 -0.0436 -0.3806
vn 0.9049 0.1701 -0.3901
vn 0.6238 0.1713 -0.7626
vn 0.4055 0.7330 -0.5461
vn 0.5920 0.1795 -0.7857
vn 0.5504 0.4015 -0.7320
vn 0.1512 0.9284 -0.3394
vn 0.8686 -0.3381 -0.3623
vn 0.6038 -0.0003 -0.7972
vn 0.5259 0.3695 -0.7661
vn 0.6240 -0.0942 -0.7757
vn 0.2533 -0.2776 -0.9267
vn 0.2570 0.0074 -0.9664
vn 0.0632 0.9418 -0.3303
vn 0.0420 0.4097 -0.9113
vn 0.2891 0.1417 -0.9468
vn 0.3162 -0.0914 -0.9443
vn 0.1936 0.4045 -0.8938
vn 0.1889 0.7398 -0.6457
vn 0.2778 0.1787 -0.9439
vn -0.6372 0.1914 -0.7465
vn -0.9452 -0.0231 -0.3258
vn -0.9235 0.1779 -0.3400
vn -0.4545 0.7341 -0.5044
vn -0.9467 0.1786 -0.2679
vn -0.6413 0.7320 -0.2301
vn -0.6320 0.4011 -0.6631
vn -0.8456 0.4251 -0.3228
vn -0.8746 0.4203 -0.2417
vn -0.6777 -0.0776 -0.7313
vn -0.9555 -0.0532 -0.2902
vn -0.6769 0.1607 -0.7183
vn -0.1930 0.9374 -0.2899
vn -0.5279 0.4581 -0.7152
vn -0.6571 -0.0126 -0.7537
vn -0.9026 -0.3066 -0.3022
vn -0.3164 0.9273 -0.1997
vn -0.1660 -0.1080 -0.9802
vn -0.1721 0.1212 -0.9776
vn -0.1162 0.7470 -0.6546
vn -0.0475 0.9489 -0.3120
vn -0.3022 0.4289 -0.8513
vn -0.2196 0.4285 -0.8764
vn -0.1558 0.1765 -0.9719
vn -0.1657 0.0038 -0.9862
vn -0.6236 -0.3133 -0.7163
vn -0.1664 -0.2991 -0.9396
vn -0.3425 0.9334 -0.1069
vn -0.9042 0.4105 0.1182
vn -0.9411 0.0233 0.3372
vn -0.9171 0.2567 0.3051
vn -0.9357 0.2185 0.2771
vn -0.8531 0.4665 0.2336
vn -0.6411 0.7623 0.0888
vn -0.9581 -0.0166 0.2858
vn -0.9064 -0.3210 0.2747
vn -0.6399 0.2548 0.7250
vn -0.4813 0.7780 0.4039
vn -0.6131 0.2109 0.7613
vn -0.6134 0.5513 0.5656
vn -0.2710 0.9615 0.0448
vn -0.6287 -0.0241 0.7773
vn -0.6629 0.4566 0.5934
vn -0.6375 0.0097 0.7704
vn -0.6020 -0.2998 0.7400
vn 0.5817 -0.2764 -0.7650
vt 0.156250 0.359375
vt -0.000000 0.234375
vt 0.156250 0.234375
vt -0.000000 0.093750
vt 0.156250 0.093750
vt -0.000000 0.000000
vt 0.156250 0.000000
vt -0.000000 0.359375
vt 0.156250 0.453125
vt -0.000000 0.453125
vt 0.156250 0.593750
vt -0.000000 0.593750
vt 0.156250 0.718750
vt -0.000000 0.718750
vt -0.000000 0.843750
vt 0.156250 0.906250
vt -0.000000 0.906250
vt -0.000000 1.000000
vt 0.296875 0.000000
vt 0.296875 0.093750
vt 0.156250 1.000000
vt 0.296875 0.906250
vt 0.296875 0.234375
vt 0.156250 0.843750
vt 0.296875 0.843750
vt 0.296875 0.718750
vt 0.296875 0.593750
vt 0.296875 0.453125
vt 0.296875 0.359375
vt 0.296875 1.000000
vt 0.468750 0.906250
vt 0.468750 0.718750
vt 0.468750 0.000000
vt 0.468750 0.093750
vt 0.468750 0.843750
vt 0.468750 0.453125
vt 0.468750 0.359375
vt 0.468750 0.593750
vt 0.468750 0.234375
vt 0.656250 0.718750
vt 0.656250 0.843750
vt 0.656250 0.453125
vt 0.656250 0.359375
vt 0.656250 0.906250
vt 0.656250 0.593750
vt 0.656250 0.093750
vt 0.656250 0.234375
vt 0.468750 1.000000
vt 0.828125 0.453125
vt 0.828125 0.593750
vt 0.828125 0.234375
vt 0.656250 1.000000
vt 0.828125 0.906250
vt 0.828125 0.718750
vt 0.656250 0.000000
vt 0.828125 0.093750
vt 0.828125 0.843750
vt 0.828125 0.359375
vt 1.000000 0.000000
vt 1.000000 0.093750
vt 1.000000 0.718750
vt 1.000000 0.843750
vt 1.000000 0.453125
vt 1.000000 0.359375
vt 1.000000 0.906250
vt 1.000000 0.593750
vt 1.000000 0.234375
vt 0.828125 1.000000
vt 0.828125 0.000000
s 1
usemtl TRASHBG
f 4/1/1 1/2/2 3/3/3
f 3/3/3 5/4/4 6/5/5
f 6/5/5 7/6/6 8/7/7
f 2/8/8 10/9/9 9/10/10
f 9/10/10 12/11/11 11/12/12
f 11/12/12 14/13/13 13/14/14
f 14/13/13 15/15/15 13/14/14
f 15/15/15 18/16/16 17/17/17
f 17/17/17 18/16/16 19/18/18
f 6/5/5 23/19/19 22/20/20
f 19/21/18 18/16/16 28/22/21
f 6/5/5 20/23/22 3/3/3
f 16/24/23 28/22/21 18/16/16
f 14/13/13 27/25/24 16/24/23
f 12/11/11 26/26/25 14/13/13
f 10/9/9 25/27/26 12/11/11
f 4/1/1 24/28/27 10/9/9
f 3/3/3 21/29/28 4/1/1
f 19/30/18 28/22/21 37/31/29
f 25/27/26 35/32/30 26/26/25
f 22/20/20 32/33/31 31/34/32
f 27/25/24 35/32/30 36/35/33
f 21/29/28 33/36/34 24/28/27
f 20/23/22 30/37/35 21/29/28
f 27/25/24 37/31/29 28/22/21
f 24/28/27 34/38/36 25/27/26
f 20/23/22 31/34/32 29/39/37
f 36/35/33 44/40/38 45/41/39
f 30/37/35 42/42/40 33/36/34
f 29/39/37 39/43/41 30/37/35
f 36/35/33 46/44/42 37/31/29
f 33/36/34 43/45/43 34/38/36
f 29/39/37 40/46/44 38/47/45
f 19/48/18 37/31/29 46/44/42
f 34/38/36 44/40/38 35/32/30
f 32/33/31 40/46/44 31/34/32
f 43/45/43 51/49/46 52/50/47
f 40/46/44 47/51/48 38/47/45
f 19/52/18 46/44/42 55/53/49
f 44/40/38 52/50/47 53/54/50
f 41/55/51 49/56/52 40/46/44
f 44/40/38 54/57/53 45/41/39
f 39/43/41 51/49/46 42/42/40
f 38/47/45 48/58/54 39/43/41
f 45/41/39 55/53/49 46/44/42
f 49/56/52 59/59/55 58/60/56
f 54/57/53 62/61/57 63/62/58
f 48/58/54 60/63/59 51/49/46
f 47/51/48 57/64/60 48/58/54
f 54/57/53 64/65/61 55/53/49
f 51/49/46 61/66/62 52/50/47
f 49/56/52 56/67/63 47/51/48
f 19/68/18 55/53/49 64/65/61
f 53/54/50 61/66/62 62/61/57
f 73/23/64 85/34/65 83/39/66
f 68/27/67 87/36/68 88/38/69
f 65/22/70 90/35/71 91/31/72
f 72/29/73 83/39/66 84/37/74
f 69/28/75 84/37/74 87/36/68
f 67/26/76 90/35/71 66/25/77
f 71/20/78 86/33/79 85/34/65
f 68/27/67 89/32/80 67/26/76
f 19/30/18 65/22/70 91/31/72
f 81/1/81 73/23/64 72/29/73
f 78/9/82 72/29/73 69/28/75
f 77/11/83 69/28/75 68/27/67
f 76/13/84 68/27/67 67/26/76
f 75/24/85 67/26/76 66/25/77
f 74/16/86 66/25/77 65/22/70
f 82/3/87 71/20/78 73/23/64
f 19/21/18 74/16/86 65/22/70
f 80/5/88 70/19/89 71/20/78
f 64/17/61 74/16/86 19/18/18
f 63/15/58 74/16/86 64/17/61
f 76/13/84 63/15/58 62/14/57
f 77/11/83 62/14/57 61/12/62
f 60/10/59 77/11/83 61/12/62
f 57/8/60 78/9/82 60/10/59
f 58/4/56 79/7/90 80/5/88
f 82/3/87 58/4/56 80/5/88
f 81/1/81 56/2/63 82/3/87
f 90/35/71 98/40/91 99/41/92
f 87/36/68 93/43/93 96/42/94
f 84/37/74 92/47/95 93/43/93
f 91/31/72 99/41/92 100/44/96
f 88/38/69 96/42/94 97/45/97
f 83/39/66 94/46/98 92/47/95
f 19/48/18 91/31/72 100/44/96
f 89/32/80 97/45/97 98/40/91
f 85/34/65 95/55/99 94/46/98
f 97/45/97 105/49/100 106/50/101
f 94/46/98 101/51/102 92/47/95
f 19/52/18 100/44/96 109/53/103
f 98/40/91 106/50/101 107/54/104
f 95/55/99 103/56/105 94/46/98
f 99/41/92 107/54/104 108/57/106
f 96/42/94 102/58/107 105/49/100
f 93/43/93 101/51/102 102/58/107
f 100/44/96 108/57/106 109/53/103
f 104/69/108 5/60/4 103/56/105
f 108/57/106 13/61/14 15/62/15
f 105/49/100 2/64/8 9/63/10
f 101/51/102 2/64/8 102/58/107
f 109/53/103 15/62/15 17/65/17
f 106/50/101 9/63/10 11/66/12
f 103/56/105 1/67/2 101/51/102
f 19/68/18 109/53/103 17/65/17
f 107/54/104 11/66/12 13/61/14
f 4/1/1 2/8/8 1/2/2
f 3/3/3 1/2/2 5/4/4
f 6/5/5 5/4/4 7/6/6
f 2/8/8 4/1/1 10/9/9
f 9/10/10 10/9/9 12/11/11
f 11/12/12 12/11/11 14/13/13
f 14/13/13 16/24/23 15/15/15
f 15/15/15 16/24/23 18/16/16
f 6/5/5 8/7/7 23/19/19
f 6/5/5 22/20/20 20/23/22
f 16/24/23 27/25/24 28/22/21
f 14/13/13 26/26/25 27/25/24
f 12/11/11 25/27/26 26/26/25
f 10/9/9 24/28/27 25/27/26
f 4/1/1 21/29/28 24/28/27
f 3/3/3 20/23/22 21/29/28
f 25/27/26 34/38/36 35/32/30
f 22/20/20 23/19/19 32/33/31
f 27/25/24 26/26/25 35/32/30
f 21/29/28 30/37/35 33/36/34
f 20/23/22 29/39/37 30/37/35
f 27/25/24 36/35/33 37/31/29
f 24/28/27 33/36/34 34/38/36
f 20/23/22 22/20/20 31/34/32
f 36/35/33 35/32/30 44/40/38
f 30/37/35 39/43/41 42/42/40
f 29/39/37 38/47/45 39/43/41
f 36/35/33 45/41/39 46/44/42
f 33/36/34 42/42/40 43/45/43
f 29/39/37 31/34/32 40/46/44
f 34/38/36 43/45/43 44/40/38
f 32/33/31 41/55/51 40/46/44
f 43/45/43 42/42/40 51/49/46
f 40/46/44 49/56/52 47/51/48
f 44/40/38 43/45/43 52/50/47
f 41/55/51 50/69/109 49/56/52
f 44/40/38 53/54/50 54/57/53
f 39/43/41 48/58/54 51/49/46
f 38/47/45 47/51/48 48/58/54
f 45/41/39 54/57/53 55/53/49
f 49/56/52 50/69/109 59/59/55
f 54/57/53 53/54/50 62/61/57
f 48/58/54 57/64/60 60/63/59
f 47/51/48 56/67/63 57/64/60
f 54/57/53 63/62/58 64/65/61
f 51/49/46 60/63/59 61/66/62
f 49/56/52 58/60/56 56/67/63
f 53/54/50 52/50/47 61/66/62
f 73/23/64 71/20/78 85/34/65
f 68/27/67 69/28/75 87/36/68
f 65/22/70 66/25/77 90/35/71
f 72/29/73 73/23/64 83/39/66
f 69/28/75 72/29/73 84/37/74
f 67/26/76 89/32/80 90/35/71
f 71/20/78 70/19/89 86/33/79
f 68/27/67 88/38/69 89/32/80
f 81/1/81 82/3/87 73/23/64
f 78/9/82 81/1/81 72/29/73
f 77/11/83 78/9/82 69/28/75
f 76/13/84 77/11/83 68/27/67
f 75/24/85 76/13/84 67/26/76
f 74/16/86 75/24/85 66/25/77
f 82/3/87 80/5/88 71/20/78
f 80/5/88 79/7/90 70/19/89
f 63/15/58 75/24/85 74/16/86
f 76/13/84 75/24/85 63/15/58
f 77/11/83 76/13/84 62/14/57
f 60/10/59 78/9/82 77/11/83
f 57/8/60 81/1/81 78/9/82
f 58/4/56 59/6/55 79/7/90
f 82/3/87 56/2/63 58/4/56
f 81/1/81 57/8/60 56/2/63
f 90/35/71 89/32/80 98/40/91
f 87/36/68 84/37/74 93/43/93
f 84/37/74 83/39/66 92/47/95
f 91/31/72 90/35/71 99/41/92
f 88/38/69 87/36/68 96/42/94
f 83/39/66 85/34/65 94/46/98
f 89/32/80 88/38/69 97/45/97
f 85/34/65 86/33/79 95/55/99
f 97/45/97 96/42/94 105/49/100
f 94/46/98 103/56/105 101/51/102
f 98/40/91 97/45/97 106/50/101
f 95/55/99 104/69/108 103/56/105
f 99/41/92 98/40/91 107/54/104
f 96/42/94 93/43/93 102/58/107
f 93/43/93 92/47/95 101/51/102
f 100/44/96 99/41/92 108/57/106
f 104/69/108 7/59/6 5/60/4
f 108/57/106 107/54/104 13/61/14
f 105/49/100 102/58/107 2/64/8
f 101/51/102 1/67/2 2/64/8
f 109/53/103 108/57/106 15/62/15
f 106/50/101 105/49/100 9/63/10
f 103/56/105 5/60/4 1/67/2
f 107/54/104 106/50/101 11/66/12
