# Blender 4.0.2
# www.blender.org
mtllib zobemachine.mtl
o SODAMACHINE
v 28.000000 0.000000 -28.000000
v 28.000000 80.000000 -28.000000
v 32.000000 80.000000 -12.000000
v 32.000000 0.000000 -12.000000
v 0.000000 80.000000 -28.000000
v 32.000000 0.000000 12.000000
v 32.000000 80.000000 12.000000
v 28.000000 80.000000 28.000000
v 28.000000 0.000000 28.000000
v 0.000000 80.000000 28.000000
v 0.000000 0.000000 28.000000
v 0.000000 -0.000002 -28.000000
vn 0.4963 0.5913 -0.6356
vn 0.9925 -0.0000 -0.1222
vn 0.6154 -0.0000 -0.7882
vn -0.5774 0.5774 -0.5774
vn -0.7071 -0.0000 -0.7071
vn 0.7272 0.6806 0.0895
vn 0.6154 -0.0000 0.7882
vn 0.9925 -0.0000 0.1222
vn 0.4963 0.5913 0.6356
vn -0.7071 -0.0000 0.7071
vn 0.7272 0.6806 -0.0895
vn -0.5774 0.5774 0.5774
vt 0.656250 1.000000
vt 0.531250 0.375000
vt 0.656250 0.375000
vt 0.875000 1.000000
vt 0.875000 0.375000
vt 0.343750 1.000000
vt 0.218750 0.375000
vt 0.343750 0.375000
vt 0.218750 1.000000
vt 0.000000 0.375000
vt 0.531250 1.000000
vt 0.531250 0.132812
vt 0.656250 0.164062
vt 0.343750 0.132812
vt 0.218750 0.164062
vt 1.000000 0.375000
vt 1.000000 1.000000
vt 0.000000 1.000000
s 1
usemtl SODAMH01
f 2/1/1 4/2/2 1/3/3
f 5/4/4 1/3/3 12/5/5
f 7/6/6 9/7/7 6/8/8
f 8/9/9 11/10/10 9/7/7
f 3/11/11 6/8/8 4/2/2
f 3/12/11 2/13/1 5/3/4
f 7/14/6 3/12/11 5/3/4
f 8/15/9 7/14/6 5/3/4
f 10/7/12 8/15/9 5/3/4
f 5/4/4 11/16/10 10/17/12
f 2/1/1 3/11/11 4/2/2
f 5/4/4 2/1/1 1/3/3
f 7/6/6 8/9/9 9/7/7
f 8/9/9 10/18/12 11/10/10
f 3/11/11 7/6/6 6/8/8
f 5/4/4 12/5/5 11/16/10
