# Blender 4.0.2
# www.blender.org
mtllib KGROOF3.mtl
o kgrooftrim.003
v -316.000000 8.000000 -0.000001
v 260.000000 -0.000000 0.000000
v 320.000000 0.000000 -60.000000
v 324.000000 8.000000 -64.000000
v 260.000000 8.000000 -0.000001
v -252.000000 8.000000 -64.000000
v -256.000000 0.000000 -60.000000
v -316.000000 -0.000000 0.000000
vn -0.0000 -0.4472 -0.8944
vn -0.0000 1.0000 -0.0000
vn -0.0000 -1.0000 -0.0000
vn -0.7071 -0.0000 -0.7071
vn -0.0000 -0.0000 1.0000
vn 0.7071 -0.0000 0.7071
vt 8.280779 0.437495
vt 12.749446 0.499990
vt 8.249701 0.499994
vt 12.749997 0.499998
vt 13.249996 0.999997
vt 8.749996 0.999998
vt 8.750001 -0.000002
vt 12.781254 0.410153
vt 8.281251 0.410155
vt 12.780519 0.437491
vt 8.249996 0.499998
vt 13.250006 -0.000003
s 0
usemtl KGTRIM01
f 3/1/1 6/2/1 4/3/1
f 6/4/2 1/5/2 5/6/2
f 2/7/3 7/8/3 3/9/3
f 3/1/1 7/10/1 6/2/1
f 5/6/2 4/11/2 6/4/2
f 2/7/3 8/12/3 7/8/3
usemtl BLAK1
f 7/8/4 1/12/4 6/8/4
f 2/7/5 1/12/5 8/12/5
f 3/9/6 5/7/6 2/7/6
f 7/8/4 8/12/4 1/12/4
f 2/7/5 5/7/5 1/12/5
f 3/9/6 4/9/6 5/7/6
