# Blender 4.0.2
# www.blender.org
mtllib KGROOF4.mtl
o kgrooftrim.004
v 0.000000 -0.000000 216.000000
v 60.000000 -0.000000 276.000000
v 64.000000 8.000000 280.000000
v 0.000000 -0.000000 -200.000000
v 60.000000 0.000000 -260.000000
v 64.000000 8.000000 -264.000000
v 0.000000 7.999999 -200.000000
v 0.000000 8.000000 216.000000
vn -0.0000 1.0000 -0.0000
vn 0.8944 -0.4472 -0.0000
vn -0.0000 -1.0000 -0.0000
vn -1.0000 -0.0000 -0.0000
vn -0.7071 -0.0000 -0.7071
vn -0.7071 -0.0000 0.7071
vt 4.999999 0.499999
vt 8.749996 0.999998
vt 5.499997 0.999999
vt 4.999892 0.499997
vt 9.218225 0.437494
vt 9.249645 0.499993
vt 5.499999 -0.000001
vt 9.218751 0.410154
vt 5.031250 0.410155
vt 9.249996 0.499998
vt 5.030957 0.437497
vt 8.750001 -0.000002
s 0
usemtl KGTRIM01
f 3/1/1 7/2/1 8/3/1
f 3/4/2 5/5/2 6/6/2
f 1/7/3 5/8/3 2/9/3
f 3/1/1 6/10/1 7/2/1
f 3/4/2 2/11/2 5/5/2
f 1/7/3 4/12/3 5/8/3
usemtl BLAK1
f 1/7/4 7/12/4 4/12/4
f 5/8/5 7/12/5 6/8/5
f 2/9/6 8/7/6 1/7/6
f 1/7/4 8/7/4 7/12/4
f 5/8/5 4/12/5 7/12/5
f 2/9/6 3/9/6 8/7/6
