# Blender 4.0.2
# www.blender.org
mtllib KGROOF.mtl
o kgrooftrim
v 384.000000 8.000000 -208.000000
v 684.000000 8.000000 -208.000000
v 384.000000 8.000000 272.000000
v 448.000000 8.000000 336.000000
v 444.000000 0.000000 332.000000
v 384.000000 0.000000 208.000000
v 384.000000 0.000000 272.000000
v -384.000000 0.000000 272.000000
v 384.000000 8.000000 208.000000
v 448.000000 8.000000 272.000000
v 444.000000 0.000000 268.000000
v -1020.000000 0.000000 -268.000000
v -960.000000 8.000000 -208.000000
v 960.000000 0.000000 208.000000
v 1020.000000 0.000000 268.000000
v 1024.000000 8.000000 272.000000
v 960.000000 8.000000 208.000000
v 960.000000 0.000000 -208.000000
v 1020.000000 0.000000 -268.000000
v 1024.000000 8.000000 -272.000000
v 960.000000 8.000000 -208.000000
v -444.000000 0.000000 -268.000000
v 444.000000 0.000000 -332.000000
v -448.000000 8.000000 -272.000000
v 384.000000 8.000000 -272.000000
v 448.000000 8.000000 -272.000000
v -384.000000 0.000000 -272.000000
v 444.000000 0.000000 -268.000000
v 448.000000 8.000000 -336.000000
v 384.000000 0.000000 -272.000000
v -384.000000 0.000000 -208.000000
v -384.000000 8.000000 -208.000000
v -384.000000 8.000000 -272.000000
v -448.000000 8.000000 -336.000000
v -444.000000 0.000000 -332.000000
v 384.000000 0.000000 -208.000000
v -384.000000 0.000000 208.000000
v -448.000000 8.000000 272.000000
v -960.000000 0.000000 208.000000
v -1020.000000 0.000000 268.000000
v -1024.000000 8.000000 272.000000
v -960.000000 8.000000 208.000000
v -960.000000 0.000000 -208.000000
v -1024.000000 8.000000 -272.000000
v -384.000000 8.000000 208.000000
v -444.000000 0.000000 268.000000
v -384.000000 8.000000 272.000000
v -448.000000 8.000000 336.000000
v -444.000000 0.000000 332.000000
v -684.000000 8.000000 -208.000000
v -684.000000 8.000000 208.000000
v 684.000000 8.000000 208.000000
vn -0.0000 1.0000 -0.0000
vn 0.4608 0.7584 0.4608
vn 0.4248 -0.7994 0.4248
vn 0.1737 -0.9694 0.1737
vn -0.0000 -1.0000 -0.0000
vn 0.6626 0.3491 0.6626
vn -0.4248 -0.7994 0.4248
vn -0.6626 0.3491 0.6626
vn 0.4248 -0.7994 -0.4248
vn 0.6626 0.3491 -0.6626
vn -0.6626 0.3491 -0.6626
vn -0.4248 -0.7994 -0.4248
vn 0.4608 0.7584 -0.4608
vn 0.1737 -0.9694 -0.1737
vn -0.4608 0.7584 -0.4608
vn -0.1737 -0.9694 -0.1737
vn -0.4608 0.7584 0.4608
vn -0.1737 -0.9694 0.1737
vt 0.500000 1.000000
vt 0.500000 0.500000
vt 1.000000 1.000000
vt 0.500000 0.500000
vt 0.031250 0.437500
vt 0.531250 0.437500
vt 0.531250 0.410156
vt 0.500000 0.000000
vt 1.000000 0.000000
vt 1.281250 0.410156
vt -5.187500 0.000000
vt 0.812500 0.000000
vt 1.312500 0.500000
vt -5.656249 0.437501
vt 1.281250 0.437500
vt 0.812500 1.000000
vt -5.687497 0.500000
vt 1.500000 0.500000
vt 3.343748 0.999999
vt 1.000000 1.000000
vt 1.500000 0.500000
vt 5.968412 0.437496
vt 5.999826 0.499996
vt 1.468750 0.410156
vt 5.499999 -0.000001
vt 5.968750 0.410155
vt 4.999999 0.499999
vt 8.749996 0.999998
vt 5.499997 0.999999
vt 4.999892 0.499997
vt 9.218225 0.437494
vt 9.249645 0.499993
vt 9.218751 0.410154
vt 5.031250 0.410155
vt 13.921870 0.999997
vt 20.421860 0.499997
vt 19.921867 0.999997
vt 13.921879 -0.000004
vt 20.390657 0.410151
vt 13.453129 0.410153
vt 13.452350 0.437489
vt 20.420881 0.499981
vt 13.421276 0.499989
vt 8.280779 0.437495
vt 12.749446 0.499990
vt 8.249701 0.499994
vt 12.749997 0.499998
vt 10.906247 0.999997
vt 8.750001 -0.000002
vt 12.781254 0.410153
vt 8.281251 0.410155
vt 21.670805 0.499982
vt 26.139145 0.437479
vt 26.170568 0.499978
vt 21.640652 0.410151
vt 25.671921 -0.000007
vt 26.140667 0.410150
vt 21.671873 0.499997
vt 23.515625 0.999996
vt 21.171873 0.999996
vt 20.671860 0.999996
vt 20.671860 0.499997
vt 21.171860 0.999996
vt 20.671894 -0.000005
vt 20.703146 0.410151
vt 20.203144 0.410151
vt 20.201971 0.437484
vt 20.670872 0.499983
vt 20.170898 0.499983
vt 13.921871 0.499997
vt 14.421871 0.499997
vt 13.890629 0.410153
vt 13.421877 -0.000003
vt 14.389795 0.437488
vt 13.921246 0.499988
vt 13.889824 0.437489
vt 28.451530 0.437477
vt 32.920216 0.499972
vt 28.420458 0.499977
vt 32.921902 0.499996
vt 31.078138 0.999995
vt 28.921877 0.999996
vt 28.921932 -0.000008
vt 32.953205 0.410148
vt 28.453175 0.410149
vt 25.671921 -0.000007
vt 29.390676 0.410149
vt 25.203163 0.410150
vt 25.171879 0.499996
vt 28.921877 0.999995
vt 25.671879 0.999996
vt 25.170620 0.499979
vt 29.388969 0.437476
vt 29.420399 0.499976
vt 33.890701 0.410148
vt 33.921959 -0.000009
vt 34.390701 0.410147
vt 33.921902 0.499996
vt 33.921898 0.999996
vt 33.421898 0.999996
vt 33.920166 0.499972
vt 34.388725 0.437472
vt 34.420139 0.499972
vt -0.000000 0.500000
vt 0.000000 0.500000
vt 0.031250 0.410156
vt -5.656249 0.410156
vt -5.687501 0.500001
vt -5.187499 1.000000
vt 5.999998 0.499999
vt 1.468750 0.437500
vt 1.000000 0.000000
vt 9.249996 0.499998
vt 5.030957 0.437497
vt 13.421871 0.499998
vt 19.921906 -0.000005
vt 20.389456 0.437482
vt 12.780519 0.437491
vt 8.249996 0.499998
vt 13.250006 -0.000003
vt 21.639383 0.437482
vt 21.171902 -0.000006
vt 26.171881 0.499996
vt 25.671879 0.999996
vt 20.171862 0.499997
vt 21.171898 -0.000005
vt 20.701942 0.437483
vt 13.421870 0.999997
vt 14.390631 0.410153
vt 14.421218 0.499987
vt 32.951294 0.437472
vt 28.421875 0.499996
vt 33.421963 -0.000009
vt 28.921930 -0.000008
vt 29.421877 0.499996
vt 25.201689 0.437479
vt 33.421959 -0.000009
vt 34.421902 0.499996
vt 33.888748 0.437473
vt 13.249998 0.999997
vt 33.421906 0.999995
s 1
usemtl KGTRIM01
f 3/1/1 10/2/2 9/3/1
f 10/4/2 5/5/3 11/6/4
f 11/7/4 7/8/5 6/9/5
f 5/10/3 8/11/5 7/12/5
f 4/13/6 49/14/7 5/15/3
f 3/16/1 48/17/8 4/13/6
f 10/18/2 52/19/1 9/20/1
f 10/21/2 15/22/3 16/23/6
f 11/24/4 14/25/5 15/26/3
f 16/27/6 21/28/1 17/29/1
f 16/30/6 19/31/9 20/32/10
f 14/25/5 19/33/9 15/34/3
f 25/35/1 34/36/11 33/37/1
f 30/38/5 35/39/12 23/40/9
f 23/41/9 34/42/11 29/43/10
f 19/44/9 26/45/13 20/46/10
f 26/47/13 2/48/1 21/28/1
f 18/49/5 28/50/14 19/51/9
f 24/52/15 12/53/12 44/54/11
f 22/55/16 43/56/5 12/57/12
f 24/58/15 50/59/1 32/60/1
f 33/61/1 24/62/15 32/63/1
f 27/64/5 22/65/16 35/66/12
f 35/67/12 24/68/15 34/69/11
f 25/35/1 26/70/13 29/71/10
f 30/38/5 28/72/14 36/73/5
f 23/74/9 26/75/13 28/76/14
f 40/77/7 38/78/17 41/79/8
f 38/80/17 51/81/1 42/82/1
f 39/83/5 46/84/18 40/85/7
f 43/86/5 40/87/7 12/88/12
f 44/89/11 42/90/1 13/91/1
f 44/92/11 40/93/7 41/94/8
f 46/95/18 8/96/5 49/97/7
f 38/98/17 47/99/1 45/100/1
f 38/101/17 49/102/7 48/103/8
f 3/1/1 4/104/6 10/2/2
f 10/4/2 4/105/6 5/5/3
f 11/7/4 5/106/3 7/8/5
f 5/10/3 49/107/7 8/11/5
f 4/13/6 48/108/8 49/14/7
f 3/16/1 47/109/1 48/17/8
f 10/18/2 16/110/6 17/29/1
f 10/21/2 11/111/4 15/22/3
f 11/24/4 6/112/5 14/25/5
f 16/27/6 20/113/10 21/28/1
f 16/30/6 15/114/3 19/31/9
f 14/25/5 18/49/5 19/33/9
f 25/35/1 29/115/10 34/36/11
f 30/38/5 27/116/5 35/39/12
f 23/41/9 35/117/12 34/42/11
f 19/44/9 28/118/14 26/45/13
f 21/28/1 20/119/10 26/47/13
f 18/49/5 36/120/5 28/50/14
f 24/52/15 22/121/16 12/53/12
f 22/55/16 31/122/5 43/56/5
f 24/58/15 44/123/11 13/124/1
f 33/61/1 34/125/11 24/62/15
f 27/64/5 31/126/5 22/65/16
f 35/67/12 22/127/16 24/68/15
f 25/35/1 1/128/1 26/70/13
f 30/38/5 23/129/9 28/72/14
f 23/74/9 29/130/10 26/75/13
f 40/77/7 46/131/18 38/78/17
f 42/82/1 41/132/8 38/80/17
f 39/83/5 37/133/5 46/84/18
f 43/86/5 39/134/5 40/87/7
f 44/89/11 41/135/8 42/90/1
f 44/92/11 12/136/12 40/93/7
f 46/95/18 37/137/5 8/96/5
f 38/98/17 48/138/8 47/99/1
f 38/101/17 46/139/18 49/102/7
f 10/18/2 17/29/1 52/19/1
f 26/47/13 1/140/1 2/48/1
f 24/58/15 13/124/1 50/59/1
f 38/80/17 45/141/1 51/81/1
