# Blender 4.0.2
# www.blender.org
mtllib PWRROOF1.mtl
o roof1
v -360.000000 7.000000 -264.000000
v 8.000000 7.000000 8.000000
v 8.000000 7.000000 -264.000000
v -370.000000 4.000000 18.000000
v 18.000000 4.000000 18.000000
v -176.000000 61.000000 28.000000
v -370.000000 4.000000 -274.000000
v 18.000000 4.000000 -274.000000
v -176.000015 61.000000 -284.000000
v -360.000000 0.000000 8.000000
v -360.000000 7.000000 8.000000
v -360.000000 0.000000 -264.000000
v 8.000000 0.000000 8.000000
v 8.000000 0.000000 -264.000000
v -176.000015 61.000000 -264.000000
v -176.000000 61.000000 8.000000
vn -0.2816 -0.9595 -0.0000
vn -0.2816 0.9595 -0.0000
vn 0.2816 0.9595 -0.0000
vn 0.2822 -0.9594 -0.0056
vn 0.2816 -0.9595 -0.0000
vn -0.2822 -0.9594 0.0056
vn -0.2873 0.9578 -0.0000
vn 0.2873 0.9578 -0.0000
vn -1.0000 -0.0000 -0.0000
vn -0.0000 -0.0000 -1.0000
vn 1.0000 -0.0000 -0.0000
vn -0.0000 -0.0000 1.0000
vn -0.0000 -1.0000 -0.0000
vn -0.2822 -0.9594 -0.0056
vn 0.2822 -0.9594 0.0056
vt -1.038872 -1.582003
vt -1.265177 0.500000
vt -1.038872 0.500000
vt 2.038872 2.582003
vt 2.038872 0.500000
vt 2.038872 -1.582004
vt -1.038872 2.582004
vt -1.152024 2.695156
vt 2.265177 0.500000
vt 2.152024 -1.695156
vt -0.917658 0.271587
vt 2.320097 0.188262
vt -0.917658 0.188262
vt 2.630722 0.188262
vt 0.440476 0.914376
vt 2.630722 0.271587
vt 2.320097 0.271587
vt 0.440476 0.914376
vt -1.749770 0.188262
vt 0.940476 0.869565
vt -0.059524 0.130435
vt -0.059524 0.869565
vt -1.152024 -1.695155
vt 2.152025 2.695155
vt -1.749770 0.271587
vt 0.940476 0.130435
s 0
usemtl HMEWD5
f 2/1/1 6/2/1 16/3/1
f 1/4/2 16/3/2 15/5/2
f 15/5/3 2/1/3 3/6/3
f 11/7/4 6/2/4 4/8/4
f 1/4/5 9/9/5 15/5/5
f 3/6/6 9/9/6 8/10/6
f 1/4/7 4/8/7 11/7/7
f 2/1/8 8/10/8 3/6/8
f 2/1/14 5/23/14 6/2/14
f 1/4/2 11/7/2 16/3/2
f 15/5/3 16/3/3 2/1/3
f 11/7/5 16/3/5 6/2/5
f 1/4/15 7/24/15 9/9/15
f 3/6/1 15/5/1 9/9/1
f 1/4/7 7/24/7 4/8/7
f 2/1/8 5/23/8 8/10/8
usemtl BLAK1
f 14/20/13 10/21/13 12/22/13
f 14/20/13 13/26/13 10/21/13
usemtl BRIK001
f 11/11/9 12/12/9 10/13/9
f 14/14/10 15/15/10 3/16/10
f 3/17/11 13/13/11 14/12/11
f 16/18/12 10/19/12 13/14/12
f 13/14/12 2/16/12 16/18/12
f 12/19/10 15/15/10 14/14/10
f 11/11/9 1/17/9 12/12/9
f 3/17/11 2/11/11 13/13/11
f 16/18/12 11/25/12 10/19/12
f 12/19/10 1/25/10 15/15/10
