# Blender 4.0.2
# www.blender.org
mtllib railswitch1.mtl
o rail_curve
v -132.000000 8.000000 38.000000
v 12.000000 8.000000 50.000000
v -132.000000 8.000000 30.000000
v -132.000000 8.000000 134.000000
v 1.000000 8.000000 50.000000
v -132.000000 8.000000 142.000000
v -82.000000 8.000000 18.000000
v -82.000000 8.000000 10.000000
v -82.000000 8.000000 114.000000
v -82.000000 8.000000 122.000000
v -42.000000 8.000000 -12.000000
v -42.000000 8.000000 -20.000000
v -42.000000 8.000000 84.000000
v -42.000000 8.000000 92.000000
v 50.000000 8.000000 -84.000000
v 50.000000 8.000000 -92.000000
v 50.000000 8.000000 12.000000
v 50.000000 8.000000 20.000000
v 90.000000 8.000000 -114.000000
v 90.000000 8.000000 -122.000000
v 90.000000 8.000000 -18.000000
v 90.000000 8.000000 -10.000000
v 140.000000 8.000000 -134.000000
v 140.000000 8.000000 -142.000000
v 140.000000 8.000000 -38.000000
v 140.000000 8.000000 -30.000000
v 188.000000 8.000000 -142.000000
v -180.000000 8.000000 142.000000
v -180.000000 8.000000 38.000000
v 17.000000 8.000000 38.000000
v 27.000000 8.000000 38.000000
v -9.000000 8.000000 -38.000000
v -19.000000 8.000000 -38.000000
v 7.000000 8.000000 -50.000000
v -4.000000 8.000000 -50.000000
v 188.000000 8.000000 -38.000000
v 1.000000 0.000000 50.000000
v 12.000000 0.000000 50.000000
v -132.000000 0.000000 30.000000
v -180.000000 0.000000 38.000000
v -132.000000 0.000000 38.000000
v -42.000000 0.000000 92.000000
v 140.000000 0.000000 -38.000000
v 188.000000 0.000000 -38.000000
v -132.000000 0.000000 134.000000
v -132.000000 0.000000 142.000000
v -82.000000 0.000000 10.000000
v -82.000000 0.000000 18.000000
v -82.000000 0.000000 114.000000
v -82.000000 0.000000 122.000000
v -42.000000 0.000000 -20.000000
v -42.000000 0.000000 -12.000000
v -42.000000 0.000000 84.000000
v 50.000000 0.000000 -92.000000
v 50.000000 0.000000 -84.000000
v 50.000000 0.000000 12.000000
v 50.000000 0.000000 20.000000
v 27.000000 0.000000 38.000000
v 7.000000 0.000000 -50.000000
v -19.000000 0.000000 -38.000000
v 90.000000 0.000000 -122.000000
v 90.000000 0.000000 -114.000000
v 90.000000 0.000000 -18.000000
v 90.000000 0.000000 -10.000000
v 140.000000 0.000000 -142.000000
v 140.000000 0.000000 -134.000000
v 140.000000 0.000000 -30.000000
v 188.000000 0.000000 -142.000000
v -180.000000 0.000000 142.000000
v 17.000000 0.000000 38.000000
v -9.000000 0.000000 -38.000000
v -4.000000 0.000000 -50.000000
vn -0.0000 -1.0000 -0.0000
vn -0.3714 -0.0000 -0.9285
vn 0.6202 -0.0000 0.7844
vn -0.0000 -0.0000 -1.0000
vn 0.3714 -0.0000 0.9285
vn -0.6202 -0.0000 -0.7844
vn -0.0000 -0.0000 1.0000
vn 0.6163 -0.0000 0.7875
vn -0.1644 -0.0000 -0.9864
vn 0.1644 -0.0000 0.9864
vn -0.6000 -0.0000 -0.8000
vn 0.6000 -0.0000 0.8000
vn -0.6139 -0.0000 -0.7894
vn 0.6189 -0.0000 0.7855
vn -0.6189 -0.0000 -0.7855
vn -0.6163 -0.0000 -0.7875
vn 0.6139 -0.0000 0.7894
vt 2.473958 0.250000
vt 2.229167 0.250000
vt 2.229167 0.208333
vt 2.479167 0.791667
vt 2.229167 0.791667
vt 2.229167 0.750000
vt 0.812500 0.750000
vt 1.072917 0.750000
vt 1.072917 0.791667
vt 0.812500 0.791667
vt 0.812500 0.208333
vt 1.072917 0.208333
vt 1.072917 0.250000
vt 0.812500 0.250000
vt 1.281250 0.750000
vt 1.281250 0.791667
vt 1.281250 0.208333
vt 1.281250 0.250000
vt 1.505208 0.750000
vt 1.562500 0.791667
vt 1.401042 0.208333
vt 1.453125 0.250000
vt 1.760417 0.750000
vt 1.968750 0.750000
vt 1.968750 0.791667
vt 1.760417 0.791667
vt 1.760417 0.208333
vt 1.968750 0.208333
vt 1.968750 0.250000
vt 1.760417 0.250000
vt 0.562500 0.750000
vt 0.562500 0.208333
vt 1.588542 0.750000
vt 1.640625 0.791667
vt 1.479167 0.208333
vt 1.531250 0.250000
vt 0.968750 1.000000
vt 1.229167 1.000000
vt 1.229167 0.000000
vt 0.968750 0.000000
vt 1.505208 1.000000
vt 1.281250 1.000000
vt 1.281250 -0.000000
vt 1.505208 0.000000
vt 0.479167 1.000000
vt 0.531250 1.000000
vt 0.531250 -0.000000
vt 0.479167 0.000000
vt 0.812500 1.000000
vt 1.072917 1.000000
vt 1.072917 0.000000
vt 0.812500 -0.000000
vt 0.760417 1.000000
vt 0.760417 0.000000
vt 1.473958 1.000000
vt 1.473958 -0.000000
vt 1.401042 1.000000
vt 1.401042 -0.000000
vt 0.562500 1.000000
vt 0.562500 0.000000
vt 1.562500 1.000000
vt 1.505208 -0.000000
vt 1.562500 0.000000
vt 0.588542 1.000000
vt 0.588542 0.000000
vt 1.453125 1.000000
vt 1.453125 -0.000000
vt 1.479167 1.000000
vt 1.479167 -0.000000
vt 0.640625 1.000000
vt 0.640625 -0.000000
vt 0.453125 1.000000
vt 0.401042 1.000000
vt 0.401042 -0.000000
vt 0.453125 0.000000
vt 1.479167 0.000000
vt 0.640625 0.000000
s 0
usemtl TRAK01
f 27/1/1 23/2/1 24/3/1
f 36/4/1 26/5/1 25/6/1
f 4/7/1 9/8/1 10/9/1 6/10/1
f 3/11/1 8/12/1 7/13/1 1/14/1
f 9/8/1 13/15/1 14/16/1 10/9/1
f 8/12/1 12/17/1 11/18/1 7/13/1
f 13/15/1 5/19/1 2/20/1 14/16/1
f 12/17/1 33/21/1 32/22/1 11/18/1
f 17/23/1 21/24/1 22/25/1 18/26/1
f 16/27/1 20/28/1 19/29/1 15/30/1
f 21/24/1 25/6/1 26/5/1 22/25/1
f 20/28/1 24/3/1 23/2/1 19/29/1
f 28/31/1 4/7/1 6/10/1
f 29/32/1 3/11/1 1/14/1
f 30/33/1 17/23/1 18/26/1 31/34/1
f 35/35/1 16/27/1 15/30/1 34/36/1
usemtl TRAK02
f 19/37/2 23/38/2 66/39/2 62/40/2
f 5/41/3 13/42/3 53/43/3 37/44/3
f 35/45/4 34/46/4 59/47/4 72/48/4
f 6/49/2 10/50/2 50/51/2 46/52/2
f 24/38/5 20/37/5 61/40/5 65/39/5
f 34/46/6 15/53/6 55/54/6 59/47/6
f 9/50/5 4/49/5 45/52/5 49/51/5
f 27/55/7 24/38/7 65/39/7 68/56/7
f 33/57/8 12/42/8 51/43/8 60/58/8
f 1/49/2 7/50/2 48/51/2 41/52/2
f 23/38/9 27/55/9 68/56/9 66/39/9
f 8/50/5 3/49/5 39/52/5 47/51/5
f 4/49/10 28/59/10 69/60/10 45/52/10
f 2/61/7 5/41/7 37/62/7 38/63/7
f 28/59/4 6/49/4 46/52/4 69/60/4
f 3/49/10 29/59/10 40/60/10 39/52/10
f 18/53/11 22/37/11 64/40/11 57/54/11
f 21/37/12 17/53/12 56/54/12 63/40/12
f 10/50/11 14/42/11 42/43/11 50/51/11
f 29/59/4 1/49/4 41/52/4 40/60/4
f 14/42/13 2/61/13 38/63/13 42/43/13
f 15/53/11 19/37/11 62/40/11 55/54/11
f 13/42/12 9/50/12 49/51/12 53/43/12
f 17/53/14 30/64/14 70/65/14 56/54/14
f 20/37/12 16/53/12 54/54/12 61/40/12
f 7/50/11 11/42/11 52/43/11 48/51/11
f 11/42/15 32/66/15 71/67/15 52/43/15
f 36/68/7 25/38/7 43/39/7 44/69/7
f 12/42/12 8/50/12 47/51/12 51/43/12
f 30/64/4 31/70/4 58/71/4 70/65/4
f 32/72/7 33/73/7 60/74/7 71/75/7
f 22/37/2 26/38/2 67/39/2 64/40/2
f 26/38/9 36/68/9 44/76/9 67/39/9
f 25/38/5 21/37/5 63/40/5 43/39/5
f 31/70/16 18/53/16 57/54/16 58/77/16
f 16/53/17 35/45/17 72/48/17 54/54/17
