# Blender 4.0.2
# www.blender.org
mtllib TRANWRKDSK.mtl
o desk_trn
v -16.000000 0.000000 -48.000000
v -16.000000 31.999996 -48.000000
v -16.000000 -0.000000 48.000000
v 16.000000 31.999996 -48.000000
v 16.000000 0.000000 -48.000000
v 16.000000 31.999998 -31.999998
v 16.000000 -0.000000 -32.000000
v 16.000000 28.000000 -32.000000
v 16.000000 31.999998 32.000000
v 16.000000 27.999998 32.000000
v -16.000000 32.000000 47.999996
v 16.000000 32.000000 47.999996
v 16.000000 -0.000001 32.000000
v 16.000000 0.000001 48.000000
v -12.000000 28.000000 -32.000000
v -12.000000 -0.000000 -32.000000
v -12.000000 -0.000001 32.000000
v -12.000000 27.999998 32.000000
vn -0.7071 -0.0000 -0.7071
vn -0.5774 0.5774 0.5774
vn -0.5774 0.5774 -0.5774
vn 0.9045 -0.3015 0.3015
vn 0.7071 -0.0000 -0.7071
vn 0.5774 0.5774 -0.5774
vn 0.7071 0.7071 -0.0000
vn 0.7071 -0.0000 0.7071
vn 0.5774 0.5774 0.5774
vn 0.9045 -0.3015 -0.3015
vn 0.5774 -0.5774 0.5774
vn 0.5774 -0.5774 -0.5774
vn -0.7071 -0.0000 0.7071
vt 0.500000 2.000000
vt 1.500000 -1.000000
vt 1.500000 2.000000
vt 1.000000 0.875000
vt 1.500000 0.000000
vt 1.500000 1.000000
vt -0.250000 0.000000
vt 0.750000 1.000000
vt -0.250000 1.000000
vt 1.000000 0.000000
vt 0.000000 0.500000
vt 0.000000 0.000000
vt 0.000000 1.000000
vt 1.000000 0.000000
vt 1.000000 1.000000
vt 1.000000 0.875000
vt 0.000000 1.500000
vt 0.125000 -0.500000
vt 0.125000 1.500000
vt 1.000000 -1.000000
vt 0.000000 1.500000
vt 0.000000 -0.500000
vt 0.000000 0.500000
vt 1.000000 1.000000
vt -0.000001 0.875000
vt -0.000000 1.000000
vt -0.500000 1.000000
vt 0.062500 1.437500
vt 0.937500 -0.562500
vt 0.937500 1.437500
vt -0.000000 0.875000
vt -0.500000 -0.000000
vt 0.000000 -0.000000
vt 0.625000 0.000000
vt 1.500000 0.875000
vt 0.625000 0.875000
vt 0.125000 0.000000
vt 1.000000 2.000000
vt 0.125000 2.000000
vt 1.125000 0.875000
vt 0.250000 0.000000
vt 1.125000 0.000000
vt 0.500000 2.000000
vt 0.500000 -1.000000
vt 1.500000 -1.000000
vt 1.000000 0.875000
vt 1.500000 -0.000000
vt 0.750000 0.000000
vt 0.750000 1.000000
vt 0.000000 0.000000
vt -0.000000 -0.500000
vt 0.125000 -0.500000
vt 1.000000 -1.000000
vt 1.000000 2.000000
vt 0.000000 1.500000
vt 0.062500 1.437497
vt 0.062500 -0.562499
vt 0.937500 -0.562499
vt 0.000000 0.875000
vt -0.500000 1.000000
vt -0.500000 0.000000
vt 1.500000 0.000000
vt 0.125000 0.000000
vt 1.000000 0.000000
vt 1.000000 2.000000
vt 0.250000 0.875000
vt 0.250000 0.000000
s 1
usemtl PCUNTR11
f 1/1/1 11/2/2 2/3/3
f 5/7/5 2/8/3 4/9/6
f 2/10/3 6/11/7 4/12/6
f 11/13/2 14/14/8 12/15/9
f 6/17/7 10/18/10 8/19/4
f 2/20/3 9/21/7 6/22/7
f 9/23/7 11/24/2 12/13/9
f 17/28/5 15/29/11 18/30/12
f 16/34/8 8/35/4 15/36/11
f 15/37/11 10/38/10 18/39/12
f 18/40/12 13/41/5 17/42/5
f 1/43/1 3/44/13 11/45/2
f 5/7/5 1/48/1 2/49/3
f 11/13/2 3/50/13 14/10/8
f 6/17/7 9/51/7 10/52/10
f 2/53/3 11/54/2 9/55/7
f 17/56/5 16/57/8 15/58/11
f 16/34/8 7/62/8 8/35/4
f 15/63/11 8/64/4 10/65/10
f 18/40/12 10/66/10 13/67/5
usemtl PCUNTR12
f 8/4/4 5/5/5 4/6/6
f 6/15/7 8/16/4 4/6/6
f 10/25/10 9/26/7 12/27/9
f 10/31/10 14/32/8 13/33/5
f 8/46/4 7/10/8 5/47/5
f 10/59/10 12/60/9 14/61/8
