# Blender 4.0.2
# www.blender.org
mtllib barnroof.mtl
o Cube.001
v 298.000031 -123.500031 -27.999992
v 298.000031 -123.499969 780.000000
v -0.000020 0.099990 -28.000015
v -298.000000 -123.500023 -28.000023
v -0.000036 0.099995 780.000000
v -298.000031 -123.500015 780.000000
vn -0.0000 1.0000 -0.0000
vn 0.3831 0.9237 -0.0000
vn -0.3831 0.9237 -0.0000
vt 0.500000 -2.383250
vt 2.465115 2.944983
vt 0.500000 2.944983
vt -1.465115 -2.383250
vt -1.465115 2.944983
vt 2.465115 -2.383250
s 1
usemtl JYDWD01
f 5/1/1 1/2/2 3/3/1
f 6/4/3 3/3/1 4/5/3
f 5/1/1 2/6/2 1/2/2
f 6/4/3 5/1/1 3/3/1
