# Blender 4.0.2
# www.blender.org
mtllib farmhouseroof.mtl
o Cube
v 660.000000 -76.000000 -204.000000
v -17.999994 -76.000000 -204.000000
v 660.000000 0.499998 -0.000021
v -17.999985 0.500004 -0.000010
v 660.000000 -76.000031 203.999985
v -17.999975 -76.000000 204.000000
vn -0.0000 0.9363 -0.3511
vn -0.0000 1.0000 -0.0000
vn -0.0000 0.9363 0.3511
vt -0.560467 2.346923
vt 0.626533 2.346923
vt 0.626533 -1.346923
vt -0.560467 -1.346923
vt 1.520849 2.346923
vt 1.520849 -1.346923
s 1
usemtl HMEWD29
f 2/1/1 4/2/2 3/3/2 1/4/1
f 3/3/2 4/2/2 6/5/3 5/6/3
