# Blender 4.0.2
# www.blender.org
mtllib insurroof01.mtl
o Cube.001
v 526.000000 0.000000 0.000000
v -494.000000 0.000000 -0.000000
v 526.000000 -88.000000 310.000000
v -494.000000 -88.000000 310.000000
v 526.000000 -88.000000 -310.000000
v -494.000000 -87.999992 -310.000031
v 526.000000 6.000000 0.000000
v 526.000000 -82.999992 311.000000
v -494.000000 -82.999992 311.000000
v 526.000000 -83.000000 -311.000000
v -494.000000 6.000000 0.000000
v -494.000000 -83.000015 -311.000031
vn 0.7740 -0.6331 -0.0000
vn -0.5733 -0.6992 0.4272
vn -0.7740 -0.6331 -0.0000
vn 0.5733 -0.6992 -0.4271
vn -0.5733 -0.6992 -0.4271
vn 0.5817 0.4233 -0.6945
vn 0.6501 0.7598 -0.0000
vn 0.5818 0.4233 0.6945
vn 0.5733 -0.6992 0.4271
vn -0.5817 0.4233 0.6945
vn -0.5817 0.4233 -0.6945
vn -0.6501 0.7598 -0.0000
vt 0.416403 -1.452491
vt 1.651612 2.452491
vt 0.416402 2.452491
vt -0.627060 -1.452491
vt -0.627060 2.452491
vt 0.851563 0.791666
vt -1.500000 1.000001
vt 0.851563 1.000000
vt -1.500000 0.791667
vt 4.468750 0.791665
vt -3.468750 1.000002
vt -3.468750 0.791669
vt -3.945313 0.791669
vt 4.945312 0.999998
vt 4.945312 0.791665
vt 3.349055 -1.160604
vt -2.324229 0.640845
vt 3.349055 0.640845
vt 3.349055 2.160604
vt 1.651612 -1.452491
vt 4.468750 0.999998
vt -3.945313 1.000002
vt -2.324229 -1.160604
vt -2.324229 2.160604
s 1
usemtl BRIK002B
f 1/6/1 10/7/6 7/8/7
f 1/9/1 8/8/8 3/6/9
f 3/10/9 9/11/10 4/12/2
f 2/9/3 12/8/11 6/6/5
f 6/13/5 10/14/6 5/15/4
f 2/6/3 9/7/10 11/8/12
f 1/6/1 5/9/4 10/7/6
f 1/9/1 7/7/7 8/8/8
f 3/10/9 8/21/8 9/11/10
f 2/9/3 11/7/12 12/8/11
f 6/13/5 12/22/11 10/14/6
f 2/6/3 4/9/2 9/7/10
usemtl MROOF01
f 9/16/10 7/17/7 11/18/12
f 7/17/7 12/19/11 11/18/12
f 9/16/10 8/23/8 7/17/7
f 7/17/7 10/24/6 12/19/11
usemtl COUCH02
f 1/1/1 4/2/2 2/3/3
f 5/4/4 2/3/3 6/5/5
f 1/1/1 3/20/9 4/2/2
f 5/4/4 1/1/1 2/3/3
