# Blender 4.0.2
# www.blender.org
mtllib ts_lagerhausroof1.mtl
o Cube
v -124.000000 -61.500000 -19.999994
v 284.000000 -72.500000 -19.999994
v -124.000000 -61.499996 388.000000
v 284.000000 -72.500000 388.000031
v 0.000000 0.499996 -43.999996
v 112.000000 -55.499996 388.000031
v 0.000000 0.500003 388.000031
v 112.000000 -55.500000 -19.999994
v 56.000000 -27.500002 -19.999994
v -62.000000 -30.500002 -19.999994
vn -0.0000 1.0000 -0.0000
vn -0.0067 1.0000 -0.0000
vn -0.4472 0.8944 -0.0000
vn 0.2774 0.9608 -0.0000
vn 0.0984 0.9952 -0.0000
vn 0.4472 0.8944 -0.0000
vt -0.185801 2.570992
vt -0.185801 -1.538584
vt -0.775601 -1.310275
vt 0.879645 2.570992
vt 0.879645 -1.310275
vt -1.365402 -1.310275
vt 2.515865 -1.310275
vt -1.365402 2.570992
vt 0.346922 -1.310275
vt 2.515865 2.570992
s 1
usemtl MET33M
f 7/1/1 5/2/2 10/3/3
f 7/1/1 6/4/4 8/5/4
f 7/1/1 10/3/3 1/6/3
f 6/4/4 2/7/5 8/5/4
f 7/1/1 1/6/3 3/8/3
f 7/1/1 9/9/6 5/2/2
f 6/4/4 4/10/5 2/7/5
f 7/1/1 8/5/4 9/9/6
