# Blender 4.0.2
# www.blender.org
mtllib carlo1.mtl
o PRLD_NTM
v -151.000000 -0.000001 -41.000008
v -94.999992 48.299999 -36.000004
v -51.000000 48.299999 -36.000004
v -106.999992 31.499998 -41.000004
v -143.000000 28.350000 -41.000008
v -151.000000 14.699998 -41.000008
v -151.000000 -0.000001 40.999992
v -151.000000 14.699998 40.999992
v -143.000000 28.350000 40.999992
v -107.000000 31.499998 40.999996
v -95.000000 48.299999 35.999996
v -51.000000 48.299999 35.999996
v -23.000004 31.499998 41.000000
v 33.000000 27.300001 41.000000
v 37.000000 0.000000 -41.000000
v 33.000004 27.300001 -41.000000
v 5.000000 30.449999 -41.000000
v -146.000000 30.449999 -41.000008
v -146.000000 30.449999 40.999992
v 4.999997 30.449999 41.000000
v 37.000000 0.000000 41.000000
v 37.000000 14.699999 41.000000
v 37.000004 14.699999 -41.000000
v -23.000000 31.499998 -41.000000
v 40.000000 0.000000 0.000002
v -23.000002 31.499998 -0.000001
v 5.999999 30.449999 0.000000
v 35.000004 27.300001 0.000001
v 40.000000 14.699999 0.000002
vn -1.0000 -0.0000 -0.0000
vn -0.8627 0.5056 -0.0000
vn -0.0872 0.9962 -0.0000
vn -0.8137 0.5812 -0.0000
vn 0.2810 0.9597 -0.0000
vn -0.0000 1.0000 -0.0000
vn 0.2861 0.9582 -0.0000
vn 0.2738 0.9618 -0.0000
vn 0.0739 0.9973 -0.0015
vn 0.9827 0.1855 -0.0000
vn 0.9973 -0.0000 0.0730
vn 1.0000 -0.0000 -0.0000
vn 0.0734 0.9973 -0.0000
vn 0.1103 0.9939 -0.0037
vn 0.9343 0.3564 -0.0000
vn 0.9851 0.1604 -0.0625
vn 0.9521 0.3023 -0.0464
vn 0.5735 0.8192 -0.0000
vn -0.0000 0.0423 0.9991
vn -0.0000 0.2853 0.9585
vn -0.0000 0.0679 0.9977
vn -0.0000 -0.0000 1.0000
vn 0.9851 0.1604 0.0625
vn 0.9521 0.3023 0.0464
vn 0.1103 0.9939 0.0037
vn 0.0739 0.9973 0.0015
vn 0.9973 -0.0000 -0.0730
vn 0.1080 0.9942 -0.0000
vn -0.0000 -0.0000 -1.0000
vn -0.0000 0.0679 -0.9977
vn -0.0000 0.0423 -0.9991
vn -0.0000 0.2853 -0.9585
vt 0.925781 1.000000
vt 0.980469 0.359375
vt 0.980469 1.000000
vt 0.871094 1.000000
vt 0.871094 0.359375
vt 0.925781 0.359375
vt 0.839844 1.000000
vt 0.699219 0.359375
vt 0.839844 0.359375
vt 0.699219 1.000000
vt 0.617188 0.398438
vt 0.617188 0.960938
vt 0.433594 0.960938
vt 0.433594 0.398438
vt 0.324219 0.679688
vt 0.324219 0.359375
vt 0.214844 0.359375
vt 0.054688 0.679688
vt 0.000000 1.000000
vt 0.000000 0.679688
vt 0.214844 0.679688
vt 0.105469 0.359375
vt 0.105469 0.679688
vt 0.054688 0.359375
vt 0.855469 1.000000
vt 0.335938 0.234375
vt 0.433594 0.359375
vt 0.664062 0.234375
vt 0.835938 0.000000
vt 0.101562 0.000000
vt 0.617188 0.359375
vt 0.054688 1.000000
vt 0.105469 1.000000
vt 0.214844 1.000000
vt 0.000000 0.359375
vt 0.324219 1.000000
vt 0.855469 0.359375
vt 0.804688 0.203125
vt 0.835938 0.109375
vt 0.835938 0.000000
vt 0.101562 0.109375
vt 0.226562 0.226562
vt 0.117188 0.203125
s 1
usemtl MTCARLOD
f 8/1/1 1/2/1 7/3/1
f 8/1/2 9/4/2 5/5/2
f 6/6/2 8/1/2 5/5/2
f 9/7/3 4/8/3 5/9/3
f 9/7/3 10/10/3 4/8/3
f 10/10/4 2/11/4 4/8/4
f 10/10/4 11/12/4 2/11/4
f 12/13/5 3/14/5 2/11/6
f 11/12/6 12/13/5 2/11/6
f 26/15/7 24/16/8 3/14/5
f 26/15/7 17/17/9 24/16/8
f 29/18/10 21/19/11 25/20/12
f 27/21/13 16/22/14 17/17/9
f 28/23/15 23/24/16 16/22/17
f 5/9/18 19/25/18 9/7/18
f 13/26/19 12/27/20 10/28/21
f 7/29/22 21/30/22 13/26/19
f 12/27/20 11/31/20 10/28/21
f 10/28/21 7/29/22 13/26/19
f 22/32/23 28/23/15 14/33/24
f 14/33/25 27/21/13 20/34/26
f 23/24/16 25/20/12 15/35/27
f 20/34/26 26/15/7 13/36/8
f 8/1/1 6/6/1 1/2/1
f 3/14/5 12/13/5 26/15/7
f 26/15/7 27/21/13 17/17/9
f 29/18/10 22/32/23 21/19/11
f 27/21/13 28/23/28 16/22/14
f 28/23/15 29/18/10 23/24/16
f 5/9/18 18/37/18 19/25/18
f 10/28/21 9/38/22 7/29/22
f 22/32/23 29/18/10 28/23/15
f 14/33/25 28/23/28 27/21/13
f 23/24/16 29/18/10 25/20/12
f 20/34/26 27/21/13 26/15/7
f 9/38/22 8/39/22 7/40/22
f 1/40/29 4/28/30 24/26/31
f 21/30/22 22/41/22 20/42/22
f 22/41/22 14/43/22 20/42/22
f 20/42/22 13/26/19 21/30/22
f 2/31/32 3/27/32 4/28/30
f 3/27/32 24/26/31 4/28/30
f 24/26/31 17/42/29 15/30/29
f 17/42/29 16/43/29 23/41/29
f 15/30/29 17/42/29 23/41/29
f 15/30/29 1/40/29 24/26/31
f 1/40/29 6/39/29 5/38/29
f 4/28/30 1/40/29 5/38/29
f 12/13/5 13/36/8 26/15/7
