# Blender 4.0.2
# www.blender.org
mtllib f150d.mtl
o f150D
v 18.999987 14.000000 -35.000011
v 21.999989 20.000000 -35.000015
v -54.000008 38.000000 -34.999985
v 17.000011 0.000000 34.999996
v -100.999992 0.000000 35.000034
v -101.000008 0.000000 -34.999969
v -124.999985 16.000000 35.000042
v -125.000000 16.000000 -34.999962
v -51.999985 55.000000 35.000015
v -52.000008 55.000000 -34.999989
v -29.999983 55.000000 35.000011
v -30.000006 55.000000 -34.999992
v 19.000011 14.000000 34.999992
v 22.000013 20.000000 34.999989
v 19.000013 37.000000 34.999989
v 16.999987 0.000000 -35.000008
v 18.999994 37.000000 -35.000011
v 22.000006 14.000000 21.999994
v 25.000008 20.000000 21.999990
v 17.000006 0.000000 21.999996
v 21.999990 14.000000 -22.000006
v 24.999992 20.000000 -22.000010
v 16.999990 0.000000 -22.000004
v -78.000008 20.000000 -33.999977
v -77.999992 20.000000 34.000023
v -53.999985 38.000000 35.000019
v -100.999992 20.250000 34.000031
v -119.999985 39.000000 35.000038
v -120.000000 39.000000 -34.999966
v -89.499992 27.000000 34.000027
v -54.999992 19.500000 34.000015
v -55.000015 19.500000 -33.999985
v -77.999992 20.000000 21.833359
v -101.000008 20.250000 -33.999969
v -89.500008 27.000000 -21.999971
v -78.000008 20.000000 -21.999975
v -101.000008 20.250000 -21.999968
v -89.500008 27.000000 -33.999973
v -100.999992 20.250000 21.833366
v -89.499992 27.000000 21.833363
v -95.250008 25.486111 -33.999973
v -95.250008 25.486111 -21.999969
v -83.750008 25.361111 -33.999977
v -83.750008 25.361111 -21.999973
v -95.249992 25.486111 21.833364
v -95.249992 25.486111 34.000027
v -83.749992 25.361111 34.000023
v -83.749992 25.361111 21.833361
v -14.000007 40.000000 -35.000000
v -13.999984 40.000000 35.000004
v 22.000011 38.000000 21.999992
v 21.999998 38.000000 -22.000008
v -111.000000 14.000000 -2.499964
v -112.000000 19.000000 -2.499964
v -111.000000 14.000000 2.500036
v -112.000000 19.000000 2.500036
v -125.000000 9.000000 -2.499959
v -126.000000 14.000000 -2.499959
v -125.000000 9.000000 2.500041
v -126.000000 14.000000 2.500041
v -123.320091 23.727512 35.000042
v -138.999985 25.000000 35.000046
v -139.000015 25.000000 -34.999958
v -123.276283 23.929096 -34.999962
v -119.000000 24.000000 -33.999966
v -118.999985 24.000000 34.000034
v -17.000011 15.000000 -34.999996
v -16.999989 15.000000 35.000008
v -52.000011 15.000000 -34.999985
v -51.999989 15.000000 35.000019
v 11.379344 59.206924 34.999996
v 12.220880 55.657722 -35.000004
v 12.977618 58.728111 21.999996
v 12.136047 62.277344 -22.000004
v -2.999234 51.811436 35.000000
v -3.919900 53.148823 -35.000000
v -3.032602 50.954365 -9.308988
v -4.572227 53.236870 29.140593
v -4.572405 53.236652 -29.140688
vn -0.2209 -0.7295 0.6473
vn -0.7419 -0.3001 -0.5996
vn -0.2209 -0.7295 -0.6473
vn 0.5313 -0.6126 0.5852
vn 0.5313 -0.6126 -0.5852
vn -0.8083 0.0486 -0.5868
vn -0.4375 0.3143 0.8425
vn -0.8340 0.0548 0.5491
vn -0.7032 0.0804 0.7065
vn -0.5395 0.6067 -0.5838
vn -0.7032 0.0804 -0.7065
vn -0.5395 0.6067 0.5838
vn 0.2847 0.7199 -0.6329
vn 0.9140 -0.3919 -0.1047
vn 0.6806 -0.1059 -0.7250
vn 0.9834 -0.1449 -0.1097
vn 0.6820 0.7252 -0.0951
vn 0.5704 -0.2090 0.7943
vn 0.9569 -0.2858 0.0518
vn 0.9140 -0.3919 0.1047
vn 0.9569 -0.2858 -0.0518
vn 0.6806 -0.1059 0.7250
vn 0.6820 0.7252 0.0951
vn 0.4755 0.5725 0.6679
vn 0.5704 -0.2090 -0.7943
vn 0.9834 -0.1449 0.1097
vn -0.5072 0.8614 -0.0257
vn -0.3140 0.5854 0.7475
vn 0.0068 0.6693 0.7430
vn -0.0403 0.8609 -0.5071
vn 0.2964 0.7235 -0.6235
vn -0.5072 0.8614 0.0257
vn -0.2123 0.7671 -0.6054
vn 0.0182 0.7374 -0.6752
vn 0.3232 0.5805 0.7473
vn 0.2964 0.7235 0.6235
vn -0.0403 0.8609 0.5071
vn 0.3703 0.6557 -0.6580
vn 0.3232 0.5805 -0.7473
vn 0.1921 0.9736 -0.1229
vn 0.0199 0.7373 0.6753
vn -0.2123 0.7671 0.6054
vn -0.0681 0.9895 -0.1277
vn -0.3140 0.5854 -0.7475
vn -0.0681 0.9895 0.1277
vn 0.1921 0.9736 0.1229
vn -0.3601 0.6622 0.6572
vn 0.0077 0.7580 0.6522
vn 0.0068 0.6693 -0.7430
vn 0.0077 0.7580 -0.6522
vn -0.3601 0.6622 -0.6572
vn 0.3703 0.6557 0.6580
vn -0.4798 0.4228 -0.7688
vn -0.2871 0.6847 -0.6699
vn -0.2819 0.6759 0.6810
vn 0.2847 0.7199 0.6329
vn -0.7419 -0.3001 0.5996
vn 0.4755 0.5725 -0.6679
vn -0.0000 -0.0000 1.0000
vn -0.7055 0.3995 0.5854
vn -0.7262 -0.1452 0.6719
vn -0.7262 -0.1452 -0.6719
vn -0.7055 0.3995 -0.5854
vn -0.0000 -0.0000 -1.0000
vn -0.2491 0.6975 0.6719
vn -0.2491 0.6975 -0.6719
vn -0.6636 0.7480 -0.0000
vn 0.4425 0.8968 -0.0000
vn -0.5632 0.7554 0.3350
vn -0.6064 0.7903 0.0880
vn -0.6156 0.7879 -0.0168
vn -0.4907 0.8687 -0.0677
vn -0.4639 0.8816 -0.0878
vn -0.6359 0.7705 0.0442
vn -0.3671 0.9291 -0.0455
vn -0.3529 0.9356 0.0074
vn -0.2556 0.8963 -0.3623
vt 0.578125 0.390625
vt 0.582031 0.382812
vt 0.578125 0.382812
vt 0.464844 0.000000
vt 0.527096 0.546875
vt 0.464844 0.546875
vt 0.398438 0.000000
vt 0.398438 0.546875
vt 0.312500 0.000000
vt 0.000000 0.101562
vt 0.023438 0.000000
vt 0.023438 0.101562
vt 0.097656 0.101562
vt 0.582031 0.390625
vt 0.023438 0.546875
vt 0.097656 0.445312
vt 0.097656 0.546875
vt 0.000000 0.445312
vt 0.000000 0.546875
vt 0.023438 0.445312
vt 0.925781 0.695312
vt 0.832031 0.578125
vt 0.808594 0.593750
vt 0.675781 0.695312
vt 0.675781 0.546875
vt 0.765625 0.546875
vt 0.855469 0.546875
vt 0.925781 0.546875
vt 0.785156 0.578125
vt 0.785156 0.445312
vt 0.785156 0.539062
vt 0.765625 0.539062
vt 0.765625 0.445312
vt 0.675781 0.539062
vt 0.925781 0.539062
vt 0.855469 0.539062
vt 0.855469 0.445312
vt 0.925781 0.007812
vt 0.855469 0.101562
vt 0.855469 0.007812
vt 0.765625 0.007812
vt 0.765625 0.101562
vt 0.675781 0.007812
vt 0.832031 0.007812
vt 0.832031 0.101562
vt 0.808594 0.101562
vt 0.808594 0.445312
vt 0.808594 0.539062
vt 0.832031 0.445312
vt 0.832031 0.539062
vt 0.785156 0.007812
vt 0.785156 0.101562
vt 0.601562 0.546875
vt 0.601562 -0.000000
vt 0.808594 0.007812
vt 0.785156 0.726562
vt 0.765625 0.695312
vt 0.855469 0.695312
vt 0.808594 0.742188
vt 0.832031 0.726562
vt 0.921875 0.695312
vt 0.921875 0.546875
vt 0.152344 0.859375
vt 0.308594 0.843750
vt 0.214844 0.976562
vt 0.558594 0.000000
vt 0.558594 0.546875
vt 0.312500 0.546875
vt 0.238281 0.000000
vt 0.238281 0.546875
vt 0.000000 0.000000
vt 0.097656 0.000000
vt 0.585938 0.671875
vt 0.579204 0.733821
vt 0.492188 0.546875
vt 0.566406 0.851562
vt 0.300781 0.976562
vt 0.023438 0.851562
vt 0.011719 0.656250
vt 0.000000 0.703125
vt 0.579375 0.732246
vt 0.917969 0.960938
vt 0.980469 1.000000
vt 0.980469 0.960938
vt 1.000000 1.000000
vt 1.000000 0.960938
vt 0.917969 1.000000
vt 1.000000 -0.000000
vt 1.000000 0.546875
vt 0.916045 0.857541
vt 0.916045 0.999076
vt 0.871782 0.844674
vt 0.677705 0.999076
vt 0.721968 0.844674
vt 0.677705 0.857541
vt 0.167969 0.546875
vt 0.174898 0.501098
vt 0.174899 0.045776
vt 0.167969 0.000000
vt 0.174899 0.200711
vt 0.526274 0.000000
s 1
usemtl FF150D
f 5/1/1 8/2/2 6/3/3
f 4/1/4 6/2/3 16/3/5
f 63/4/6 61/5/7 62/6/8
f 26/6/9 10/7/10 3/4/11
f 9/8/12 12/9/13 10/7/10
f 21/10/14 2/11/15 22/12/16
f 2/11/15 52/13/17 22/12/16
f 13/14/18 20/3/19 18/1/20
f 18/14/20 23/3/21 21/1/14
f 14/15/22 51/16/23 15/17/24
f 18/18/20 14/15/22 13/19/18
f 1/1/25 23/2/21 16/3/5
f 19/20/26 52/13/17 51/16/23
f 21/10/14 19/20/26 18/18/20
f 29/21/27 41/22/28 38/23/29
f 26/24/9 31/25/30 25/26/31
f 28/21/32 27/27/33 66/28/34
f 3/24/11 43/29/35 24/26/36
f 3/24/11 24/26/36 32/25/37
f 48/30/38 47/31/39 25/32/31
f 33/33/40 25/32/31 31/34/30
f 29/21/27 65/28/41 34/27/42
f 66/35/34 27/36/33 39/37/43
f 28/21/32 46/22/44 27/27/33
f 65/38/41 37/39/45 34/40/42
f 24/41/36 36/42/46 32/43/37
f 41/44/28 42/45/47 35/46/48
f 39/37/43 37/39/45 65/38/41
f 32/43/37 36/42/46 33/33/40
f 26/24/9 30/23/49 28/21/32
f 40/47/50 30/48/49 47/31/39
f 45/49/51 46/50/44 30/48/49
f 43/51/35 44/52/52 36/42/46
f 26/53/9 3/54/11 32/43/37
f 37/39/45 39/37/43 33/33/40
f 29/21/27 34/27/42 41/22/28
f 34/40/42 37/39/45 42/45/47
f 38/23/29 3/24/11 29/21/27
f 28/21/32 30/23/49 46/22/44
f 38/55/29 35/46/48 44/52/52
f 26/24/9 25/26/31 47/29/39
f 39/37/43 27/36/33 46/50/44
f 42/56/47 37/57/45 36/58/46
f 35/59/48 42/56/47 36/58/46
f 44/60/52 35/59/48 36/58/46
f 65/28/41 29/61/27 64/62/53
f 40/47/50 47/31/39 48/30/38
f 45/60/51 40/59/50 33/57/40
f 40/59/50 48/56/38 33/57/40
f 39/58/43 45/60/51 33/57/40
f 45/49/51 30/48/49 40/47/50
f 26/53/9 32/43/37 31/34/30
f 41/44/28 35/46/48 38/55/29
f 26/24/9 47/29/39 30/23/49
f 28/61/32 66/62/34 61/28/7
f 39/37/43 65/38/41 66/35/34
f 43/51/35 36/42/46 24/41/36
f 32/43/37 33/33/40 31/34/30
f 37/39/45 33/33/40 36/42/46
f 34/40/42 42/45/47 41/44/28
f 38/23/29 43/29/35 3/24/11
f 38/55/29 44/52/52 43/51/35
f 39/37/43 46/50/44 45/49/51
f 48/30/38 25/32/31 33/33/40
f 49/63/54 16/15/5 3/64/11
f 50/63/55 11/65/56 26/64/9
f 5/1/1 7/14/57 8/2/2
f 4/1/4 5/14/1 6/2/3
f 61/5/7 8/66/2 7/67/57
f 26/6/9 9/8/12 10/7/10
f 9/8/12 11/68/56 12/9/13
f 49/69/54 11/68/56 50/70/55
f 21/10/14 1/71/25 2/11/15
f 2/11/15 17/72/58 52/13/17
f 13/14/18 4/2/4 20/3/19
f 18/14/20 20/2/19 23/3/21
f 14/15/22 19/20/26 51/16/23
f 18/18/20 19/20/26 14/15/22
f 1/1/25 21/14/14 23/2/21
f 19/20/26 22/12/16 52/13/17
f 21/10/14 22/12/16 19/20/26
f 8/73/2 64/74/53 6/75/3
f 29/76/27 3/64/11 6/75/3
f 3/64/11 10/77/10 12/65/13
f 49/63/54 17/78/58 1/79/25
f 17/78/58 2/80/15 1/79/25
f 3/64/11 12/65/13 49/63/54
f 1/79/25 16/15/5 49/63/54
f 16/15/5 6/75/3 3/64/11
f 7/73/57 5/75/1 61/81/7
f 5/75/1 4/15/4 26/64/9
f 13/79/18 14/80/22 15/78/24
f 5/75/1 26/64/9 28/76/32
f 4/15/4 13/79/18 50/63/55
f 26/64/9 4/15/4 50/63/55
f 11/65/56 9/77/12 26/64/9
f 13/79/18 15/78/24 50/63/55
f 49/69/54 12/9/13 11/68/56
f 55/82/59 60/83/60 59/84/61
f 60/85/60 57/84/62 59/86/61
f 58/83/63 53/82/64 57/84/62
f 56/82/65 58/83/63 60/84/60
f 55/82/59 56/87/65 60/83/60
f 60/85/60 58/83/63 57/84/62
f 58/83/63 54/87/66 53/82/64
f 56/82/65 54/87/66 58/83/63
f 63/88/6 66/35/34 65/38/41
f 6/75/3 64/74/53 29/76/27
f 61/81/7 5/75/1 28/76/32
f 63/88/6 62/89/8 66/35/34
f 63/88/6 65/38/41 64/38/53
f 66/35/34 62/89/8 61/35/7
f 17/90/58 49/91/54 52/92/17
f 49/91/54 50/93/55 51/94/23
f 51/94/23 52/92/17 49/91/54
f 50/93/55 15/95/24 51/94/23
f 49/69/54 68/70/67 50/70/55
f 67/69/67 70/70/68 68/70/67
f 69/69/68 31/70/30 70/70/68
f 50/70/55 75/96/69 78/97/70
f 49/69/54 79/98/71 76/99/72
f 74/13/73 77/100/74 73/16/75
f 73/16/75 77/100/74 78/97/70
f 77/100/74 79/98/71 49/69/54
f 77/100/74 50/70/55 78/97/70
f 78/97/70 71/17/76 73/16/75
f 79/98/71 72/72/77 76/99/72
f 63/4/6 64/101/53 61/5/7
f 61/5/7 64/101/53 8/66/2
f 49/69/54 67/69/67 68/70/67
f 67/69/67 69/69/68 70/70/68
f 69/69/68 32/69/37 31/70/30
f 74/13/73 79/98/71 77/100/74
f 77/100/74 49/69/54 50/70/55
f 78/97/70 75/96/69 71/17/76
f 79/98/71 74/13/73 72/72/77
