# Blender 4.0.2
# www.blender.org
mtllib F150.mtl
o f150
v 26.999987 14.000000 -35.000008
v 29.999989 20.000000 -35.000015
v -46.000008 38.000000 -34.999985
v 25.000011 0.000000 34.999996
v -92.999992 0.000000 35.000034
v -93.000008 0.000000 -34.999969
v -116.999985 16.000000 35.000042
v -117.000000 16.000000 -34.999962
v -43.999985 55.000000 35.000019
v -44.000008 55.000000 -34.999985
v -21.999983 55.000000 35.000011
v -22.000006 55.000000 -34.999992
v 27.000011 14.000000 34.999996
v 30.000013 20.000000 34.999989
v 27.000013 37.000000 34.999992
v 24.999987 0.000000 -35.000008
v 26.999994 37.000000 -35.000008
v 30.000006 14.000000 21.999994
v 33.000008 20.000000 21.999989
v 25.000006 0.000000 21.999996
v 29.999990 14.000000 -22.000006
v 32.999992 20.000000 -22.000011
v 24.999990 0.000000 -22.000004
v -70.000008 20.000000 -33.999977
v -69.999992 20.000000 34.000023
v -45.999985 38.000000 35.000019
v -92.999992 20.250000 34.000031
v -111.999985 39.000000 35.000042
v -112.000000 39.000000 -34.999962
v -81.499992 27.000000 34.000027
v -111.000000 20.500000 -33.999966
v -110.999985 20.500000 34.000034
v -46.999992 19.500000 34.000015
v -47.000015 19.500000 -33.999985
v -69.999992 20.000000 21.833359
v -93.000008 20.250000 -33.999969
v -81.500008 27.000000 -21.999971
v -70.000008 20.000000 -21.999975
v -93.000008 20.250000 -21.999968
v -81.500008 27.000000 -33.999973
v -92.999992 20.250000 21.833366
v -81.499992 27.000000 21.833363
v -87.250008 25.486111 -33.999973
v -87.250008 25.486111 -21.999969
v -75.750008 25.361111 -33.999977
v -75.750008 25.361111 -21.999973
v -87.249992 25.486111 21.833364
v -87.249992 25.486111 34.000027
v -75.749992 25.361111 34.000023
v -75.749992 25.361111 21.833361
v -6.000007 40.000000 -34.999996
v -5.999984 40.000000 35.000008
v 30.000011 38.000000 21.999992
v 29.999998 38.000000 -22.000008
v -66.853477 22.133093 -35.249981
v -58.685024 22.133093 -35.249985
v -66.853477 29.866907 -35.249981
v -58.685024 29.866907 -35.249985
v -103.000000 14.000000 -2.499964
v -104.000000 19.000000 -2.499964
v -103.000000 14.000000 2.500036
v -104.000000 19.000000 2.500036
v -117.000000 9.000000 -2.499959
v -118.000000 14.000000 -2.499959
v -117.000000 9.000000 2.500041
v -118.000000 14.000000 2.500041
vn -0.2209 -0.7295 0.6473
vn -0.7419 -0.3001 -0.5996
vn -0.2209 -0.7295 -0.6473
vn 0.5313 -0.6126 0.5852
vn 0.5313 -0.6126 -0.5852
vn -0.7419 -0.3001 0.5996
vn -0.0490 0.8788 -0.4747
vn -0.7032 0.0804 0.7065
vn -0.5395 0.6067 -0.5838
vn -0.7032 0.0804 -0.7065
vn -0.5395 0.6067 0.5838
vn 0.2847 0.7199 -0.6329
vn 0.9140 -0.3919 -0.1047
vn 0.6806 -0.1059 -0.7250
vn 0.9834 -0.1449 -0.1097
vn 0.6820 0.7252 -0.0951
vn 0.5704 -0.2090 0.7943
vn 0.9569 -0.2858 0.0518
vn 0.9140 -0.3919 0.1047
vn 0.2423 0.5601 0.7922
vn 0.4755 0.5725 0.6679
vn 0.6820 0.7252 0.0951
vn 0.9569 -0.2858 -0.0518
vn 0.6806 -0.1059 0.7250
vn 0.5704 -0.2090 -0.7943
vn 0.2423 0.5601 -0.7922
vn 0.4755 0.5725 -0.6679
vn 0.9834 -0.1449 0.1097
vn -0.3140 0.5854 0.7475
vn 0.0068 0.6693 0.7430
vn -0.5566 0.6121 -0.5617
vn 0.2964 0.7235 -0.6235
vn -0.0490 0.8788 0.4747
vn -0.2797 0.7326 -0.6206
vn 0.5665 0.6014 -0.5633
vn 0.3232 0.5805 0.7473
vn 0.2964 0.7235 0.6235
vn -0.5566 0.6121 0.5617
vn 0.3703 0.6557 -0.6580
vn 0.3232 0.5805 -0.7473
vn 0.1921 0.9736 -0.1229
vn 0.5665 0.6014 0.5633
vn -0.2797 0.7326 0.6206
vn -0.1660 0.9782 -0.1248
vn -0.3140 0.5854 -0.7475
vn -0.1660 0.9782 0.1248
vn 0.1921 0.9736 0.1229
vn -0.3601 0.6622 0.6572
vn 0.0077 0.7580 0.6522
vn 0.0068 0.6693 -0.7430
vn 0.0077 0.7580 -0.6522
vn -0.3601 0.6622 -0.6572
vn 0.3703 0.6557 0.6580
vn 0.2847 0.7199 0.6329
vn -0.0000 -0.0000 -1.0000
vn -0.0000 -0.0000 1.0000
vn -0.7055 0.3995 0.5854
vn -0.7262 -0.1452 0.6719
vn -0.7262 -0.1452 -0.6719
vn -0.7055 0.3995 -0.5854
vn -0.2491 0.6975 0.6719
vn -0.2491 0.6975 -0.6719
vt 0.578125 0.390625
vt 0.582031 0.382812
vt 0.578125 0.382812
vt 0.558594 0.546875
vt 0.464844 0.000000
vt 0.558594 0.000000
vt 0.464844 0.546875
vt 0.398438 0.000000
vt 0.398438 0.546875
vt 0.312500 0.000000
vt 0.000000 0.101562
vt 0.023438 0.000000
vt 0.023438 0.101562
vt 0.097656 0.101562
vt 0.582031 0.390625
vt 0.238281 0.546875
vt 0.097656 0.546875
vt 0.097656 0.445312
vt 0.023438 0.546875
vt 0.000000 0.445312
vt 0.000000 0.546875
vt 0.238281 0.000000
vt 0.097656 0.000000
vt 0.023438 0.445312
vt 0.925781 0.695312
vt 0.832031 0.578125
vt 0.808594 0.593750
vt 0.675781 0.695312
vt 0.675781 0.546875
vt 0.765625 0.546875
vt 0.855469 0.546875
vt 0.925781 0.546875
vt 0.785156 0.578125
vt 0.785156 0.445312
vt 0.785156 0.539062
vt 0.765625 0.539062
vt 0.765625 0.445312
vt 0.675781 0.539062
vt 0.925781 0.539062
vt 0.855469 0.539062
vt 0.855469 0.445312
vt 0.925781 0.007812
vt 0.855469 0.101562
vt 0.855469 0.007812
vt 0.765625 0.007812
vt 0.765625 0.101562
vt 0.675781 0.007812
vt 0.832031 0.007812
vt 0.832031 0.101562
vt 0.808594 0.101562
vt 0.808594 0.445312
vt 0.808594 0.539062
vt 0.832031 0.445312
vt 0.832031 0.539062
vt 0.785156 0.007812
vt 0.785156 0.101562
vt 0.601562 0.546875
vt 0.601562 -0.000000
vt 0.808594 0.007812
vt 0.785156 0.726562
vt 0.765625 0.695312
vt 0.855469 0.695312
vt 0.808594 0.742188
vt 0.832031 0.726562
vt 1.000000 -0.000000
vt 1.000000 0.546875
vt 0.152344 0.859375
vt 0.308594 0.843750
vt 0.214844 0.976562
vt 0.312500 0.546875
vt 0.000000 0.000000
vt 0.585938 0.671875
vt 0.566406 0.851562
vt 0.492188 0.546875
vt 0.300781 0.976562
vt 0.023438 0.851562
vt 0.011719 0.656250
vt 0.000000 0.703125
vt 0.589844 0.992188
vt 0.621094 0.937500
vt 0.589844 0.937500
vt 0.917969 0.960938
vt 0.980469 1.000000
vt 0.980469 0.960938
vt 1.000000 1.000000
vt 1.000000 0.960938
vt 0.621094 0.992188
vt 0.917969 1.000000
s 1
usemtl FF1501
f 5/1/1 8/2/2 6/3/3
f 4/1/4 6/2/3 16/3/5
f 7/4/6 29/5/7 8/6/2
f 26/7/8 10/8/9 3/5/10
f 9/9/11 12/10/12 10/8/9
f 21/11/13 2/12/14 22/13/15
f 2/12/14 54/14/16 22/13/15
f 13/15/17 20/3/18 18/1/19
f 52/16/20 15/17/21 53/18/22
f 18/15/19 23/3/23 21/1/13
f 14/19/24 53/18/22 15/17/21
f 18/20/19 14/19/24 13/21/17
f 1/1/25 23/2/23 16/3/5
f 51/22/26 54/14/16 17/23/27
f 19/24/28 54/14/16 53/18/22
f 21/11/13 19/24/28 18/20/19
f 29/25/7 43/26/29 40/27/30
f 26/28/8 33/29/31 25/30/32
f 28/25/33 27/31/34 32/32/35
f 3/28/10 45/33/36 24/30/37
f 3/28/10 24/30/37 34/29/38
f 50/34/39 49/35/40 25/36/32
f 35/37/41 25/36/32 33/38/31
f 29/25/7 31/32/42 36/31/43
f 32/39/35 27/40/34 41/41/44
f 28/25/33 48/26/45 27/31/34
f 31/42/42 39/43/46 36/44/43
f 24/45/37 38/46/47 34/47/38
f 43/48/29 44/49/48 37/50/49
f 41/41/44 39/43/46 31/42/42
f 34/47/38 38/46/47 35/37/41
f 26/28/8 30/27/50 28/25/33
f 42/51/51 30/52/50 49/35/40
f 47/53/52 48/54/45 30/52/50
f 45/55/36 46/56/53 38/46/47
f 26/57/8 3/58/10 34/47/38
f 39/43/46 41/41/44 35/37/41
f 29/25/7 36/31/43 43/26/29
f 36/44/43 39/43/46 44/49/48
f 40/27/30 3/28/10 29/25/7
f 28/25/33 30/27/50 48/26/45
f 40/59/30 37/50/49 46/56/53
f 26/28/8 25/30/32 49/33/40
f 41/41/44 27/40/34 48/54/45
f 44/60/48 39/61/46 38/62/47
f 37/63/49 44/60/48 38/62/47
f 46/64/53 37/63/49 38/62/47
f 29/65/7 32/39/35 31/42/42
f 42/51/51 49/35/40 50/34/39
f 47/64/52 42/63/51 35/61/41
f 42/63/51 50/60/39 35/61/41
f 41/62/44 47/64/52 35/61/41
f 47/53/52 30/52/50 42/51/51
f 26/57/8 34/47/38 33/38/31
f 43/48/29 37/50/49 40/59/30
f 26/28/8 49/33/40 30/27/50
f 29/65/7 28/66/33 32/39/35
f 41/41/44 31/42/42 32/39/35
f 45/55/36 38/46/47 24/45/37
f 34/47/38 35/37/41 33/38/31
f 39/43/46 35/37/41 38/46/47
f 36/44/43 44/49/48 43/48/29
f 40/27/30 45/33/36 3/28/10
f 40/59/30 46/56/53 45/55/36
f 41/41/44 48/54/45 47/53/52
f 50/34/39 25/36/32 35/37/41
f 54/14/16 51/22/26 53/18/22
f 51/67/26 16/19/5 3/68/10
f 52/67/20 11/69/54 26/68/8
f 5/1/1 7/15/6 8/2/2
f 4/1/4 5/15/1 6/2/3
f 7/4/6 28/7/33 29/5/7
f 26/7/8 9/9/11 10/8/9
f 9/9/11 11/70/54 12/10/12
f 51/22/26 11/70/54 52/16/20
f 21/11/13 1/71/25 2/12/14
f 2/12/14 17/23/27 54/14/16
f 13/15/17 4/2/4 20/3/18
f 18/15/19 20/2/18 23/3/23
f 14/19/24 19/24/28 53/18/22
f 18/20/19 19/24/28 14/19/24
f 1/1/25 21/15/13 23/2/23
f 19/24/28 22/13/15 54/14/16
f 21/11/13 22/13/15 19/24/28
f 8/72/2 29/73/7 6/74/3
f 29/73/7 3/68/10 6/74/3
f 3/68/10 10/75/9 12/69/12
f 51/67/26 17/76/27 1/77/25
f 17/76/27 2/78/14 1/77/25
f 3/68/10 12/69/12 51/67/26
f 1/77/25 16/19/5 51/67/26
f 16/19/5 6/74/3 3/68/10
f 7/72/6 5/74/1 28/73/33
f 5/74/1 4/19/4 26/68/8
f 13/77/17 14/78/24 15/76/21
f 5/74/1 26/68/8 28/73/33
f 4/19/4 13/77/17 52/67/20
f 26/68/8 4/19/4 52/67/20
f 11/69/54 9/75/11 26/68/8
f 13/77/17 15/76/21 52/67/20
f 53/18/22 51/22/26 52/16/20
f 51/22/26 12/10/12 11/70/54
f 55/79/55 58/80/55 56/81/55
f 61/82/56 66/83/57 65/84/58
f 66/85/57 63/84/59 65/86/58
f 64/83/60 59/82/55 63/84/59
f 62/82/61 64/83/60 66/84/57
f 55/79/55 57/87/55 58/80/55
f 61/82/56 62/88/61 66/83/57
f 66/85/57 64/83/60 63/84/59
f 64/83/60 60/88/62 59/82/55
f 62/82/61 60/88/62 64/83/60
