# Blender 4.0.2
# www.blender.org
mtllib MILIT_JED.mtl
o humveed
v 4.999995 51.000000 43.000000
v 23.999994 48.000000 43.000004
v 43.999992 41.000000 43.000004
v 43.999992 21.999998 43.000004
v -10.999998 52.000000 43.000000
v -13.000005 72.000008 43.000000
v -84.000000 72.000008 42.999992
v -132.000000 59.000004 42.999985
v -136.999985 55.999996 42.999985
v -139.000000 51.000000 42.999985
v -138.999847 23.000340 42.999550
v 4.999994 51.000000 -43.000000
v 23.999994 48.000000 -42.999996
v 43.999992 41.000000 -42.999996
v 43.999992 21.999998 -42.999996
v -10.999988 52.000000 -43.000000
v -12.999993 72.000008 -43.000000
v -83.999992 72.000008 -43.000004
v -132.000000 59.000004 -43.000011
v -136.999985 55.999996 -43.000011
v -139.000000 51.000000 -43.000011
v -139.000000 23.000000 -43.000011
v -35.000000 72.000008 12.999996
v -35.000000 72.000008 -13.000005
v -50.000000 72.000000 -19.000004
v -64.000000 72.000000 -13.000006
v -70.000000 72.000000 -0.000006
v -64.000000 72.000000 12.999994
v -70.000000 75.000000 -0.000006
v -35.000000 75.000008 -13.000005
v -50.000000 75.000000 -19.000004
v -64.000000 75.000000 -13.000006
v 35.000004 0.000000 -42.999996
v 35.000004 0.000000 43.000004
v -116.999992 0.000000 -43.000008
v -117.000000 0.000000 42.999989
v -50.000004 72.000000 18.999994
v -29.000000 72.000000 -0.000005
v -29.000000 75.000000 -0.000005
v -64.000008 75.000000 12.999995
v -50.000004 75.000000 18.999994
v -35.000000 75.000008 12.999994
v 48.157864 9.638956 41.814682
v 51.345337 0.282267 40.300640
v 47.146595 12.607483 -44.707947
v -136.999985 55.999996 -28.535650
v -136.999985 55.999996 27.368176
v -139.000000 51.000000 27.514322
v -139.000000 51.000000 -28.401489
v -132.000000 59.000004 -28.599743
v -132.000000 59.000004 27.366848
v -139.000000 32.562511 -27.866987
v -139.000000 30.770676 28.284847
v -144.398453 7.028030 -41.331940
v -143.255966 14.163468 44.945396
v -148.654694 -1.809185 -39.385658
v 5.475872 52.364552 43.000000
v 21.968525 57.741035 43.000004
v 40.013607 54.961262 43.000004
v 5.469139 52.632710 -43.000000
v 21.195353 62.455635 -42.999996
v 38.789234 63.796951 -42.999996
v 40.020561 55.465408 0.000003
v 5.475872 54.357475 -0.000000
v 21.984226 58.775986 0.000003
v 38.479523 52.967846 21.500002
v 5.456927 51.657722 21.500000
v 21.082935 56.363846 21.500002
v 5.475871 51.369026 -21.500000
v 21.981901 56.977127 -21.499996
v 40.146233 57.331249 -21.499996
v -90.982162 70.109009 -28.694208
v -135.405426 61.192242 -27.849342
v -134.340668 62.778835 26.684301
v -138.350113 60.466236 25.599436
v -138.818420 57.807312 -28.395430
v -130.122986 63.025120 -27.767668
v -128.239990 63.086750 27.742744
v -145.010498 43.184841 -30.804132
v -143.941772 38.703384 26.084721
v -90.553047 70.225220 27.688911
v -136.179092 63.114849 -2.467857
v -138.160248 59.618095 -2.721524
v -131.416916 63.448788 -1.774226
v -144.769791 42.239803 -2.698161
v -136.153305 63.021778 11.857303
v -131.066315 64.641113 12.193133
v -138.645859 59.423359 11.579406
v -144.553604 41.156681 11.535788
v -138.786972 56.180923 -14.758084
v -144.569427 41.541214 -16.570024
v -135.928909 59.951855 -14.440579
v -130.867798 61.613773 -14.229042
vn 0.7318 -0.1439 0.6661
vn 0.6542 0.4641 -0.5972
vn 0.6542 0.4641 0.5972
vn -0.0969 0.7281 0.6786
vn -0.0969 0.7281 -0.6786
vn -0.2390 0.9710 0.0060
vn 0.4457 -0.6638 0.6006
vn 0.8545 -0.0170 -0.5192
vn -1.0000 -0.0000 -0.0000
vn -0.7191 -0.2886 -0.6321
vn 0.2803 0.5624 0.7779
vn 0.5453 0.6025 -0.5828
vn 0.5453 0.6025 0.5828
vn -0.2881 0.6768 0.6774
vn -0.7613 0.6484 -0.0000
vn -0.5838 0.4972 0.6418
vn -0.5800 0.8146 -0.0000
vn -0.3056 -0.7153 0.6284
vn -0.3056 -0.7153 -0.6284
vn 0.4457 -0.6638 -0.6006
vn 0.5800 0.8146 -0.0000
vn 0.4126 0.8006 0.4346
vn 0.7816 0.6238 -0.0000
vn -0.0072 0.8042 0.5943
vn 0.5333 0.6325 0.5617
vn -0.4208 0.7974 0.4325
vn -0.0095 0.6303 0.7763
vn -0.5389 0.6346 0.5539
vn 0.5333 0.6325 -0.5617
vn 0.4126 0.8006 -0.4346
vn -0.0095 0.6303 -0.7763
vn -0.0072 0.8042 -0.5943
vn -0.5389 0.6346 -0.5539
vn -0.4208 0.7974 -0.4325
vn -0.7816 0.6238 -0.0000
vn 0.0784 0.7131 -0.6967
vn 0.1773 0.7043 -0.6874
vn -0.7317 0.1409 -0.6669
vn -0.9820 0.1891 -0.0000
vn 0.2802 0.5640 -0.7768
vn 0.1773 0.7043 0.6874
vn 0.0784 0.7131 0.6967
vn -0.7317 0.1409 0.6669
vn -0.8664 -0.0863 0.4919
vn -0.2881 0.6768 -0.6774
vn -0.5838 0.4972 -0.6418
vn 0.9467 0.3221 -0.0000
vn 0.9481 0.3180 -0.0002
vn 0.9466 0.3225 -0.0000
vn -0.3917 0.9201 -0.0000
vn -0.2443 0.9697 -0.0032
vn -0.9027 0.4296 -0.0236
vn -0.1834 0.9791 0.0880
vn -0.2460 0.9629 0.1111
vn -0.0745 0.9954 -0.0607
vn 0.1803 0.9834 0.0183
vn -0.0424 0.9991 0.0071
vn -0.0560 0.9980 0.0310
vn -0.1656 0.9862 -0.0077
vn -0.0754 0.9948 0.0688
vn -0.1637 0.9858 -0.0374
vn -0.0497 0.9626 0.2665
vn -0.0191 0.9822 0.1871
vn -0.0654 0.9953 -0.0708
vn 0.1515 0.9832 -0.1020
vn 0.1353 0.9891 0.0588
vn -0.2966 0.9228 0.2460
vn -0.5942 0.8017 -0.0646
vn -0.8446 0.5328 0.0528
vn -0.8806 0.4737 -0.0110
vn -0.9566 0.2878 0.0457
vn -0.7890 0.6123 0.0510
vn -0.8968 0.4425 -0.0064
vn -0.2555 0.9643 -0.0688
vn -0.2483 0.9648 0.0869
vn -0.5274 0.8475 0.0601
vn -0.5743 0.8187 -0.0038
vn -0.1564 0.9838 -0.0873
vn -0.5200 0.8489 -0.0947
vn -0.2266 0.9739 0.0133
vn -0.9383 0.3457 -0.0144
vn -0.8950 0.4410 -0.0675
vn -0.1368 0.9829 0.1231
vn -0.2808 0.9552 0.0933
vn -0.9283 0.3714 0.0168
vn -0.9648 0.2497 0.0827
vn -0.9227 0.3788 0.0723
vt 0.000000 0.308594
vt 0.335938 0.382812
vt 0.000000 0.382812
vt 0.648438 1.000000
vt 0.648438 0.664062
vt 0.675102 0.940191
vt 0.000000 0.000000
vt 0.965740 0.942519
vt 0.958740 0.723176
vt 0.996094 0.664062
vt 0.292969 1.000000
vt 0.371094 0.664062
vt 0.371094 1.000000
vt 0.843750 1.000000
vt 0.867188 0.938938
vt 0.867188 1.000000
vt 0.593750 0.832031
vt 0.835938 0.613281
vt 0.777344 0.382812
vt 0.433594 0.832031
vt 0.164062 0.148438
vt 0.230469 0.148438
vt 0.230469 0.160156
vt 0.109375 0.148438
vt 0.109375 0.160156
vt 0.050781 0.148438
vt 0.050781 0.160156
vt 0.000000 0.148438
vt 0.000000 0.160156
vt 0.164062 0.160156
vt 0.023637 0.184016
vt 0.082024 0.160661
vt 0.023637 0.285222
vt 0.300781 0.582031
vt 0.226562 0.570312
vt 0.183594 0.382812
vt 0.335938 0.308594
vt 0.867188 0.720564
vt 0.886719 0.664062
vt 0.886719 0.721088
vt 0.292969 0.664062
vt 0.515625 0.910156
vt 0.570312 0.886719
vt 0.570312 0.777344
vt 0.515625 0.753906
vt 0.148438 0.468750
vt 0.148438 0.542969
vt 0.363281 0.585938
vt 0.863281 0.582031
vt 0.863281 0.472656
vt 0.855469 0.601562
vt 0.457031 0.777344
vt 0.457031 0.886719
vt 0.136520 0.184016
vt 0.159875 0.234619
vt 0.136520 0.285222
vt 0.082024 0.308577
vt 0.000281 0.234619
vt 0.074219 1.000000
vt 0.035156 0.664062
vt 0.074219 0.664062
vt 0.035156 1.000000
vt 0.886719 0.939509
vt 0.886719 1.000000
vt 0.843750 0.720314
vt 0.867188 0.664062
vt 0.843750 0.664062
vt 0.676848 0.719945
vt 0.843750 0.938933
vt 0.996094 1.000000
vt 0.526245 0.807389
vt 0.156250 0.748047
vt 0.230469 0.664062
vt 0.230469 0.748047
vt 0.074219 0.916016
vt 0.156250 0.832031
vt 0.156250 0.916016
vt 0.230469 0.832031
vt 0.230469 0.916016
vt 0.230469 1.000000
vt 0.074219 0.748047
vt 0.156250 1.000000
vt 0.074219 0.832031
vt 0.156250 0.664062
vt 0.867188 0.775157
vt 0.886719 0.775693
vt 0.963990 0.887683
vt 0.886719 0.884904
vt 0.843750 0.774969
vt 0.676853 0.719945
vt 0.867188 0.884345
vt 0.843750 0.829623
vt 0.867188 0.829751
vt 0.843750 0.884278
vt 0.962240 0.832847
vt 0.886719 0.830299
vt 0.960490 0.778012
s 1
usemtl HUMVEED
f 4/1/1 14/2/2 3/3/3
f 7/4/4 18/5/5 81/6/6
f 34/7/7 15/7/8 4/7/1
f 53/8/9 52/9/9 22/10/10
f 5/11/11 17/12/12 6/13/13
f 8/14/14 47/15/15 9/16/16
f 7/4/4 27/17/17 18/5/5
f 7/5/4 8/18/14 36/19/18
f 36/7/18 22/7/10 35/7/19
f 34/7/7 35/7/19 33/7/20
f 38/20/21 6/13/13 17/12/12
f 23/21/22 38/22/21 39/23/23
f 37/21/24 23/24/22 42/25/25
f 28/24/26 37/26/24 41/27/27
f 27/26/17 28/28/26 40/29/28
f 38/26/21 30/29/29 39/27/23
f 24/24/30 31/27/31 30/25/29
f 25/21/32 32/25/33 31/30/31
f 26/21/34 29/23/35 32/30/33
f 30/31/29 31/32/31 42/33/25
f 12/34/36 13/35/37 33/36/20
f 4/1/1 15/37/8 14/2/2
f 46/38/15 21/39/38 49/40/39
f 34/7/7 33/7/20 15/7/8
f 5/11/11 16/41/40 17/12/12
f 7/4/4 6/13/13 37/42/24
f 7/4/4 37/42/24 28/43/26
f 26/44/34 25/45/32 18/5/5
f 7/4/4 28/43/26 27/17/17
f 27/17/17 26/44/34 18/5/5
f 34/36/7 4/46/1 2/35/41
f 4/46/1 3/47/3 2/35/41
f 2/35/41 1/34/42 34/36/7
f 5/48/11 6/12/13 7/5/4
f 1/34/42 5/48/11 34/36/7
f 36/19/18 34/36/7 5/48/11
f 10/49/43 11/50/44 8/18/14
f 11/50/44 36/19/18 8/18/14
f 8/18/14 9/51/16 10/49/43
f 5/48/11 7/5/4 36/19/18
f 36/7/18 11/7/44 22/7/10
f 34/7/7 36/7/18 35/7/19
f 17/12/12 18/5/5 25/45/32
f 17/12/12 25/45/32 24/52/30
f 23/53/22 37/42/24 6/13/13
f 17/12/12 24/52/30 38/20/21
f 38/20/21 23/53/22 6/13/13
f 23/21/22 39/23/23 42/30/25
f 37/21/24 42/25/25 41/30/27
f 28/24/26 41/27/27 40/25/28
f 27/26/17 40/29/28 29/27/35
f 38/26/21 24/28/30 30/29/29
f 24/24/30 25/26/32 31/27/31
f 25/21/32 26/24/34 32/25/33
f 26/21/34 27/22/17 29/23/35
f 32/54/33 29/55/35 40/56/28
f 40/56/28 41/57/27 32/54/33
f 41/57/27 42/33/25 31/32/31
f 32/54/33 41/57/27 31/32/31
f 42/33/25 39/58/23 30/31/29
f 14/47/2 15/46/8 13/35/37
f 15/46/8 33/36/20 13/35/37
f 33/36/20 35/19/19 16/48/40
f 35/19/19 22/50/10 19/18/45
f 16/48/40 35/19/19 18/5/5
f 22/50/10 21/49/38 19/18/45
f 21/49/38 20/51/46 19/18/45
f 19/18/45 18/5/5 35/19/19
f 18/5/5 17/12/12 16/48/40
f 16/48/40 12/34/36 33/36/20
f 43/59/47 45/60/48 15/61/8
f 43/59/47 44/62/49 45/60/48
f 9/16/16 48/63/39 10/64/43
f 50/65/50 20/66/46 46/38/15
f 18/5/5 19/67/45 72/68/51
f 19/67/45 50/65/50 72/68/51
f 51/69/50 8/14/14 81/6/6
f 8/14/14 7/4/4 81/6/6
f 18/5/5 72/68/51 81/6/6
f 11/70/44 10/64/43 53/8/9
f 10/64/43 48/63/39 53/8/9
f 49/40/39 21/39/38 52/9/9
f 21/39/38 22/10/10 52/9/9
f 11/70/44 53/8/9 22/10/10
f 8/14/14 51/69/50 47/15/15
f 46/38/15 20/66/46 21/39/38
f 9/16/16 47/15/15 48/63/39
f 50/65/50 19/67/45 20/66/46
f 56/60/52 11/59/44 54/61/52
f 56/60/52 55/62/52 11/59/44
f 1/71/42 16/71/40 5/71/11
f 3/71/3 13/71/37 2/71/41
f 2/71/41 12/71/36 1/71/42
f 72/71/51 51/71/50 81/71/6
f 46/71/15 51/71/50 50/71/50
f 52/71/9 48/71/39 49/71/39
f 49/71/39 47/71/15 46/71/15
f 70/72/53 60/73/54 69/74/55
f 66/75/56 65/76/57 68/77/58
f 69/74/55 60/73/54 16/41/40
f 68/77/58 64/78/59 67/79/60
f 64/78/59 5/11/11 67/79/60
f 57/80/61 67/79/60 5/11/11
f 62/61/62 70/72/53 71/81/63
f 68/77/58 57/80/61 58/82/64
f 66/75/56 58/82/64 59/59/65
f 63/83/66 70/72/53 65/76/57
f 64/78/59 69/74/55 16/41/40
f 65/76/57 69/74/55 64/78/59
f 70/72/53 61/84/67 60/73/54
f 66/75/56 63/83/66 65/76/57
f 68/77/58 65/76/57 64/78/59
f 64/78/59 16/41/40 5/11/11
f 62/61/62 61/84/67 70/72/53
f 68/77/58 67/79/60 57/80/61
f 66/75/56 68/77/58 58/82/64
f 63/83/66 71/81/63 70/72/53
f 65/76/57 70/72/53 69/74/55
f 92/85/68 76/40/69 90/86/70
f 89/87/71 75/63/72 88/88/73
f 93/89/74 72/90/51 77/65/75
f 93/89/74 73/38/76 92/85/68
f 86/91/77 84/92/78 82/93/79
f 87/94/80 72/90/51 84/92/78
f 90/86/70 85/95/81 83/96/82
f 88/88/73 82/93/79 83/96/82
f 75/63/72 86/91/77 88/88/73
f 81/6/6 87/94/80 78/69/83
f 74/15/84 87/94/80 86/91/77
f 85/95/81 88/88/73 83/96/82
f 76/40/69 91/97/85 90/86/70
f 82/93/79 93/89/74 92/85/68
f 84/92/78 72/90/51 93/89/74
f 83/96/82 92/85/68 90/86/70
f 92/85/68 73/38/76 76/40/69
f 89/87/71 80/8/86 75/63/72
f 93/89/74 77/65/75 73/38/76
f 86/91/77 87/94/80 84/92/78
f 90/86/70 91/97/85 85/95/81
f 88/88/73 86/91/77 82/93/79
f 75/63/72 74/15/84 86/91/77
f 81/6/6 72/90/51 87/94/80
f 74/15/84 78/69/83 87/94/80
f 85/95/81 89/87/71 88/88/73
f 76/40/69 79/9/87 91/97/85
f 82/93/79 84/92/78 93/89/74
f 83/96/82 82/93/79 92/85/68
f 1/71/42 12/71/36 16/71/40
f 3/71/3 14/71/2 13/71/37
f 2/71/41 13/71/37 12/71/36
f 72/71/51 50/71/50 51/71/50
f 46/71/15 47/71/15 51/71/50
f 52/71/9 53/71/9 48/71/39
f 49/71/39 48/71/39 47/71/15
