# Blender 4.0.2
# www.blender.org
mtllib MILIT_JE.mtl
o humvee
v 4.999995 51.000000 43.000000
v 23.999994 48.000000 43.000004
v 43.999992 41.000000 43.000004
v 43.999992 21.999998 43.000004
v -10.999998 52.000000 43.000000
v -13.000005 72.000008 43.000000
v -84.000000 72.000008 42.999992
v -132.000000 59.000004 42.999985
v -136.999985 55.999996 42.999985
v -139.000000 51.000000 42.999985
v -139.000000 23.000000 42.999985
v 4.999994 51.000000 -43.000000
v 23.999994 48.000000 -42.999996
v 43.999992 41.000000 -42.999996
v 43.999992 21.999998 -42.999996
v -10.999988 52.000000 -43.000000
v -12.999993 72.000008 -43.000000
v -83.999992 72.000008 -43.000004
v -132.000000 59.000004 -43.000011
v -136.999985 55.999996 -43.000011
v -139.000000 51.000000 -43.000011
v -139.000000 23.000000 -43.000011
v -35.000000 72.000008 12.999996
v -35.000000 72.000008 -13.000005
v -50.000000 72.000000 -19.000004
v -64.000000 72.000000 -13.000006
v -70.000000 72.000000 -0.000006
v -64.000000 72.000000 12.999994
v -70.000000 75.000000 -0.000006
v -35.000000 75.000008 -13.000005
v -50.000000 75.000000 -19.000004
v -64.000000 75.000000 -13.000006
v 35.000004 0.000000 -42.999996
v 35.000004 0.000000 43.000004
v -116.999992 0.000000 -43.000008
v -117.000000 0.000000 42.999989
v 43.999996 12.000000 43.000004
v 43.999996 12.000000 -42.999996
v -139.000015 13.000000 42.999985
v -139.000015 13.000000 -43.000011
v -50.000004 72.000000 18.999994
v -29.000000 72.000000 -0.000005
v -29.000000 75.000000 -0.000005
v -64.000008 75.000000 12.999995
v -50.000004 75.000000 18.999994
v -35.000000 75.000008 12.999994
v -19.041586 50.627594 40.769737
v -24.686674 125.316948 40.769737
v -3.470237 49.279385 40.769737
v -9.242181 127.715309 40.769737
v -18.959085 87.732689 40.769737
v -3.340121 88.309196 40.769737
v -2.956688 68.817047 40.769737
v -18.573483 69.449745 40.769737
v -20.647552 105.860764 40.769737
v -5.203065 108.259132 40.769737
vn 0.8526 -0.1103 0.5108
vn 0.6542 0.4641 -0.5972
vn 0.6542 0.4641 0.5972
vn -0.7317 0.1409 0.6669
vn -0.8532 -0.2166 -0.4745
vn -0.8532 -0.2166 0.4745
vn -0.0969 0.7281 0.6786
vn -0.2881 0.6768 -0.6774
vn -0.2881 0.6768 0.6774
vn 0.0784 0.7131 0.6967
vn 0.3230 0.3353 -0.8850
vn 0.3230 0.3353 0.8850
vn 0.4457 -0.6638 0.6006
vn 0.8526 -0.1103 -0.5108
vn 0.1773 0.7043 0.6874
vn 0.0784 0.7131 -0.6967
vn -0.5838 0.4972 -0.6418
vn -0.5838 0.4972 0.6418
vn 0.5453 0.6025 -0.5828
vn 0.5453 0.6025 0.5828
vn 0.1773 0.7043 -0.6874
vn -0.7317 0.1409 -0.6669
vn -0.5800 0.8146 -0.0000
vn -0.0969 0.7281 -0.6786
vn -0.3056 -0.7153 0.6284
vn -0.3056 -0.7153 -0.6284
vn 0.4457 -0.6638 -0.6006
vn 0.5800 0.8146 -0.0000
vn 0.4126 0.8006 0.4346
vn 0.7816 0.6238 -0.0000
vn -0.0072 0.8042 0.5943
vn 0.5333 0.6325 0.5617
vn -0.4208 0.7974 0.4325
vn -0.0095 0.6303 0.7763
vn -0.5389 0.6346 0.5539
vn 0.5333 0.6325 -0.5617
vn 0.4126 0.8006 -0.4346
vn -0.0095 0.6303 -0.7763
vn -0.0072 0.8042 -0.5943
vn -0.5389 0.6346 -0.5539
vn -0.4208 0.7974 -0.4325
vn -0.7816 0.6238 -0.0000
vn 1.0000 -0.0000 -0.0000
vn -1.0000 -0.0000 -0.0000
vn -0.0000 -0.0000 -1.0000
vt 0.000000 0.308594
vt 0.335938 0.382812
vt 0.000000 0.382812
vt 0.886719 1.000000
vt 0.996094 0.664062
vt 0.996094 1.000000
vt 0.648438 1.000000
vt 0.843750 0.664062
vt 0.843750 1.000000
vt 0.230469 1.000000
vt 0.292969 0.664062
vt 0.292969 1.000000
vt 0.000000 0.000000
vt 0.156250 1.000000
vt 0.230469 0.664062
vt 0.867188 0.664062
vt 0.867188 1.000000
vt 0.371094 0.664062
vt 0.371094 1.000000
vt 0.074219 1.000000
vt 0.156250 0.664062
vt 0.886719 0.664062
vt 0.593750 0.832031
vt 0.648438 0.664062
vt 0.835938 0.613281
vt 0.777344 0.382812
vt 0.433594 0.832031
vt 0.164062 0.148438
vt 0.230469 0.148438
vt 0.230469 0.160156
vt 0.109375 0.148438
vt 0.109375 0.160156
vt 0.050781 0.148438
vt 0.050781 0.160156
vt 0.000000 0.148438
vt 0.000000 0.160156
vt 0.164062 0.160156
vt 0.023637 0.184016
vt 0.082024 0.160661
vt 0.023637 0.285222
vt 0.300781 0.582031
vt 0.226562 0.570312
vt 0.183594 0.382812
vt 0.335938 0.308594
vt 0.074219 0.664062
vt 0.515625 0.910156
vt 0.570312 0.886719
vt 0.570312 0.777344
vt 0.515625 0.753906
vt 0.148438 0.468750
vt 0.148438 0.542969
vt 0.363281 0.585938
vt 0.863281 0.582031
vt 0.863281 0.472656
vt 0.855469 0.601562
vt 0.457031 0.777344
vt 0.457031 0.886719
vt 0.136520 0.184016
vt 0.159875 0.234619
vt 0.136520 0.285222
vt 0.082024 0.308577
vt 0.000281 0.234619
vt 0.035156 0.664062
vt 0.280730 0.072281
vt 0.371349 0.144676
vt 0.278990 0.144932
vt 0.096010 0.072794
vt 0.186630 0.145188
vt 0.094270 0.145444
vt 0.003651 0.073050
vt 0.001911 0.145700
vt 0.188370 0.072537
vt 0.035156 1.000000
vt 0.373089 0.072025
s 1
usemtl HUMVEE01
f 4/1/1 14/2/2 3/3/3
f 10/4/4 22/5/5 11/6/6
f 7/7/7 19/8/8 8/9/9
f 1/10/10 16/11/11 5/12/12
f 34/13/13 15/13/14 4/13/1
f 2/14/15 12/15/16 1/10/10
f 8/9/9 20/16/17 9/17/18
f 5/12/12 17/18/19 6/19/20
f 3/20/3 13/21/21 2/14/15
f 9/17/18 21/22/22 10/4/4
f 7/7/7 27/23/23 18/24/24
f 7/24/7 8/25/9 36/26/25
f 36/13/25 22/13/5 35/13/26
f 34/13/13 35/13/26 33/13/27
f 42/27/28 6/19/20 17/18/19
f 23/28/29 42/29/28 43/30/30
f 41/28/31 23/31/29 46/32/32
f 28/31/33 41/33/31 45/34/34
f 27/33/23 28/35/33 44/36/35
f 42/33/28 30/36/36 43/34/30
f 24/31/37 31/34/38 30/32/36
f 25/28/39 32/32/40 31/37/38
f 26/28/41 29/30/42 32/37/40
f 30/38/36 31/39/38 46/40/32
f 12/41/16 13/42/21 33/43/27
f 4/1/1 15/44/14 14/2/2
f 10/4/4 21/22/22 22/5/5
f 7/7/7 18/24/24 19/8/8
f 1/10/10 12/15/16 16/11/11
f 34/13/13 33/13/27 15/13/14
f 2/14/15 13/21/21 12/15/16
f 8/9/9 19/8/8 20/16/17
f 5/12/12 16/11/11 17/18/19
f 3/20/3 14/45/2 13/21/21
f 9/17/18 20/16/17 21/22/22
f 7/7/7 6/19/20 41/46/31
f 7/7/7 41/46/31 28/47/33
f 26/48/41 25/49/39 18/24/24
f 7/7/7 28/47/33 27/23/23
f 27/23/23 26/48/41 18/24/24
f 34/43/13 4/50/1 2/42/15
f 4/50/1 3/51/3 2/42/15
f 2/42/15 1/41/10 34/43/13
f 5/52/12 6/18/20 7/24/7
f 1/41/10 5/52/12 34/43/13
f 36/26/25 34/43/13 5/52/12
f 10/53/4 11/54/6 8/25/9
f 11/54/6 36/26/25 8/25/9
f 8/25/9 9/55/18 10/53/4
f 5/52/12 7/24/7 36/26/25
f 36/13/25 11/13/6 22/13/5
f 34/13/13 36/13/25 35/13/26
f 17/18/19 18/24/24 25/49/39
f 17/18/19 25/49/39 24/56/37
f 23/57/29 41/46/31 6/19/20
f 17/18/19 24/56/37 42/27/28
f 42/27/28 23/57/29 6/19/20
f 23/28/29 43/30/30 46/37/32
f 41/28/31 46/32/32 45/37/34
f 28/31/33 45/34/34 44/32/35
f 27/33/23 44/36/35 29/34/42
f 42/33/28 24/35/37 30/36/36
f 24/31/37 25/33/39 31/34/38
f 25/28/39 26/31/41 32/32/40
f 26/28/41 27/29/23 29/30/42
f 32/58/40 29/59/42 44/60/35
f 44/60/35 45/61/34 32/58/40
f 45/61/34 46/40/32 31/39/38
f 32/58/40 45/61/34 31/39/38
f 46/40/32 43/62/30 30/38/36
f 14/51/2 15/50/14 13/42/21
f 15/50/14 33/43/27 13/42/21
f 33/43/27 35/26/26 16/52/11
f 35/26/26 22/54/5 19/25/8
f 16/52/11 35/26/26 18/24/24
f 22/54/5 21/53/22 19/25/8
f 21/53/22 20/55/17 19/25/8
f 19/25/8 18/24/24 35/26/26
f 18/24/24 17/18/19 16/52/11
f 16/52/11 12/41/16 33/43/27
f 4/20/1 38/63/43 15/45/14
f 40/63/44 11/20/6 22/45/5
f 55/64/45 50/65/45 56/66/45
f 54/67/45 52/68/45 53/69/45
f 47/70/45 53/69/45 49/71/45
f 55/64/45 52/68/45 51/72/45
f 4/20/1 37/73/43 38/63/43
f 40/63/44 39/73/44 11/20/6
f 55/64/45 48/74/45 50/65/45
f 54/67/45 51/72/45 52/68/45
f 47/70/45 54/67/45 53/69/45
f 55/64/45 56/66/45 52/68/45
