# Blender 4.0.2
# www.blender.org
mtllib tanker1.mtl
o tanker
v -400.000000 -0.000000 -64.000000
v -400.000000 0.000000 64.000000
v -299.000000 38.000004 -64.000000
v -299.000000 -0.000000 -64.000000
v -400.000000 42.000000 -64.000000
v -400.000000 42.000000 63.999996
v 64.000000 42.000000 -64.000000
v 64.000000 42.000000 63.999996
v -378.000000 42.000000 42.000000
v -378.000000 57.000000 51.000000
v -378.000000 76.000000 54.000000
v -378.000000 95.000000 53.000000
v -378.000000 110.000000 47.999996
v -378.000000 126.000000 35.000000
v -378.000000 134.000000 18.000000
v -378.000000 135.000000 -0.000000
v -378.000000 42.000000 -43.000000
v -378.000000 57.000000 -51.000000
v -378.000000 76.000000 -54.000000
v -378.000000 95.000000 -53.000000
v -378.000000 110.000000 -48.000004
v -378.000000 126.000000 -36.000000
v -378.000000 134.000000 -18.000000
v 52.000000 42.000000 -43.000000
v 52.000000 57.000000 -51.000000
v 52.000000 76.000000 -54.000000
v 52.000000 95.000000 -53.000000
v 52.000000 110.000000 -48.000004
v 52.000000 126.000000 -36.000000
v 52.000000 134.000000 -18.000000
v 52.000000 135.000000 -0.000000
v 52.000000 42.000000 42.000000
v 52.000000 57.000000 51.000000
v 52.000000 76.000000 54.000000
v 52.000000 95.000000 53.000000
v 52.000000 110.000000 47.999996
v 52.000000 126.000000 35.000000
v 52.000000 134.000000 18.000000
v 62.000000 85.000000 0.000000
v -388.000000 85.000000 0.000000
v 64.000000 38.000004 -64.000000
v 64.000000 37.999996 63.999996
v -299.000000 0.000000 64.000000
v -299.000000 37.999996 63.999996
vn -0.5774 0.5774 -0.5773
vn 0.5774 0.5774 0.5773
vn 0.5774 0.5774 -0.5773
vn 0.5774 -0.5774 -0.5774
vn 0.3015 -0.3015 -0.9045
vn -0.5774 0.5774 0.5773
vn -0.7071 -0.0000 -0.7071
vn -0.7071 -0.0000 0.7071
vn 0.7404 -0.3925 0.5456
vn -0.6077 -0.2728 0.7458
vn -0.7404 -0.3925 0.5456
vn 0.6077 -0.2728 0.7458
vn -0.6199 -0.0416 0.7836
vn 0.6199 -0.0416 0.7836
vn -0.6138 0.1469 0.7757
vn 0.6138 0.1469 0.7757
vn -0.6059 0.3826 0.6975
vn 0.6059 0.3826 0.6975
vn -0.5980 0.6308 0.4945
vn 0.5980 0.6308 0.4945
vn -0.6012 0.7744 0.1971
vn 0.6012 0.7744 0.1971
vn -0.6232 0.7820 -0.0000
vn -0.6119 -0.2529 -0.7494
vn 0.7352 -0.3686 -0.5688
vn -0.7352 -0.3686 -0.5688
vn -0.6199 -0.0416 -0.7836
vn 0.6119 -0.2529 -0.7494
vn -0.6138 0.1469 -0.7757
vn 0.6199 -0.0416 -0.7836
vn -0.6093 0.3680 -0.7024
vn 0.6138 0.1469 -0.7757
vn -0.5938 0.6289 -0.5019
vn 0.6093 0.3680 -0.7024
vn -0.6030 0.7752 -0.1885
vn 0.5938 0.6289 -0.5019
vn 0.6030 0.7752 -0.1885
vn -1.0000 -0.0052 0.0003
vn 0.6232 0.7820 -0.0000
vn 1.0000 -0.0052 0.0003
vn 0.7071 -0.0000 0.7071
vn 0.3015 -0.3015 0.9045
vn 0.5774 -0.5774 0.5774
vn 0.7071 -0.0000 -0.7071
vt 0.177778 0.233533
vt 0.822222 1.000000
vt 0.822222 0.233533
vt 0.822222 0.233533
vt 0.822222 0.209581
vt 0.318056 0.209581
vt 0.177778 0.233533
vt 0.000000 0.000000
vt 0.177778 0.000000
vt 0.684722 0.640719
vt 0.177778 0.694611
vt 0.177778 0.640719
vt 0.684722 0.694611
vt 0.177778 0.742515
vt 0.684722 0.742515
vt 0.177778 0.796407
vt 0.684722 0.796407
vt 0.177778 0.844311
vt 0.684722 0.844311
vt 0.177778 0.898204
vt 0.684722 0.898204
vt 0.177778 0.946108
vt 0.684722 0.946108
vt 0.177778 1.000000
vt 0.177778 0.694611
vt 0.177778 0.640719
vt 0.177778 0.742515
vt 0.684722 0.694611
vt 0.177778 0.796407
vt 0.177778 0.844311
vt 0.684722 0.796407
vt 0.177778 0.898204
vt 0.684722 0.844311
vt 0.177778 0.946108
vt 0.177778 1.000000
vt 0.501389 1.000000
vt 0.484722 0.994012
vt 0.500000 0.802395
vt 0.615972 0.994012
vt 0.599306 0.988024
vt 0.614583 0.796407
vt 0.582639 0.958084
vt 0.572917 0.898204
vt 0.567361 0.838323
vt 0.567361 0.766467
vt 0.570139 0.694611
vt 0.577083 0.634731
vt 0.653472 0.634731
vt 0.660417 0.694611
vt 0.663194 0.766467
vt 0.663194 0.838323
vt 0.659028 0.898204
vt 0.646528 0.958084
vt 0.631250 0.988024
vt 0.468056 0.964072
vt 0.458333 0.904192
vt 0.452778 0.844311
vt 0.452778 0.772455
vt 0.455556 0.700599
vt 0.462500 0.640719
vt 0.538889 0.640719
vt 0.545833 0.700599
vt 0.548611 0.772455
vt 0.548611 0.844311
vt 0.544444 0.904192
vt 0.531944 0.964072
vt 0.516667 0.994012
vt 0.684722 1.000000
vt 0.351389 0.089820
vt 0.822222 0.209581
vt 1.000000 0.233533
vt 1.000000 0.209581
vt 0.318056 0.209581
vt 0.822222 0.233533
vt 0.177778 0.233533
vt 0.318056 -0.000000
vt 0.177778 -0.000000
vt 0.177778 0.233533
vt 0.000000 0.233533
vt 0.822222 0.233533
vt 0.177778 -0.000000
vt 0.318056 -0.000000
vt 0.822222 0.209581
s 1
usemtl TNKR01
f 5/1/1 8/2/2 7/3/3
f 7/4/3 41/5/4 3/6/5
f 6/7/6 1/8/7 2/9/8
f 32/10/9 10/11/10 9/12/11
f 33/13/12 11/14/13 10/11/10
f 34/15/14 12/16/15 11/14/13
f 35/17/16 13/18/17 12/16/15
f 36/19/18 14/20/19 13/18/17
f 37/21/20 15/22/21 14/20/19
f 38/23/22 16/24/23 15/22/21
f 18/25/24 24/10/25 17/26/26
f 19/27/27 25/28/28 18/25/24
f 20/29/29 26/15/30 19/27/27
f 21/30/31 27/31/32 20/29/29
f 22/32/33 28/33/34 21/30/31
f 23/34/35 29/21/36 22/32/33
f 16/35/23 30/23/37 23/34/35
f 16/36/23 23/37/35 40/38/38
f 32/10/9 33/13/12 10/11/10
f 31/39/39 38/40/22 39/41/40
f 38/40/22 37/42/20 39/41/40
f 37/42/20 36/43/18 39/41/40
f 36/43/18 35/44/16 39/41/40
f 35/44/16 34/45/14 39/41/40
f 34/45/14 33/46/12 39/41/40
f 33/46/12 32/47/9 39/41/40
f 32/47/9 24/48/25 39/41/40
f 24/48/25 25/49/28 39/41/40
f 25/49/28 26/50/30 39/41/40
f 26/50/30 27/51/32 39/41/40
f 27/51/32 28/52/34 39/41/40
f 28/52/34 29/53/36 39/41/40
f 29/53/36 30/54/37 39/41/40
f 30/54/37 31/39/39 39/41/40
f 23/37/35 22/55/33 40/38/38
f 22/55/33 21/56/31 40/38/38
f 21/56/31 20/57/29 40/38/38
f 20/57/29 19/58/27 40/38/38
f 19/58/27 18/59/24 40/38/38
f 18/59/24 17/60/26 40/38/38
f 17/60/26 9/61/11 40/38/38
f 9/61/11 10/62/10 40/38/38
f 10/62/10 11/63/13 40/38/38
f 11/63/13 12/64/15 40/38/38
f 12/64/15 13/65/17 40/38/38
f 13/65/17 14/66/19 40/38/38
f 14/66/19 15/67/21 40/38/38
f 15/67/21 16/36/23 40/38/38
f 33/13/12 34/15/14 11/14/13
f 34/15/14 35/17/16 12/16/15
f 35/17/16 36/19/18 13/18/17
f 36/19/18 37/21/20 14/20/19
f 37/21/20 38/23/22 15/22/21
f 38/23/22 31/68/39 16/24/23
f 18/25/24 25/28/28 24/10/25
f 19/27/27 26/15/30 25/28/28
f 20/29/29 27/31/32 26/15/30
f 21/30/31 28/33/34 27/31/32
f 22/32/33 29/21/36 28/33/34
f 23/34/35 30/23/37 29/21/36
f 16/35/23 31/68/39 30/23/37
f 43/69/41 3/69/5 44/69/42
f 41/70/4 8/71/2 42/72/43
f 3/69/5 42/69/43 44/69/42
f 44/73/42 8/74/2 6/75/6
f 5/1/1 6/24/6 8/2/2
f 4/76/44 1/77/7 3/6/5
f 1/77/7 5/78/1 3/6/5
f 5/78/1 7/4/3 3/6/5
f 6/7/6 5/79/1 1/8/7
f 43/69/41 4/69/44 3/69/5
f 41/70/4 7/80/3 8/71/2
f 3/69/5 41/69/4 42/69/43
f 2/81/8 43/82/41 44/73/42
f 44/73/42 42/83/43 8/74/2
f 6/75/6 2/81/8 44/73/42
